<?xml version="1.0" standalone="no"?>
<!DOCTYPE svg PUBLIC "-//W3C//DTD SVG 1.1//EN" "http://www.w3.org/Graphics/SVG/1.1/DTD/svg11.dtd" >
<svg>
<metadata>
Created by FontForge 20090914 at Tue Sep 17 07:38:35 2013
 By www-data
Copyright (c) The Font Bureau, Inc, 2003. All rights reserved.
</metadata>
<defs>
<font id="Amplitude-Light" horiz-adv-x="500" >
  <font-face 
    font-family="Amplitude-Light"
    font-weight="500"
    font-stretch="normal"
    units-per-em="1000"
    panose-1="2 0 6 6 4 0 0 2 0 4"
    ascent="800"
    descent="-200"
    x-height="519"
    cap-height="651"
    bbox="-48.0029 -237.001 1103 888.005"
    underline-thickness="20"
    underline-position="-113"
    unicode-range="U+0020-U+00FB"
  />
<missing-glyph 
 />
    <glyph glyph-name=".notdef" 
 />
    <glyph glyph-name="space" unicode=" " horiz-adv-x="238" 
 />
    <glyph glyph-name="space" unicode="&#xa0;" horiz-adv-x="238" 
 />
    <glyph glyph-name="exclam" unicode="!" horiz-adv-x="255" 
d="M96 414v278h63v-278l-17 -240h-29zM127 -9c-14 0 -26.5 5.16699 -37.5 15.5s-16.5 23.5 -16.5 39.5c0 16.667 5.5 30.167 16.5 40.5s23.5 15.5 37.5 15.5c15.333 0 28.333 -5.16699 39 -15.5s16 -23.833 16 -40.5c0 -16 -5.33301 -29.167 -16 -39.5
s-23.667 -15.5 -39 -15.5z" />
    <glyph glyph-name="quotedbl" unicode="&#x22;" horiz-adv-x="344" 
d="M211 581v111h61v-111l-17 -149h-27zM72 581v111h61v-111l-17 -149h-27z" />
    <glyph glyph-name="numbersign" unicode="#" horiz-adv-x="570" 
d="M143 181h-100l8 50h100l31 203h-99l8 50h99l26 167h44l-26 -167h151l26 167h44l-26 -167h98l-8 -50h-98l-31 -203h97l-8 -50h-97l-28 -181h-44l28 181h-151l-28 -181h-44zM347 229l31 207h-153l-31 -207h153z" />
    <glyph glyph-name="dollar" unicode="$" horiz-adv-x="475" 
d="M305 658c20 -3.33301 37.8281 -7.50098 53.4951 -12.501s30.5 -10.5 44.5 -16.5l-11 -44l-46.5 14.5c-14.333 4.33301 -30.166 7.83301 -47.499 10.5l-36 -257c24 -8 46 -16.667 66 -26s37.167 -21 51.5 -35s25.333 -31 33 -51s11.5 -44.667 11.5 -74
c0 -60 -16.667 -105.167 -50 -135.5s-78.666 -45.5 -135.999 -45.5h-15c-4 0 -8.33301 0.333008 -13 1l-20 -139l-47 8l19 136c-23.333 3.33301 -44.166 8.5 -62.499 15.5s-36.166 15.167 -53.499 24.5l17 40c18.667 -8 36.334 -15.167 53.001 -21.5
s34.334 -11.166 53.001 -14.499l40 281c-24.667 8 -46.5 16.667 -65.5 26s-35.167 20.5 -48.5 33.5s-23.5 28.833 -30.5 47.5s-10.5 41.667 -10.5 69c0 56.667 15.667 99.167 47 127.5s75.666 42.5 132.999 42.5h24l16 115l47 -7l-16 -113v0zM227.995 613.999
c-40 0 -69.833 -8.83105 -89.5 -26.498s-29.5 -47.834 -29.5 -90.501c0 -18 1.5 -33.333 4.5 -46s8.5 -23.834 16.5 -33.501s18.833 -18.167 32.5 -25.5s31.5 -15 53.5 -23l35 245h-23zM224.995 31.001c46.667 0 81.999 9.66699 105.999 29s36 54.333 36 105
c0 18.667 -1.5 34.834 -4.5 48.501s-8.83301 25.667 -17.5 36s-20.167 19.666 -34.5 27.999s-33.166 16.5 -56.499 24.5l-38 -271h9z" />
    <glyph glyph-name="percent" unicode="%" horiz-adv-x="797" 
d="M187 250c-24.667 0 -46.167 5.66406 -64.5 16.9971s-33.5 26.5 -45.5 45.5s-20.833 41 -26.5 66s-8.5 51.5 -8.5 79.5c0 26.667 3 52.334 9 77.001s15.167 46.5 27.5 65.5s27.666 34.167 45.999 45.5s39.833 17 64.5 17c25.333 0 47.166 -5.66699 65.499 -17
s33.5 -26.333 45.5 -45s20.833 -40.167 26.5 -64.5s8.5 -49.833 8.5 -76.5c0 -28 -3 -54.667 -9 -80s-15.167 -47.666 -27.5 -66.999s-27.666 -34.666 -45.999 -45.999s-40.166 -17 -65.499 -17zM552 650.997h51l-358 -651h-51zM607 -14.0029
c-24.667 0 -46.167 5.66406 -64.5 16.9971s-33.5 26.5 -45.5 45.5s-20.833 41 -26.5 66s-8.5 51.5 -8.5 79.5c0 26.667 3 52.334 9 77.001s15.167 46.5 27.5 65.5s27.666 34.167 45.999 45.5s39.833 17 64.5 17c25.333 0 47.166 -5.66699 65.499 -17s33.5 -26.333 45.5 -45
s20.833 -40.167 26.5 -64.5s8.5 -49.833 8.5 -76.5c0 -28 -3 -54.667 -9 -80s-15.167 -47.666 -27.5 -66.999s-27.666 -34.666 -45.999 -45.999s-40.166 -17 -65.499 -17zM188 289.994c12 0 23.333 2.33496 34 7.00195s20.167 12.5 28.5 23.5s14.833 25.833 19.5 44.5
s7 42 7 70v42c0 28 -2.33301 51.167 -7 69.5s-11.167 33 -19.5 44s-17.833 18.667 -28.5 23s-22 6.5 -34 6.5s-23.333 -2.33301 -34 -7s-20.167 -12.5 -28.5 -23.5s-14.833 -25.667 -19.5 -44s-7 -41.5 -7 -69.5v-42c0 -28.667 2.33301 -52.334 7 -71.001
s11.167 -33.334 19.5 -44.001s17.833 -18.167 28.5 -22.5s22 -6.5 34 -6.5zM608 25.9961c12 0 23.333 2.33496 34 7.00195s20.167 12.5 28.5 23.5s14.833 25.833 19.5 44.5s7 42 7 70v42c0 28 -2.33301 51.167 -7 69.5s-11.167 33 -19.5 44s-17.833 18.667 -28.5 23
s-22 6.5 -34 6.5s-23.333 -2.33301 -34 -7s-20.167 -12.5 -28.5 -23.5s-14.833 -25.667 -19.5 -44s-7 -41.5 -7 -69.5v-42c0 -28.667 2.33301 -52.334 7 -71.001s11.167 -33.334 19.5 -44.001s17.833 -18.167 28.5 -22.5s22 -6.5 34 -6.5z" />
    <glyph glyph-name="ampersand" unicode="&#x26;" horiz-adv-x="589" 
d="M420 161c11.333 25.333 21.3369 55.335 30.0039 90.002s15.667 74.667 21 120h55l-11 -70c-5.33301 -34 -13 -67.5 -23 -100.5s-22 -61.833 -36 -86.5l88 -114h-73l-67 87l-22 -53c-4.66699 -4.66699 -10.834 -9.66699 -18.501 -15s-17.334 -10.5 -29.001 -15.5
s-25.334 -9.16699 -41.001 -12.5s-33.834 -5 -54.501 -5c-28 0 -54.167 4.33301 -78.5 13s-45.166 21 -62.499 37s-31 35.667 -41 59s-15 49.333 -15 78c0 30.667 4.5 57 13.5 79s20.333 40.833 34 56.5s28.834 28.667 45.501 39s32.667 19.166 48 26.499l-3 4
c-13.333 17.333 -24.333 33.5 -33 48.5s-15.5 29.5 -20.5 43.5s-8.5 28 -10.5 42s-3 28.333 -3 43c0 22 3.83301 42 11.5 60s18.167 33.5 31.5 46.5s29.166 23 47.499 30s38.166 10.5 59.499 10.5c18.667 0 36.667 -3 54 -9s32.5 -14.833 45.5 -26.5
s23.5 -26.334 31.5 -44.001s12 -38.5 12 -62.5c0 -36.667 -5 -65 -15 -85s-22 -37.667 -36 -53l-103 -43zM240.004 394.002c15.333 7.33301 29.667 15.332 43 23.999s25 19 35 31s17.833 26.167 23.5 42.5s8.5 35.833 8.5 58.5c0 37.333 -8 63.166 -24 77.499
s-36.667 21.5 -62 21.5c-26 0 -47.5 -7 -64.5 -21s-25.5 -37.667 -25.5 -71c0 -27.333 2.83301 -50.666 8.5 -69.999s17.5 -40.666 35.5 -63.999l22 -29v0zM203.005 348.001c-32.667 -19.333 -56.833 -41.001 -72.5 -65.001s-23.5 -56.333 -23.5 -97v-9
c0 -51.333 11.5 -88.166 34.5 -110.499s57.833 -33.5 104.5 -33.5c28 0 54 5.83301 78 17.5s45.667 30.5 65 56.5z" />
    <glyph glyph-name="quoteright" unicode="'" horiz-adv-x="229" 
d="M66 496l41.999 107.999l-30 4c-4.66699 4.66699 -8.66699 9.83398 -12 15.501s-5 13.5 -5 23.5c0 16 5.16699 29.167 15.5 39.5s22.833 15.5 37.5 15.5s27.334 -5.16699 38.001 -15.5s16 -23.5 16 -39.5c0 -14.667 -2.83301 -28.5 -8.5 -41.5s-12.5 -25.5 -20.5 -37.5
l-53 -82z" />
    <glyph glyph-name="parenleft" unicode="(" horiz-adv-x="286" 
d="M219 -100c-13.333 13.333 -29.335 32.166 -48.002 56.499s-36.5 53.833 -53.5 88.5s-31.5 74.667 -43.5 120s-18 95.666 -18 150.999c0 53.333 5.83301 101.833 17.5 145.5s25.834 82.334 42.501 116.001s34.167 62.334 52.5 86.001s34.5 41.834 48.5 54.501h42
c-22 -28.667 -41.667 -57.334 -59 -86.001s-32 -58.667 -44 -90s-21.167 -64.5 -27.5 -99.5s-9.5 -73.5 -9.5 -115.5v-22c0 -42 3.16699 -80.667 9.5 -116s15.5 -69 27.5 -101s26.833 -63.167 44.5 -93.5s37.834 -61.833 60.501 -94.5h-42v0z" />
    <glyph glyph-name="parenright" unicode=")" horiz-adv-x="286" 
d="M25 -100c22.667 32.667 42.832 64.167 60.499 94.5s32.5 61.5 44.5 93.5s21.167 65.667 27.5 101s9.5 74 9.5 116v22c0 42 -3.16699 80.5 -9.5 115.5s-15.5 68.167 -27.5 99.5s-26.667 61.333 -44 90s-37 57.334 -59 86.001h42c14 -12.667 30.167 -30.834 48.5 -54.501
s35.833 -52.334 52.5 -86.001s30.834 -72.334 42.501 -116.001s17.5 -92.167 17.5 -145.5c0 -55.333 -6 -105.666 -18 -150.999s-26.5 -85.333 -43.5 -120s-34.833 -64.167 -53.5 -88.5s-34.667 -43.166 -48 -56.499h-42v0z" />
    <glyph glyph-name="asterisk" unicode="*" horiz-adv-x="418" 
d="M91 411l34 47l69 65l-94 13l-55 17l16 51l55 -17l85 -47l-19 95v57h54v-57l-18 -95l84 47l55 17l16 -51l-55 -17l-94 -13l69 -65l34 -47l-43 -32l-34 47l-41 85l-41 -85l-34 -47z" />
    <glyph glyph-name="plus" unicode="+" horiz-adv-x="490" 
d="M216 273h-156v54h156v176h58v-176h156v-54h-156v-176h-58v176z" />
    <glyph glyph-name="comma" unicode="," horiz-adv-x="235" 
d="M67 -103l44.001 106l-34 5c-4.66699 4.66699 -8.66699 10.167 -12 16.5s-5 14.5 -5 24.5c0 17.333 5.66699 31.5 17 42.5s24.666 16.5 39.999 16.5c16 0 29.667 -5.5 41 -16.5s17 -25.167 17 -42.5c0 -16.667 -3.83301 -32.5 -11.5 -47.5s-15.5 -28.833 -23.5 -41.5
l-49 -75z" />
    <glyph glyph-name="hyphen" unicode="-" horiz-adv-x="311" 
d="M60 326h191v-59h-191v59z" />
    <glyph glyph-name="period" unicode="." horiz-adv-x="235" 
d="M117 -9c-15.333 0 -28.666 5.33301 -39.999 16s-17 24.667 -17 42s5.66699 31.5 17 42.5s24.666 16.5 39.999 16.5c16 0 29.667 -5.5 41 -16.5s17 -25.167 17 -42.5s-5.66699 -31.333 -17 -42s-25 -16 -41 -16z" />
    <glyph glyph-name="slash" unicode="/" horiz-adv-x="382" 
d="M315 718h52l-300 -818h-52z" />
    <glyph glyph-name="zero" unicode="0" horiz-adv-x="551" 
d="M274 -14c-38 0 -70.6641 8.16699 -97.9971 24.5s-50 39.333 -68 69s-31.333 65.5 -40 107.5s-13 88.667 -13 140c0 50 4.5 95.5 13.5 136.5s22.667 76.333 41 106s41.333 52.667 69 69s60.167 24.5 97.5 24.5s69.666 -8 96.999 -24s50.166 -38.667 68.499 -68
s32 -64.5 41 -105.5s13.5 -86.5 13.5 -136.5c0 -110 -17.833 -194.667 -53.5 -254s-91.834 -89 -168.501 -89zM276.003 33c53.333 0 92.833 22.5 118.5 67.5s38.5 119.5 38.5 223.5v20c0 92.667 -12.5 160.5 -37.5 203.5s-65.167 64.5 -120.5 64.5
c-54.667 0 -94.5 -22.167 -119.5 -66.5s-37.5 -112.833 -37.5 -205.5v-19c0 -52 3.16699 -96.167 9.5 -132.5s16 -66 29 -89s29.5 -39.833 49.5 -50.5s43.333 -16 70 -16z" />
    <glyph glyph-name="one" unicode="1" horiz-adv-x="372" 
d="M65 47h95v520h-95v26l121 58h34v-604h92v-47h-247v47z" />
    <glyph glyph-name="two" unicode="2" horiz-adv-x="462" 
d="M42 55l6 23.999c6 23.333 15 45 27 65s25.667 38.667 41 56s31.833 33.833 49.5 49.5l52.5 46.5l53 47.5c15.333 14.333 28.333 28.333 39 42s18.834 27.667 24.501 42s8.5 30.166 8.5 47.499v11c0 24.667 -2.33301 45 -7 61s-12 28.833 -22 38.5s-22.5 16.5 -37.5 20.5
s-33.167 6 -54.5 6c-31.333 0 -58.333 -3.83301 -81 -11.5s-44.667 -16.5 -66 -26.5l-15 43c20 11.333 43 21.833 69 31.5s59.333 14.5 100 14.5c32.667 0 60.334 -4.66699 83.001 -14s41 -22 55 -38s24.167 -34.5 30.5 -55.5s9.5 -43.167 9.5 -66.5
c0 -26 -4.33301 -49.5 -13 -70.5s-20.334 -40.667 -35.001 -59s-31.834 -35.833 -51.501 -52.5l-63.5 -52c-20 -15.333 -38.167 -30.166 -54.5 -44.499s-30.833 -29.166 -43.5 -44.499s-23.5 -31.833 -32.5 -49.5s-15.5 -37.5 -19.5 -59.5l-3 -16l103 9h208v-50h-360v55z
" />
    <glyph glyph-name="three" unicode="3" horiz-adv-x="481" 
d="M221 -14c-42.667 0 -78.667 4.66602 -108 13.999s-54.333 19.666 -75 30.999l15 43l37.5 -15c11.667 -4.66699 23.667 -8.66699 36 -12s25.333 -6 39 -8s28.834 -3 45.501 -3c52 0 90.833 10.833 116.5 32.5s38.5 56.5 38.5 104.5v10c0 52 -13.167 88.333 -39.5 109
s-67.5 31 -123.5 31h-55v48h41c30 0 55 2.16699 75 6.5s36 11.333 48 21s20.667 22 26 37s8 33.167 8 54.5v7c0 22 -2.5 40.333 -7.5 55s-13 26.5 -24 35.5s-25.167 15.333 -42.5 19s-38.666 5.5 -63.999 5.5c-15.333 0 -28.833 -0.666992 -40.5 -2
s-22.834 -3.16602 -33.501 -5.49902s-21.334 -5.33301 -32.001 -9s-22.667 -7.5 -36 -11.5l-11 45c18.667 8 40.834 15.667 66.501 23s56.5 11 92.5 11s66.333 -4.16699 91 -12.5s44.667 -20 60 -35s26.333 -32.833 33 -53.5s10 -43 10 -67
c0 -43.333 -10.667 -75.5 -32 -96.5s-52 -37.167 -92 -48.5c45.333 -9.33301 80.833 -28.666 106.5 -57.999s38.5 -69 38.5 -119c0 -28 -4.66699 -53.5 -14 -76.5s-23 -42.667 -41 -59s-39.833 -29 -65.5 -38s-54.834 -13.5 -87.501 -13.5z" />
    <glyph glyph-name="four" unicode="4" horiz-adv-x="543" 
d="M345 170h-302v33l280 448h82v-430h87v-51h-87v-170h-60v170zM345 221v281l8 126l-57 -110l-184 -297h233z" />
    <glyph glyph-name="five" unicode="5" horiz-adv-x="470" 
d="M215 -14c-42.667 0 -77.9971 4.99902 -105.997 14.999s-51.667 21 -71 33l15 43l37 -16.5c11.333 -5 22.833 -9.33301 34.5 -13s24 -6.5 37 -8.5s27.5 -3 43.5 -3c48.667 0 86 12.167 112 36.5s39 65.833 39 124.5v10c0 32 -2.83301 58.167 -8.5 78.5
s-13.5 36.166 -23.5 47.499s-22.333 19.166 -37 23.499s-31 6.5 -49 6.5c-16.667 0 -30.834 -1.5 -42.501 -4.5s-21.834 -6.66699 -30.501 -11s-16.167 -9.5 -22.5 -15.5s-12.166 -12 -17.499 -18l-58 9l14 328h307v-50h-254l-8 -166l-16 -89c14 16 31.333 30.333 52 43
s47.667 19 81 19c23.333 0 45.666 -3.66699 66.999 -11s40.166 -19.166 56.499 -35.499s29.333 -37.666 39 -63.999s14.5 -58.166 14.5 -95.499c0 -31.333 -5 -60.333 -15 -87s-24 -49.5 -42 -68.5s-39.667 -33.833 -65 -44.5s-53 -16 -83 -16z" />
    <glyph glyph-name="six" unicode="6" horiz-adv-x="525" 
d="M189 390c11.333 4.66699 24.1641 8.83203 38.4971 12.499s31.5 5.5 51.5 5.5c27.333 0 52.833 -4.33301 76.5 -13s44.334 -21.667 62.001 -39s31.667 -38.833 42 -64.5s15.5 -55.167 15.5 -88.5c0 -32.667 -4.66699 -62.5 -14 -89.5s-23 -49.833 -41 -68.5
s-39.833 -33.167 -65.5 -43.5s-54.5 -15.5 -86.5 -15.5s-61.167 5.83301 -87.5 17.5s-48.666 28.834 -66.999 51.501s-32.666 50.667 -42.999 84s-15.5 71.666 -15.5 114.999c0 48.667 8 93.167 24 133.5s36.333 76.833 61 109.5s52.167 61.834 82.5 87.501
s59.833 47.834 88.5 66.501h93c-34.667 -18.667 -67.667 -39.667 -99 -63s-59.5 -48.333 -84.5 -75s-46.167 -54.834 -63.5 -84.501s-29.333 -60.5 -36 -92.5zM116.998 305.998c-0.666992 -3.33301 -1 -7.00195 -1 -11.002v-12v-37c0 -74.667 12.667 -129 38 -163
s64 -51 116 -51c46 0 81.167 11.833 105.5 35.5s36.5 63.834 36.5 120.501v23c0 28 -3.16699 51.5 -9.5 70.5s-15.833 34.333 -28.5 46s-28 19.834 -46 24.501s-38.667 7 -62 7c-32 0 -59.167 -5.33301 -81.5 -16s-44.833 -23 -67.5 -37z" />
    <glyph glyph-name="seven" unicode="7" horiz-adv-x="457" 
d="M338 551l40 56l-71 -6h-276v50h383v-67l-245 -584h-64z" />
    <glyph glyph-name="eight" unicode="8" horiz-adv-x="522" 
d="M205 340c-36.667 17.333 -66.3311 39.4971 -88.998 66.4971s-34 60.167 -34 99.5c0 23.333 4.5 44.5 13.5 63.5s21.5 35.5 37.5 49.5s34.833 24.833 56.5 32.5s44.834 11.5 69.501 11.5c28 0 53 -3.83301 75 -11.5s40.833 -18.167 56.5 -31.5s27.667 -29.166 36 -47.499
s12.5 -38.166 12.5 -59.499c0 -26 -3 -47.667 -9 -65s-16 -34.666 -30 -51.999l-89 -45c22 -9.33301 42.667 -19.166 62 -29.499s36.333 -22.5 51 -36.5s26.334 -30.333 35.001 -49s13 -40.667 13 -66c0 -28 -5.33301 -53.333 -16 -76s-25.334 -42 -44.001 -58
s-40.834 -28.333 -66.501 -37s-53.834 -13 -84.501 -13c-66 0 -117.667 15.5 -155 46.5s-56 73.5 -56 127.5c0 33.333 6.16699 61.166 18.5 83.499s27.166 40.5 44.499 54.5l92 42v0zM282.003 364.997c22.667 11.333 40.666 21.8301 53.999 31.4971s23.333 19.834 30 30.501
s10.834 22.167 12.501 34.5s2.5 26.833 2.5 43.5v6c0 30.667 -9.33301 55.334 -28 74.001s-49.667 28 -93 28c-22.667 0 -41.5 -2.66699 -56.5 -8s-27.167 -12.666 -36.5 -21.999s-16 -20 -20 -32s-6 -25 -6 -39v-6c0 -32.667 11.5 -59.5 34.5 -80.5
s58.5 -41.167 106.5 -60.5zM234.002 323.994c-45.333 -21.333 -77.334 -43.501 -96.001 -66.501s-28 -52.167 -28 -87.5v-11c0 -42 12.833 -73.667 38.5 -95s62.834 -32 111.501 -32c50 0 87.5 11.5 112.5 34.5s37.5 55.167 37.5 96.5v14
c0 18.667 -3.16699 34.334 -9.5 47.001s-16.5 24.167 -30.5 34.5s-32.167 20.5 -54.5 30.5z" />
    <glyph glyph-name="nine" unicode="9" horiz-adv-x="525" 
d="M336 259c-11.333 -4.66699 -24.167 -8.83594 -38.5 -12.5029s-31.5 -5.5 -51.5 -5.5c-27.333 0 -52.833 4.33301 -76.5 13s-44.334 21.667 -62.001 39s-31.667 38.833 -42 64.5s-15.5 55.167 -15.5 88.5s4.66699 63.333 14 90s23 49.334 41 68.001
s39.833 33.167 65.5 43.5s54.5 15.5 86.5 15.5s61 -5.5 87 -16.5s48.333 -27.667 67 -50s33.167 -50.166 43.5 -83.499s15.5 -72.666 15.5 -117.999c0 -48.667 -8 -93 -24 -133s-36.333 -76.333 -61 -109s-52.167 -61.5 -82.5 -86.5s-59.833 -47.167 -88.5 -66.5h-93
c34 19.333 66.5 40.333 97.5 63s59 47 84 73s46.333 53.5 64 82.5s29.834 59.167 36.501 90.5zM407.999 337.998c0 5.33301 0.166016 10.165 0.499023 14.498s0.5 8.83301 0.5 13.5v37c0 38 -3.16699 70.333 -9.5 97s-15.833 48.334 -28.5 65.001s-28.667 28.834 -48 36.501
s-42 11.5 -68 11.5c-45.333 0 -80.333 -11.333 -105 -34s-37 -62 -37 -118v-23c0 -56.667 12.667 -96.167 38 -118.5s61.333 -33.5 108 -33.5c31.333 0 58.333 5.33301 81 16s45.334 22.667 68.001 36z" />
    <glyph glyph-name="colon" unicode=":" horiz-adv-x="241" 
d="M120 291c-15.333 0 -28.666 5.33301 -39.999 16s-17 24.667 -17 42s5.66699 31.5 17 42.5s24.666 16.5 39.999 16.5c16 0 29.667 -5.5 41 -16.5s17 -25.167 17 -42.5s-5.66699 -31.333 -17 -42s-25 -16 -41 -16zM120 -9c-15.333 0 -28.666 5.33301 -39.999 16
s-17 24.667 -17 42s5.66699 31.5 17 42.5s24.666 16.5 39.999 16.5c16 0 29.667 -5.5 41 -16.5s17 -25.167 17 -42.5s-5.66699 -31.333 -17 -42s-25 -16 -41 -16z" />
    <glyph glyph-name="semicolon" unicode=";" horiz-adv-x="241" 
d="M120 291c-15.333 0 -28.666 5.33301 -39.999 16s-17 24.667 -17 42s5.66699 31.5 17 42.5s24.666 16.5 39.999 16.5c16 0 29.667 -5.5 41 -16.5s17 -25.167 17 -42.5s-5.66699 -31.333 -17 -42s-25 -16 -41 -16zM70 -103l44.001 106l-34 5
c-4.66699 4.66699 -8.66699 10.167 -12 16.5s-5 14.5 -5 24.5c0 17.333 5.66699 31.5 17 42.5s24.666 16.5 39.999 16.5c16 0 29.667 -5.5 41 -16.5s17 -25.167 17 -42.5c0 -16.667 -3.83301 -32.5 -11.5 -47.5s-15.5 -28.833 -23.5 -41.5l-49 -75z" />
    <glyph glyph-name="less" unicode="&#x3c;" horiz-adv-x="432" 
d="M46 247v68l332 156v-61l-222 -102l-88 -29l88 -29l222 -104v-57z" />
    <glyph glyph-name="equal" unicode="=" horiz-adv-x="461" 
d="M60 405h341v-52h-341v52zM60 246h341v-52h-341v52z" />
    <glyph glyph-name="greater" unicode="&#x3e;" horiz-adv-x="432" 
d="M54 150l222 102l88 29l-88 29l-222 104v57l332 -158v-68l-332 -156v61z" />
    <glyph glyph-name="question" unicode="?" horiz-adv-x="424" 
d="M132 306c-2 16.667 -1.33301 29.168 2 37.501s13.666 15.166 30.999 20.499c30 8.66699 54.167 16.834 72.5 24.501s32.333 17 42 28s16.167 24.667 19.5 41s5 37.5 5 63.5v8c0 23.333 -1.83301 42.666 -5.5 57.999s-10 27.666 -19 36.999s-21.5 16 -37.5 20
s-36.667 6 -62 6c-26 0 -49.667 -2.5 -71 -7.5s-44.666 -12.167 -69.999 -21.5l-9 44c15.333 7.33301 37 15.333 65 24s59 13 93 13c57.333 0 101.5 -14.333 132.5 -43s46.5 -73.667 46.5 -135c0 -28.667 -3.16699 -53.667 -9.5 -75s-16.5 -39.666 -30.5 -54.999
s-32.333 -28 -55 -38s-50.667 -18.333 -84 -25v-157h-39zM172 -8.99902c-14 0 -26.5 5.16699 -37.5 15.5s-16.5 23.5 -16.5 39.5c0 16.667 5.5 30.167 16.5 40.5s23.5 15.5 37.5 15.5c15.333 0 28.333 -5.16699 39 -15.5s16 -23.833 16 -40.5
c0 -16 -5.33301 -29.167 -16 -39.5s-23.667 -15.5 -39 -15.5z" />
    <glyph glyph-name="at" unicode="@" horiz-adv-x="763" 
d="M397 -138c-118.667 0 -206.169 32.1631 -262.502 96.4961s-84.5 162.166 -84.5 293.499c0 129.333 28.667 227 86 293s146.333 99 267 99c60 0 110 -8.16699 150 -24.5s71.833 -39.166 95.5 -68.499s40.334 -64.666 50.001 -105.999s14.5 -86.666 14.5 -135.999
c0 -101.333 -15.333 -176.5 -46 -225.5s-79.334 -73.5 -146.001 -73.5c-11.333 0 -20.666 0.5 -27.999 1.5s-13.666 2.16699 -18.999 3.5l-22 57l-48 -51c-14.667 -5.33301 -29.667 -9.16602 -45 -11.499s-30 -3.5 -44 -3.5c-35.333 0 -64.833 9.83301 -88.5 29.5
s-35.5 50.167 -35.5 91.5c0 54.667 15.667 95.334 47 122.001s82.666 42.667 153.999 48l95 7l10 58c3.33301 18 5 33.667 5 47c0 14 -2.5 25.667 -7.5 35s-13.167 16.333 -24.5 21s-27 7 -47 7c-22.667 0 -46 -2.16699 -70 -6.5s-48.667 -9.83301 -74 -16.5v44
c26.667 9.33301 51.334 16.166 74.001 20.499s47.334 6.5 74.001 6.5c27.333 0 49.833 -4 67.5 -12s31.167 -19.667 40.5 -35s14.833 -34 16.5 -56s0.166992 -46.667 -4.5 -74l-44 -254c-2.66699 -14.667 -1.83398 -24.667 2.49902 -30s12.833 -8 25.5 -8h9
c40.667 0 71.5 19.667 92.5 59s31.5 102.333 31.5 189v21c0 42.667 -3.66699 81.334 -11 116.001s-20.666 64.5 -39.999 89.5s-46.166 44.333 -80.499 58s-78.166 20.5 -131.499 20.5c-54 0 -100.167 -6.66699 -138.5 -20s-69.5 -34 -93.5 -62s-41.5 -63.333 -52.5 -106
s-16.5 -93.334 -16.5 -152.001v-21c0 -57.333 5.16699 -107.166 15.5 -149.499s27.166 -77.5 50.499 -105.5s53.666 -49 90.999 -63s83.333 -21 138 -21c42 0 80.833 4.5 116.5 13.5s72.167 20.167 109.5 33.5l13 -40c-26.667 -12 -60.334 -23.167 -101.001 -33.5
s-86 -15.5 -136 -15.5zM324.998 50.9961c30.667 0 56 5.5 76 16.5s37 23.167 51 36.5l28 163l-90 -8c-24 -2 -44.333 -5.16699 -61 -9.5s-30.167 -10.333 -40.5 -18s-18.5 -17.667 -24.5 -30s-10.667 -27.833 -14 -46.5l-1 -6c-5.33301 -32.667 -2 -57.167 10 -73.5
s34 -24.5 66 -24.5z" />
    <glyph glyph-name="A" unicode="A" horiz-adv-x="559" 
d="M95 0h-56l208 651h70l205 -651h-65l-45 150h-270zM308 492l-26 137l-32 -137l-93 -294h240z" />
    <glyph glyph-name="B" unicode="B" horiz-adv-x="538" 
d="M90 651h187c28 0 53.667 -3.33301 77 -10s43.666 -17 60.999 -31s30.833 -31.833 40.5 -53.5s14.5 -47.167 14.5 -76.5c0 -23.333 -3.5 -43.166 -10.5 -59.499s-16 -30 -27 -41s-22.833 -20 -35.5 -27s-25 -12.5 -37 -16.5c13.333 -2.66699 27.333 -7.83398 42 -15.501
s28.334 -17.834 41.001 -30.501s23 -28 31 -46s12 -38.667 12 -62c0 -32.667 -5.5 -60.667 -16.5 -84s-25.667 -42.166 -44 -56.499s-39.5 -24.833 -63.5 -31.5s-49 -10 -75 -10h-197v651zM279 358c24 0 44.333 2.16699 61 6.5s30 11.166 40 20.499s17.167 21.5 21.5 36.5
s6.5 33.167 6.5 54.5v7c0 42.667 -10.167 72.834 -30.5 90.501s-56.833 26.5 -109.5 26.5h-117v-242h128zM279 51c46 0 80.833 9.33301 104.5 28s35.5 51 35.5 97v9c0 46 -10.5 78.5 -31.5 97.5s-56.167 28.5 -105.5 28.5h-131v-260h128z" />
    <glyph glyph-name="C" unicode="C" horiz-adv-x="494" 
d="M295 -14c-44 0 -81.5039 8.66992 -112.504 26.0029s-56 41.166 -75 71.499s-32.833 66.333 -41.5 108s-13 86.834 -13 135.501c0 48 4.66699 92.5 14 133.5s24 76.5 44 106.5s45.333 53.5 76 70.5s67.334 25.5 110.001 25.5c32.667 0 60.5 -3 83.5 -9
s46.167 -13.667 69.5 -23l-10 -49c-15.333 4 -29.333 7.83301 -42 11.5s-24.667 6.66699 -36 9s-22.833 4.16602 -34.5 5.49902s-24.5 2 -38.5 2c-22.667 0 -44.334 -4.33301 -65.001 -13s-38.667 -23.334 -54 -44.001s-27.666 -48.334 -36.999 -83.001s-14 -78 -14 -130
v-19c0 -52 3.83301 -96.167 11.5 -132.5s18.834 -65.833 33.501 -88.5s32.5 -39 53.5 -49s44.833 -15 71.5 -15c16.667 0 31.5 0.833008 44.5 2.5s25.333 4 37 7s23.334 6.66699 35.001 11s24.5 8.83301 38.5 13.5l17 -47c-25.333 -11.333 -50.666 -20.333 -75.999 -27
s-55.333 -10 -90 -10z" />
    <glyph glyph-name="D" unicode="D" horiz-adv-x="579" 
d="M90 651l166.002 -0.000976562c91.333 0 159.166 -27.667 203.499 -83s66.5 -135.666 66.5 -240.999c0 -112 -22.333 -194.5 -67 -247.5s-115.334 -79.5 -212.001 -79.5h-157v651zM240.002 47.999c36.667 0 68.834 3.66602 96.501 10.999s50.667 21 69 41
s32.166 47.667 41.499 83s14 81 14 137v18c0 51.333 -4.5 93.833 -13.5 127.5s-22.667 60.334 -41 80.001s-41.5 33.5 -69.5 41.5s-61 12 -99 12h-86v-551h88z" />
    <glyph glyph-name="E" unicode="E" horiz-adv-x="488" 
d="M90 651h336v-51h-274v-239h239v-48h-239v-262h291v-51h-353v651z" />
    <glyph glyph-name="F" unicode="F" horiz-adv-x="479" 
d="M90 651h336v-51h-274v-255h244v-48h-244v-297h-62v651z" />
    <glyph glyph-name="G" unicode="G" horiz-adv-x="550" 
d="M387 -6c-13.333 -2.66699 -27.4941 -4.66699 -42.4941 -6s-29.167 -2 -42.5 -2c-45.333 0 -83.833 8.66699 -115.5 26s-57.334 41.166 -77.001 71.499s-34 66.333 -43 108s-13.5 86.834 -13.5 135.501c0 48 4.83301 92.5 14.5 133.5s24.667 76.5 45 106.5
s46.166 53.5 77.499 70.5s68.666 25.5 111.999 25.5c34.667 0 64.667 -3 90 -9s50 -14 74 -24l-10 -50c-15.333 4.66699 -29.666 8.83398 -42.999 12.501s-26.333 6.83398 -39 9.50098s-25.334 4.66699 -38.001 6s-26 2 -40 2c-24.667 0 -47.834 -4.33301 -69.501 -13
s-40.5 -23.334 -56.5 -44.001s-28.667 -48.334 -38 -83.001s-14 -78 -14 -130v-19c0 -52 4 -96.167 12 -132.5s19.5 -65.833 34.5 -88.5s33.667 -39 56 -49s47.5 -15 75.5 -15c29.333 0 54.166 2.16699 74.499 6.5s37.166 8.83301 50.499 13.5v223h-105v50h167v-337h-25
l-19 45z" />
    <glyph glyph-name="H" unicode="H" horiz-adv-x="589" 
d="M152 310v-310h-62v651h62v-293h285v293h62v-651h-62v310h-285z" />
    <glyph glyph-name="I" unicode="I" horiz-adv-x="252" 
d="M95 651h62v-651h-62v651z" />
    <glyph glyph-name="J" unicode="J" horiz-adv-x="330" 
d="M125 -14c-19.333 0 -36.9971 2.5 -52.9971 7.5s-28.667 10.167 -38 15.5l8 45c12.667 -5.33301 24.5 -9.66602 35.5 -12.999s23.167 -5 36.5 -5c11.333 0 21.166 1.66699 29.499 5s15.5 9.33301 21.5 18s10.5 20.167 13.5 34.5s4.5 32.833 4.5 55.5v502h62v-480
c0 -34 -2.83301 -62.833 -8.5 -86.5s-13.834 -42.834 -24.501 -57.501s-23.334 -25.167 -38.001 -31.5s-31 -9.5 -49 -9.5z" />
    <glyph glyph-name="K" unicode="K" horiz-adv-x="532" 
d="M421 651h69l-248 -299l73 -57l183 -295h-71l-206 336l-68 -82v-254h-63v651h63v-249l-12 -98z" />
    <glyph glyph-name="L" unicode="L" horiz-adv-x="468" 
d="M90 651h62v-601h280v-50h-342v651z" />
    <glyph glyph-name="M" unicode="M" horiz-adv-x="707" 
d="M90 651h88l145 -494l27 -137l25 137l152 494h90v-651h-61v422l11 212l-40 -160l-147 -474h-68l-140 466l-35 168l10 -212v-422h-57v651z" />
    <glyph glyph-name="N" unicode="N" horiz-adv-x="591" 
d="M90 651h71l232 -446l64 -171l-14 191v426h58v-651h-68l-243 466l-55 155l13 -170v-451h-58v651z" />
    <glyph glyph-name="O" unicode="O" horiz-adv-x="591" 
d="M294 -14c-40.667 0 -76.165 8.16699 -106.498 24.5s-55.5 39.333 -75.5 69s-34.833 65.5 -44.5 107.5s-14.5 88.667 -14.5 140c0 50 5 95.5 15 136.5s25.167 76.333 45.5 106s45.666 52.667 75.999 69s65.833 24.5 106.5 24.5c40 0 75.167 -8 105.5 -24
s55.666 -38.667 75.999 -68s35.5 -64.5 45.5 -105.5s15 -86.5 15 -136.5c0 -110 -19.833 -194.667 -59.5 -254s-101.167 -89 -184.5 -89zM296.002 34c28.667 0 54.001 5.33398 76.001 16.001s40.5 27.667 55.5 51s26.333 53.333 34 90s11.5 81 11.5 133v20
c0 92.667 -14.833 160.167 -44.5 202.5s-74.167 63.5 -133.5 63.5c-58.667 0 -102.834 -21.833 -132.501 -65.5s-44.5 -111.834 -44.5 -204.501v-19c0 -52 3.83301 -96.167 11.5 -132.5s19 -66 34 -89s33.667 -39.667 56 -50s47.833 -15.5 76.5 -15.5z" />
    <glyph glyph-name="P" unicode="P" horiz-adv-x="519" 
d="M90 651l190.001 0.000976562c35.333 0 65.666 -5 90.999 -15s46 -23.833 62 -41.5s27.833 -38.334 35.5 -62.001s11.5 -49.167 11.5 -76.5c0 -26.667 -3.66699 -52 -11 -76s-19 -45 -35 -63s-36.667 -32.333 -62 -43s-56 -16 -92 -16h-128v-258h-62v651zM273.001 303.001
c51.333 0 87.5 11.668 108.5 35.001s31.5 61.666 31.5 114.999v8c0 51.333 -10.667 87.333 -32 108s-58 31 -110 31h-119v-297h121z" />
    <glyph glyph-name="Q" unicode="Q" horiz-adv-x="591" 
d="M461 -117l-70.998 -20l-92 123h-4c-40.667 0 -76.167 8.16699 -106.5 24.5s-55.5 39.333 -75.5 69s-34.833 65.5 -44.5 107.5s-14.5 88.667 -14.5 140c0 50 5 95.5 15 136.5s25.167 76.333 45.5 106s45.666 52.667 75.999 69s65.833 24.5 106.5 24.5
c40 0 75.167 -8.16699 105.5 -24.5s55.666 -39.333 75.999 -69s35.5 -64.834 45.5 -105.501s15 -85.667 15 -135c0 -76 -9.33301 -140.167 -28 -192.5s-49.667 -92.166 -93 -119.499l-75 -7zM296.002 33c57.333 0 101.168 22.501 131.501 67.501s45.5 119.5 45.5 223.5v20
c0 92.667 -14.833 160.167 -44.5 202.5s-74.167 63.5 -133.5 63.5c-58.667 0 -102.834 -21.833 -132.501 -65.5s-44.5 -111.834 -44.5 -204.501v-19c0 -52 3.83301 -96.167 11.5 -132.5s19 -66 34 -89s33.667 -39.833 56 -50.5s47.833 -16 76.5 -16z" />
    <glyph glyph-name="R" unicode="R" horiz-adv-x="540" 
d="M362 237l129.001 -237.001h-70l-145 274h-125v-274h-61v651h190c35.333 0 65.666 -4.66699 90.999 -14s46 -22.333 62 -39s27.833 -36.5 35.5 -59.5s11.5 -47.833 11.5 -74.5c0 -20 -2.5 -40.333 -7.5 -61s-14 -39.667 -27 -57s-30.5 -32.166 -52.5 -44.499
s-49.667 -19.5 -83 -21.5zM273.001 318.999c25.333 0 47 2.5 65 7.5s32.5 13.167 43.5 24.5s19 26 24 44s7.5 40 7.5 66v8c0 25.333 -2.5 46.333 -7.5 63s-13.167 30 -24.5 40s-26 17.167 -44 21.5s-40 6.5 -66 6.5h-120v-281h122z" />
    <glyph glyph-name="S" unicode="S" horiz-adv-x="485" 
d="M243 -14c-48 0 -86.499 4.67188 -115.499 14.0049s-53.5 20 -73.5 32l13 45c27.333 -12.667 53.333 -22.834 78 -30.501s53 -11.5 85 -11.5c23.333 0 43.666 2 60.999 6s31.833 11 43.5 21s20.5 23.333 26.5 40s9 37.667 9 63c0 18.667 -1.83301 34.834 -5.5 48.501
s-10.167 25.667 -19.5 36s-22.333 19.5 -39 27.5s-37.667 16 -63 24c-30 9.33301 -56.5 19 -79.5 29s-42.167 22 -57.5 36s-26.833 31.167 -34.5 51.5s-11.5 45.5 -11.5 75.5c0 56.667 16.333 99.167 49 127.5s78 42.5 136 42.5c38.667 0 70.167 -3.16699 94.5 -9.5
s46.833 -14.166 67.5 -23.499l-12 -48c-13.333 4.66699 -25.5 8.66699 -36.5 12s-22.333 6.16602 -34 8.49902s-24.334 4.16602 -38.001 5.49902s-29.5 2 -47.5 2c-40.667 0 -70.834 -8.16699 -90.501 -24.5s-29.5 -45.833 -29.5 -88.5c0 -19.333 1.66699 -35.5 5 -48.5
s9.83301 -24.333 19.5 -34s23 -18.334 40 -26.001s39.167 -15.834 66.5 -24.501c28 -8.66699 53.333 -18.334 76 -29.001s41.834 -23.334 57.501 -38.001s27.834 -32.5 36.501 -53.5s13 -46.5 13 -76.5c0 -60 -17.333 -105.167 -52 -135.5s-80.667 -45.5 -138 -45.5z" />
    <glyph glyph-name="T" unicode="T" horiz-adv-x="464" 
d="M28 600v51h408v-51h-173v-600h-62v600h-173z" />
    <glyph glyph-name="U" unicode="U" horiz-adv-x="578" 
d="M426 651l61.998 -0.000976562v-651h-30l-25 60l-37 -47c-12 -5.33301 -29.167 -11.166 -51.5 -17.499s-47.166 -9.5 -74.499 -9.5c-34 0 -62.833 5 -86.5 15s-42.834 25.333 -57.501 46s-25.167 47.167 -31.5 79.5s-9.5 70.833 -9.5 115.5v409h62v-432
c0 -38.667 2.33301 -70 7 -94s12.167 -42.667 22.5 -56s23.833 -22.5 40.5 -27.5s37 -7.5 61 -7.5c34.667 0 63.334 5 86.001 15s43.334 21 62.001 33v569z" />
    <glyph glyph-name="V" unicode="V" horiz-adv-x="561" 
d="M39 651h64l151 -492l29 -137l29 137l153 492h57l-206 -651h-70z" />
    <glyph glyph-name="W" unicode="W" horiz-adv-x="724" 
d="M35 651h62l88 -419l29 -214l28 195l85 438h73l90 -438l28 -195l31 214l91 419h55l-147 -651h-71l-92 434l-22 196l-25 -196l-90 -434h-69z" />
    <glyph glyph-name="X" unicode="X" horiz-adv-x="510" 
d="M221 335l-177 316h67l108 -194l42 -97l37 97l105 194h58l-176 -314l189 -337h-67l-119 215l-44 95l-34 -95l-116 -215h-58z" />
    <glyph glyph-name="Y" unicode="Y" horiz-adv-x="507" 
d="M228 231l-198 420h67l132 -293l30 -112l32 112l128 293h58l-187 -416v-235h-62v231z" />
    <glyph glyph-name="Z" unicode="Z" horiz-adv-x="490" 
d="M50 67l306 490l39 48l-76 -5h-255v51h372v-71l-302 -483l-48 -56l86 10h265v-51h-387v67z" />
    <glyph glyph-name="bracketleft" unicode="[" horiz-adv-x="251" 
d="M70 718h141v-45h-86v-728h86v-45h-141v818z" />
    <glyph glyph-name="backslash" unicode="\" horiz-adv-x="382" 
d="M15 718h52l300 -818h-52z" />
    <glyph glyph-name="bracketright" unicode="]" horiz-adv-x="251" 
d="M40 -55h86v728h-86v45h141v-818h-141v45z" />
    <glyph glyph-name="asciicircum" unicode="^" horiz-adv-x="520" 
d="M219 691h67l134 -264h-61l-85 181l-22 68l-22 -68l-88 -181h-56z" />
    <glyph glyph-name="underscore" unicode="_" horiz-adv-x="252" 
d="M5 -118h242v-44h-242v44z" />
    <glyph glyph-name="quoteleft" unicode="`" horiz-adv-x="229" 
d="M115 495c-14.667 0 -27.333 5.16797 -38 15.501s-16 23.5 -16 39.5c0 14.667 2.83301 28.5 8.5 41.5s12.5 25.5 20.5 37.5l53 82l20 -10l-42 -108l30 -4c4.66699 -4.66699 8.66699 -9.83398 12 -15.501s5 -13.5 5 -23.5c0 -16 -5.16699 -29.167 -15.5 -39.5
s-22.833 -15.5 -37.5 -15.5z" />
    <glyph glyph-name="a" unicode="a" horiz-adv-x="471" 
d="M327 361c0 17.333 -1.33301 33.168 -4 47.501s-7.5 26.666 -14.5 36.999s-16.667 18.5 -29 24.5s-28.5 9 -48.5 9c-25.333 0 -50 -3 -74 -9s-48.667 -13.333 -74 -22l-9 46c25.333 10 50 18.333 74 25s51.333 10 82 10c54 0 93 -15.167 117 -45.5s36 -77.833 36 -142.5
v-267c0 -15.333 2.83301 -25.833 8.5 -31.5s15.167 -8.5 28.5 -8.5h17l2 -35c-4 -2 -9.5 -4 -16.5 -6s-15.167 -3 -24.5 -3c-13.333 0 -25.666 2.33301 -36.999 7l-32 55l-48 -52c-9.33301 -4 -21 -7.33301 -35 -10s-28.667 -4 -44 -4c-22 0 -42.333 2.66699 -61 8
s-34.834 13.833 -48.501 25.5s-24.5 27 -32.5 46s-12 42.5 -12 70.5c0 51.333 14.833 88.833 44.5 112.5s75.167 38.167 136.5 43.5l98 8v61zM327 261.002l-94 -9.00098c-44.667 -4 -77 -14.167 -97 -30.5s-30 -44.166 -30 -83.499v-7c0 -35.333 8.16699 -60.5 24.5 -75.5
s42.5 -22.5 78.5 -22.5c30 0 54.167 5.66699 72.5 17s33.5 24.333 45.5 39v172z" />
    <glyph glyph-name="b" unicode="b" horiz-adv-x="502" 
d="M108 -3l-26 -0.00195312v721h57v-250c14.667 14.667 33 28.5 55 41.5s49 19.5 81 19.5c54.667 0 97.834 -21.167 129.501 -63.5s47.5 -109.166 47.5 -200.499c0 -99.333 -16.5 -170.666 -49.5 -213.999s-79.167 -65 -138.5 -65c-16.667 0 -31.334 1.5 -44.001 4.5
s-22.667 5.83301 -30 8.5l-62 53zM139 75.998c17.333 -13.333 35.501 -24.167 54.501 -32.5s40.167 -12.5 63.5 -12.5c22.667 0 42.5 3.83301 59.5 11.5s31.167 20.334 42.5 38.001s19.833 40.834 25.5 69.501s8.5 64 8.5 106v14c0 42 -3 76.667 -9 104
s-14.5 48.833 -25.5 64.5s-24.167 26.667 -39.5 33s-32 9.5 -50 9.5c-16.667 0 -31.834 -1.83301 -45.501 -5.5s-25.667 -8.33398 -36 -14.001s-19.5 -11.834 -27.5 -18.501s-15 -13 -21 -19v-348z" />
    <glyph glyph-name="c" unicode="c" horiz-adv-x="415" 
d="M241 -14c-62 0 -109.334 22.333 -142.001 67s-49 114 -49 208c0 92.667 16.167 160.5 48.5 203.5s79.833 64.5 142.5 64.5c25.333 0 49.333 -2.83301 72 -8.5s43.667 -12.5 63 -20.5l-10 -46c-25.333 8 -47 14.333 -65 19s-36.667 7 -56 7c-22 0 -41.333 -3 -58 -9
s-30.667 -16.833 -42 -32.5s-20 -37.167 -26 -64.5s-9 -62 -9 -104v-13c0 -43.333 3 -79.5 9 -108.5s14.833 -52 26.5 -69s25.834 -29 42.501 -36s35.667 -10.5 57 -10.5c12 0 22.667 0.833008 32 2.5s18.5 4 27.5 7s18.5 6.66699 28.5 11s21 9.5 33 15.5l15 -43
c-16.667 -10 -37.167 -19.167 -61.5 -27.5s-50.5 -12.5 -78.5 -12.5z" />
    <glyph glyph-name="d" unicode="d" horiz-adv-x="498" 
d="M359 718l57 -0.000976562v-718h-28l-26 62l-59 -57c-7.33301 -3.33301 -17.333 -6.66602 -30 -9.99902s-28 -5 -46 -5c-58 0 -102 23 -132 69s-45 114.667 -45 206c0 90 16.333 156.5 49 199.5s76 64.5 130 64.5c30 0 55.667 -5.5 77 -16.5s39 -22.833 53 -35.5v241z
M359 431.999c-6 4.66699 -12.999 9.83301 -20.999 15.5s-17.167 11 -27.5 16s-21.833 9.16699 -34.5 12.5s-26 5 -40 5c-20 0 -38 -3 -54 -9s-29.333 -17 -40 -33s-18.834 -37.667 -24.501 -65s-8.5 -62 -8.5 -104v-14c0 -41.333 2.83301 -76 8.5 -104s14 -50.667 25 -68
s24.5 -29.833 40.5 -37.5s34 -11.5 54 -11.5c24.667 0 45.5 4.83301 62.5 14.5s36.833 23.167 59.5 40.5v342z" />
    <glyph glyph-name="e" unicode="e" horiz-adv-x="474" 
d="M110 243c0 -39.333 3.16602 -72.3311 9.49902 -98.998s15.5 -48.334 27.5 -65.001s27.167 -28.5 45.5 -35.5s39.5 -10.5 63.5 -10.5c22.667 0 44.334 3.16699 65.001 9.5s43 15.166 67 26.499l13 -44c-15.333 -8.66699 -36.5 -17.334 -63.5 -26.001s-55.5 -13 -85.5 -13
c-66.667 0 -117 22.333 -151 67s-51 113.334 -51 206.001c0 48 4.83301 89 14.5 123s23.167 62 40.5 84s38 38 62 48s50.333 15 79 15c59.333 0 103.5 -21.5 132.5 -64.5s43.5 -100.5 43.5 -172.5v-49h-312v0zM362.999 290.002l0.000976562 13
c0 65.333 -9.83301 111.5 -29.5 138.5s-48.834 40.5 -87.501 40.5c-18.667 0 -36.167 -2.66699 -52.5 -8s-30.5 -15 -42.5 -29s-21.5 -33.5 -28.5 -58.5s-11.167 -57.167 -12.5 -96.5h253z" />
    <glyph glyph-name="f" unicode="f" horiz-adv-x="289" 
d="M30 470v49h66v88c0 42 9.16699 72.167 27.5 90.5s41.833 27.5 70.5 27.5c19.333 0 36.333 -2.16699 51 -6.5s28 -9.5 40 -15.5l-3 -30h-84c-17.333 0 -29.333 -4 -36 -12s-10 -20.333 -10 -37v-105h119v-49h-119v-470h-56v470h-66z" />
    <glyph glyph-name="g" unicode="g" horiz-adv-x="488" 
d="M469 532l0.00292969 -70.0029h-118l58 -42c2.66699 -8.66699 4.66699 -16.667 6 -24s2 -16.666 2 -27.999c0 -31.333 -5 -57.666 -15 -78.999s-23.333 -38.5 -40 -51.5s-35.667 -22.333 -57 -28s-43.333 -8.5 -66 -8.5c-15.333 0 -30.666 1.33301 -45.999 4
s-30 7.33398 -44 14.001c-8 -6 -15.167 -13.5 -21.5 -22.5s-9.5 -20.167 -9.5 -33.5c0 -38.667 24.333 -58 73 -58h113c48.667 0 85.834 -10.833 111.501 -32.5s38.5 -51.5 38.5 -89.5c0 -25.333 -5.33301 -47.833 -16 -67.5s-25.834 -36.334 -45.501 -50.001
s-43 -24.167 -70 -31.5s-57.167 -11 -90.5 -11c-62.667 0 -110.167 12.167 -142.5 36.5s-48.5 55.833 -48.5 94.5c0 21.333 3.66699 38.166 11 50.499s13.666 21.5 18.999 27.5l61 31c-14.667 4 -29 12.667 -43 26s-21 34.333 -21 63c0 17.333 2.66699 30.833 8 40.5
s9.66602 16.834 12.999 21.501l49 23l-57 35c-6.66699 12.667 -12 27 -16 43s-6 32.667 -6 50c0 30.667 5.66699 56.334 17 77.001s25.666 37.5 42.999 50.5s36.666 22.333 57.999 28s42 8.5 62 8.5s40.667 -2.83301 62 -8.5s41 -15.5 59 -29.5zM239.003 245.997
c42 0 72.333 9.33398 91 28.001s28 48 28 88v6c0 34 -9.33301 61.5 -28 82.5s-49 31.5 -91 31.5c-42.667 0 -73.5 -10.333 -92.5 -31s-28.5 -48 -28.5 -82v-6c0 -40.667 9.5 -70.334 28.5 -89.001s49.833 -28 92.5 -28zM157.003 54.998
c-19.333 -12.667 -34.666 -26.5 -45.999 -41.5s-17 -33.5 -17 -55.5c0 -30 11.667 -52 35 -66s57.666 -21 102.999 -21c56 0 97.667 10.667 125 32s41 46.333 41 75v4c0 20 -6 37.167 -18 51.5s-35 21.5 -69 21.5h-154v0z" />
    <glyph glyph-name="h" unicode="h" horiz-adv-x="502" 
d="M139 0l-56.999 0.00195312v718h57v-261l43 48c11.333 5.33301 25.166 10.666 41.499 15.999s36.5 8 60.5 8c20.667 0 39.5 -2.83301 56.5 -8.5s31.667 -14.834 44 -27.501s22 -29.167 29 -49.5s10.5 -45.5 10.5 -75.5v-368h-57v380c0 19.333 -2.33301 35.5 -7 48.5
s-11 23.333 -19 31s-17.5 13.167 -28.5 16.5s-23.167 5 -36.5 5c-30 0 -55 -4.66699 -75 -14s-40.667 -22 -62 -38v-429z" />
    <glyph glyph-name="i" unicode="i" horiz-adv-x="228" 
d="M114 630c-12 0 -22.5 4.33301 -31.5 13s-13.5 19.667 -13.5 33s4.5 24.333 13.5 33s19.5 13 31.5 13s22.5 -4.33301 31.5 -13s13.5 -19.667 13.5 -33s-4.5 -24.333 -13.5 -33s-19.5 -13 -31.5 -13zM85 519h57v-519h-57v519z" />
    <glyph glyph-name="j" unicode="j" horiz-adv-x="220" 
d="M110 630c-12 0 -22.5 4.33301 -31.5 13s-13.5 19.667 -13.5 33s4.5 24.333 13.5 33s19.5 13 31.5 13s22.5 -4.33301 31.5 -13s13.5 -19.667 13.5 -33s-4.5 -24.333 -13.5 -33s-19.5 -13 -31.5 -13zM47 -170c-15.333 0 -29 2 -41 6s-22 8.66699 -30 14l5 30h55
c17.333 0 29.333 4.5 36 13.5s10 21.833 10 38.5v587h56v-571c0 -42 -8.66699 -72.167 -26 -90.5s-39 -27.5 -65 -27.5z" />
    <glyph glyph-name="k" unicode="k" horiz-adv-x="443" 
d="M139 0h-57v718h57v-363l-13 -131l223 295h63l-171 -222l62 -76l121 -221h-65l-151 271l-69 -96v-175z" />
    <glyph glyph-name="l" unicode="l" horiz-adv-x="234" 
d="M88 718h58v-718h-58v718z" />
    <glyph glyph-name="m" unicode="m" horiz-adv-x="761" 
d="M450 505c9.33301 5.33301 22.501 10.668 39.501 16.001s36.5 8 58.5 8c40.667 0 73.334 -12 98.001 -36s37 -65.667 37 -125v-368h-57v380c0 19.333 -2 35.5 -6 48.5s-9.66699 23.333 -17 31s-16.333 13.167 -27 16.5s-22.667 5 -36 5
c-28.667 0 -52.5 -4.83301 -71.5 -14.5s-38.167 -22.5 -57.5 -38.5v-428h-57v380c0 19.333 -2.16699 35.5 -6.5 48.5s-10.333 23.333 -18 31s-16.667 13.167 -27 16.5s-21.833 5 -34.5 5c-27.333 0 -50.833 -4.5 -70.5 -13.5s-39.167 -21.167 -58.5 -36.5v-431h-57v519h28
l26 -62l42 48c10 5.33301 23 10.666 39 15.999s35.667 8 59 8c19.333 0 36.166 -2 50.499 -6s28.166 -10 41.499 -18l34 -53z" />
    <glyph glyph-name="n" unicode="n" horiz-adv-x="502" 
d="M182 505c11.333 5.33301 25.167 10.668 41.5 16.001s36.5 8 60.5 8c20.667 0 39.5 -2.83301 56.5 -8.5s31.667 -14.834 44 -27.501s22 -29.167 29 -49.5s10.5 -45.5 10.5 -75.5v-368h-57v380c0 19.333 -2.33301 35.5 -7 48.5s-11 23.333 -19 31s-17.5 13.167 -28.5 16.5
s-23.167 5 -36.5 5c-30 0 -55 -4.66699 -75 -14s-40.667 -22 -62 -38v-429h-57v519h28l27 -64z" />
    <glyph glyph-name="o" unicode="o" horiz-adv-x="496" 
d="M249 -14c-30 0 -57.1689 5.83301 -81.502 17.5s-45.166 29 -62.499 52s-30.833 51.5 -40.5 85.5s-14.5 73 -14.5 117c0 44.667 5 84 15 118s23.667 62.333 41 85s38.333 39.667 63 51s51.334 17 80.001 17c29.333 0 56 -5.66699 80 -17s44.667 -28.333 62 -51
s30.833 -50.667 40.5 -84s14.5 -72 14.5 -116c0 -90.667 -17.833 -159.167 -53.5 -205.5s-83.5 -69.5 -143.5 -69.5zM248.998 32c20 0 38.333 4 55 12s31.167 20.667 43.5 38s21.833 39.833 28.5 67.5s10 61.167 10 100.5v13c0 42 -3.16699 76.833 -9.5 104.5
s-15.5 50 -27.5 67s-26.333 29 -43 36s-35.667 10.5 -57 10.5s-40.5 -3.5 -57.5 -10.5s-31.5 -18.833 -43.5 -35.5s-21.333 -38.667 -28 -66s-10 -61 -10 -101v-13c0 -40.667 3.5 -75.167 10.5 -103.5s16.667 -51.333 29 -69s27 -30.5 44 -38.5s35.5 -12 55.5 -12z" />
    <glyph glyph-name="p" unicode="p" horiz-adv-x="502" 
d="M184 508c13.333 5.33301 27.168 10.165 41.501 14.498s31.166 6.5 50.499 6.5c56.667 0 100.167 -22.167 130.5 -66.5s45.5 -112.166 45.5 -203.499c0 -87.333 -16.333 -152 -49 -194s-75.667 -63 -129 -63c-31.333 0 -58 5.83301 -80 17.5s-40.333 23.834 -55 36.501
v-218h-57v681h28l26 -62zM139.002 95.999c6 -4.66699 12.999 -9.83105 20.999 -15.498s17.333 -11 28 -16s22.5 -9.16699 35.5 -12.5s26.833 -5 41.5 -5c40 0 71.333 15.667 94 47s34 84.666 34 159.999v14c0 40.667 -2.66699 74.667 -8 102s-13.166 49.166 -23.499 65.499
s-23.333 28 -39 35s-33.834 10.5 -54.501 10.5c-25.333 0 -47.666 -4 -66.999 -12s-40 -20.667 -62 -38v-335v0z" />
    <glyph glyph-name="q" unicode="q" horiz-adv-x="502" 
d="M363 57c-14.667 -12.667 -33 -25.001 -55 -37.001s-48.667 -18 -80 -18c-53.333 0 -96.333 21.333 -129 64s-49 107 -49 193c0 90.667 16 158.334 48 203.001s75.667 67 131 67c18.667 0 35.667 -1.83301 51 -5.5s29.333 -8.16699 42 -13.5l51 -49l21 58h26v-681h-57v219
v0zM363 433.999c-20.667 15.333 -41.335 26.9971 -62.002 34.9971s-43 12 -67 12c-19.333 0 -36.666 -3.33301 -51.999 -10s-28.5 -18.167 -39.5 -34.5s-19.333 -38.166 -25 -65.499s-8.5 -61.666 -8.5 -102.999v-14c0 -76 11.167 -129.5 33.5 -160.5
s53.833 -46.5 94.5 -46.5c15.333 0 29.333 1.66699 42 5s24.334 7.5 35.001 12.5s20 10.333 28 16s15 10.834 21 15.501v338v0z" />
    <glyph glyph-name="r" unicode="r" horiz-adv-x="355" 
d="M187 510c13.333 6 25.999 10.667 37.999 14s24.667 5 38 5c16 0 29.667 -1.33301 41 -4s20.333 -5.66699 27 -9l-12 -54c-11.333 4.66699 -22.166 8.16699 -32.499 10.5s-23.5 3.5 -39.5 3.5c-22.667 0 -42.167 -4.83301 -58.5 -14.5s-32.833 -21.5 -49.5 -35.5v-426h-57
v519h28l27 -63z" />
    <glyph glyph-name="s" unicode="s" horiz-adv-x="393" 
d="M189 -14c-34 0 -62.8311 3.49902 -86.498 10.499s-42.834 14.5 -57.501 22.5l10 45c17.333 -8 37.333 -15.333 60 -22s47 -10 73 -10c32 0 57.667 7.33301 77 22s29 40.334 29 77.001c0 16.667 -1.5 30.667 -4.5 42s-8.83301 21 -17.5 29s-20.834 15.167 -36.501 21.5
s-36.167 13.166 -61.5 20.499c-18.667 5.33301 -36 11.666 -52 18.999s-29.5 16.333 -40.5 27s-19.667 23.834 -26 39.501s-9.5 34.834 -9.5 57.501c0 47.333 14 82.833 42 106.5s65.333 35.5 112 35.5c28.667 0 54.167 -2.83301 76.5 -8.5s41.166 -12.5 56.499 -20.5
l-10 -43l-28 9.5c-8.66699 3 -17.667 5.5 -27 7.5s-19.5 3.66699 -30.5 5s-23.833 2 -38.5 2c-31.333 0 -55.5 -6.16699 -72.5 -18.5s-25.5 -36.833 -25.5 -73.5c0 -16.667 2 -30.167 6 -40.5s10.333 -19 19 -26s19.834 -12.833 33.501 -17.5s30.167 -10 49.5 -16
c23.333 -6.66699 43.833 -14.167 61.5 -22.5s32.334 -18.5 44.001 -30.5s20.5 -26.333 26.5 -43s9 -37 9 -61c0 -20.667 -3.33301 -40 -10 -58s-16.834 -33.5 -30.501 -46.5s-30.5 -23.167 -50.5 -30.5s-43.333 -11 -70 -11z" />
    <glyph glyph-name="t" unicode="t" horiz-adv-x="305" 
d="M174 -10c-30 0 -51.5 8.16797 -64.5 24.501s-19.5 43.166 -19.5 80.499v375h-64v49h67l26 140h28v-140h116v-49h-116v-384c0 -18 2.83301 -30.5 8.5 -37.5s17.167 -10.5 34.5 -10.5h81l3 -29c-15.333 -5.33301 -31 -9.83301 -47 -13.5s-33.667 -5.5 -53 -5.5z" />
    <glyph glyph-name="u" unicode="u" horiz-adv-x="498" 
d="M359 519l57.001 -0.000976562v-519h-28l-27 60l-42 -48c-10.667 -5.33301 -24.5 -10.333 -41.5 -15s-37.5 -7 -61.5 -7c-20 0 -38.5 2.83301 -55.5 8.5s-31.5 14.834 -43.5 27.501s-21.5 29.167 -28.5 49.5s-10.5 45.5 -10.5 75.5v368h57v-380
c0 -39.333 8.33301 -66.5 25 -81.5s38 -22.5 64 -22.5c30 0 55.167 4.5 75.5 13.5s40.166 21.833 59.499 38.5v432z" />
    <glyph glyph-name="v" unicode="v" horiz-adv-x="438" 
d="M25 519h59l109 -368l26 -135l26 135l111 368h57l-163 -519h-64z" />
    <glyph glyph-name="w" unicode="w" horiz-adv-x="641" 
d="M25 519h57l90 -376l16 -120l25 157l81 339h65l80 -339l21 -157l16 120l88 376h52l-128 -519h-60l-81 341l-23 152l-23 -152l-87 -341h-60z" />
    <glyph glyph-name="x" unicode="x" horiz-adv-x="433" 
d="M185 267l-147 252h61l84 -144l41 -93l34 93l78 144h57l-147 -255l155 -264h-61l-89 153l-43 93l-37 -93l-82 -153h-57z" />
    <glyph glyph-name="y" unicode="y" horiz-adv-x="438" 
d="M189 12l-164 507h59l110 -352l25 -134l27 134l110 352h57l-218 -681h-57z" />
    <glyph glyph-name="z" unicode="z" horiz-adv-x="407" 
d="M38 55l250 377l33 42l-78 -6h-190v51h316v-59l-251 -380l-37 -42l81 10h207v-48h-331v55z" />
    <glyph glyph-name="braceleft" unicode="{" horiz-adv-x="275" 
d="M192 -107c-12.667 0 -24.834 2.16895 -36.501 6.50195s-22 11.166 -31 20.499s-16.167 21.166 -21.5 35.499s-8 31.166 -8 50.499s1.33301 38 4 56s5.66699 35 9 51l9 44c2.66699 13.333 4 25.333 4 36c0 60.667 -29.333 92 -88 94v50
c29.333 1.33301 51.333 8.83301 66 22.5s22 36.167 22 67.5c0 10.667 -1.33301 22.667 -4 36l-9 43.5c-3.33301 15.667 -6.33301 32 -9 49s-4 34.5 -4 52.5c0 20.667 2.66699 38.334 8 53.001s12.5 26.834 21.5 36.501s19.167 16.667 30.5 21s23.333 6.5 36 6.5
c10.667 0 20.5 -1.33301 29.5 -4s16.5 -5.66699 22.5 -9l-3 -36h-43c-19.333 0 -33.166 -6.33301 -41.499 -19s-9.83301 -35 -4.5 -67l21 -126c3.33301 -18 4.5 -35.333 3.5 -52s-5 -31.834 -12 -45.501s-17.167 -25.167 -30.5 -34.5s-31 -16 -53 -20
c43.333 -7.33301 71.333 -24.833 84 -52.5s15.667 -61.5 9 -101.5l-20 -124c-5.33301 -32.667 -4.16602 -56.5 3.50098 -71.5s21.167 -22.5 40.5 -22.5h43l3 -34c-6 -3.33301 -13.333 -6.33301 -22 -9s-18.334 -4 -29.001 -4z" />
    <glyph glyph-name="bar" unicode="|" horiz-adv-x="179" 
d="M65 718h49v-818h-49v818z" />
    <glyph glyph-name="braceright" unicode="}" horiz-adv-x="275" 
d="M84 -107c-10.667 0 -20.5 1.33301 -29.5 4s-16.5 5.66699 -22.5 9l3 34h43c19.333 0 33.166 6.66699 41.499 20s9.83301 36 4.5 68l-21 132c-2.66699 18.667 -3.66699 36.334 -3 53.001s4.5 31.667 11.5 45s17.167 24.666 30.5 33.999s31 16 53 20
c-22 4 -39.833 10.333 -53.5 19s-24 19.667 -31 33s-11 28.666 -12 45.999s0.166992 36 3.5 56l20 118c5.33301 33.333 4.16602 57 -3.50098 71s-21.167 21 -40.5 21h-43l-3 36c6 3.33301 13.333 6.33301 22 9s18.334 4 29.001 4c12.667 0 24.834 -2 36.501 -6
s22 -10.5 31 -19.5s16.167 -20.667 21.5 -35s8 -31.833 8 -52.5c0 -19.333 -1.33301 -37.666 -4 -54.999s-5.66699 -33.5 -9 -48.5l-9 -42c-2.66699 -13 -4 -24.833 -4 -35.5c0 -60.667 29.333 -92 88 -94v-50c-29.333 -1.33301 -51.333 -8.83301 -66 -22.5
s-22 -36.167 -22 -67.5c0 -10.667 1.33301 -23 4 -37l9 -45.5c3.33301 -16.333 6.33301 -33.333 9 -51s4 -35.5 4 -53.5c0 -21.333 -2.66699 -39.5 -8 -54.5s-12.5 -27.167 -21.5 -36.5s-19.167 -16 -30.5 -20s-23.333 -6 -36 -6z" />
    <glyph glyph-name="asciitilde" unicode="~" horiz-adv-x="400" 
d="M264 270c-15.333 0 -28.666 5 -39.999 15s-22 20.667 -32 32l-32 34c-8.66699 9.33301 -14.667 14.833 -18 16.5s-7.66602 2.5 -12.999 2.5c-9.33301 0 -15.666 -6.33301 -18.999 -19s-5 -31 -5 -55v-16h-46c0 51.333 7.16699 88 21.5 110s32.833 33 55.5 33
c15.333 0 28.666 -5 39.999 -15s22 -20.667 32 -32l32 -34c8.66699 -9.33301 14.667 -14.833 18 -16.5s7.66602 -2.5 12.999 -2.5c9.33301 0 15.666 6.33301 18.999 19s5 31 5 55v15h46c0 -50.667 -7.33301 -87 -22 -109s-33 -33 -55 -33z" />
    <glyph glyph-name="exclamdown" unicode="&#xa1;" horiz-adv-x="255" 
d="M128 418c-15.333 0 -28.333 5.16699 -39 15.5s-16 23.833 -16 40.5c0 16 5.33301 29.167 16 39.5s23.667 15.5 39 15.5c14 0 26.5 -5.16699 37.5 -15.5s16.5 -23.5 16.5 -39.5c0 -16.667 -5.5 -30.167 -16.5 -40.5s-23.5 -15.5 -37.5 -15.5zM96 106l17 240h29l17 -240
v-268h-63v268z" />
    <glyph glyph-name="cent" unicode="&#xa2;" horiz-adv-x="415" 
d="M210 36c11.333 -2 22.998 -3 34.998 -3s22.667 0.833008 32 2.5s18.5 4 27.5 7s18.5 6.66699 28.5 11s21 9.5 33 15.5l15 -43c-16.667 -10 -37.167 -19.167 -61.5 -27.5s-50.5 -12.5 -78.5 -12.5c-17.333 0 -32.333 1.33301 -45 4l-38 -125l-44 14l38 126
c-33.333 18 -58.666 47.833 -75.999 89.5s-26 97.167 -26 166.5c0 92.667 16.167 160.5 48.5 203.5s79.833 64.5 142.5 64.5c22.667 0 45.334 -2.66699 68.001 -8l40 130l46 -13l-185 -602v0zM294.998 474c-16.667 4 -33.333 5.99902 -50 5.99902c-22 0 -41.333 -3 -58 -9
s-30.667 -16.833 -42 -32.5s-20 -37.167 -26 -64.5s-9 -62 -9 -104v-13c0 -56.667 5 -100.667 15 -132s24 -54.666 42 -69.999l128 419v0z" />
    <glyph glyph-name="sterling" unicode="&#xa3;" horiz-adv-x="446" 
d="M200 301c5.33301 -13.333 9.66504 -27.334 12.998 -42.001s5 -30 5 -46c0 -46.667 -21.667 -91 -65 -133l-81 -42l110 12h231v-50h-363v61l41 27c13.333 8.66699 25 18.334 35 29.001s18.167 23.334 24.5 38.001s9.5 32.667 9.5 54c0 16.667 -2.16699 32.5 -6.5 47.5
s-10.166 29.833 -17.499 44.5h-96v49h72c-11.333 22 -21.333 45.333 -30 70s-13 52.667 -13 84c0 20 3.33301 39.667 10 59s17.334 36.333 32.001 51s33.334 26.5 56.001 35.5s50.334 13.5 83.001 13.5c39.333 0 71.666 -4.33301 96.999 -13s48 -18.334 68 -29.001l-15 -45
c-19.333 9.33301 -40 17.666 -62 24.999s-48.333 11 -79 11c-22.667 0 -42 -1.83301 -58 -5.5s-29 -9.66699 -39 -18s-17.333 -19.5 -22 -33.5s-7 -31.333 -7 -52v-11c0 -27.333 4.66699 -52.166 14 -74.499s19.666 -44.833 30.999 -67.5h164v-49h-142v0z" />
    <glyph glyph-name="fraction" unicode="&#xa4;" horiz-adv-x="301" 
d="M282 651h52l-315 -651h-52z" />
    <glyph glyph-name="yen" unicode="&#xa5;" horiz-adv-x="550" 
d="M508 412v-49h-147l-47 -107h194v-49h-203v-207h-60v207h-203v49h192l-49 107h-143v49h120l-110 239h65l129 -293l29 -132l33 132l125 293h54l-105 -239h126z" />
    <glyph glyph-name="florin" unicode="&#xa6;" horiz-adv-x="350" 
d="M20 -177c-13.333 0 -25.335 2.16699 -36.002 6.5s-21.334 9.5 -32.001 15.5l8 30h54c12.667 0 21.334 2.5 26.001 7.5s8.33398 14.5 11.001 28.5l86 489h-80v49h89l28 158c7.33301 42 20.833 72.167 40.5 90.5s43.5 27.5 71.5 27.5c19.333 0 36 -2.33301 50 -7
s26.667 -9.66699 38 -15l-8 -30h-78c-18.667 0 -31.667 -3.83301 -39 -11.5s-12.666 -20.167 -15.999 -37.5l-31 -175h101v-49h-110l-86 -488c-6 -33.333 -16.5 -56.5 -31.5 -69.5s-33.5 -19.5 -55.5 -19.5z" />
    <glyph glyph-name="section" unicode="&#xa7;" horiz-adv-x="453" 
d="M179 375c-24.667 11.333 -45.6631 27.501 -62.9961 48.501s-26 50.167 -26 87.5c0 46 14 82.833 42 110.5s65.333 41.5 112 41.5c28.667 0 54 -2.66699 76 -8s41 -12.333 57 -21l-12 -43l-27.5 9.5c-8.33301 3 -17.166 5.5 -26.499 7.5s-19.333 3.66699 -30 5
s-23.334 2 -38.001 2c-31.333 0 -55.5 -7.83301 -72.5 -23.5s-25.5 -41.834 -25.5 -78.501c0 -16.667 2.16699 -30.667 6.5 -42s11.333 -21.333 21 -30s22 -16.167 37 -22.5s32.833 -12.833 53.5 -19.5c24 -7.33301 45 -15.333 63 -24s33.167 -19 45.5 -31
s21.666 -26.333 27.999 -43s9.5 -36.334 9.5 -59.001c0 -25.333 -5.33301 -46.833 -16 -64.5s-25 -32.5 -43 -44.5l-76 -20c23.333 -12 43.166 -29 59.499 -51s24.5 -51 24.5 -87c0 -46 -14 -82.833 -42 -110.5s-65.333 -41.5 -112 -41.5c-28.667 0 -54 2.66699 -76 8
s-41 12.333 -57 21l11 42c10 -4 19.333 -7.5 28 -10.5s17.667 -5.5 27 -7.5s19.333 -3.66699 30 -5s23.334 -2 38.001 -2c31.333 0 55.5 8.16699 72.5 24.5s25.5 42.833 25.5 79.5c0 16.667 -2.16699 31 -6.5 43s-11.333 22.5 -21 31.5s-21.834 17 -36.501 24
s-32.667 13.833 -54 20.5c-24 7.33301 -44.833 15.333 -62.5 24s-32.334 19 -44.001 31s-20.334 26.333 -26.001 43s-8.5 36.334 -8.5 59.001c0 25.333 5.33301 46.833 16 64.5s25 32.5 43 44.5l76 17v0zM244.004 126.001c36 11.333 63.166 25.3359 81.499 42.0029
s27.5 41 27.5 73c0 17.333 -1.83301 31.666 -5.5 42.999s-10.167 21.166 -19.5 29.499s-22 15.833 -38 22.5s-36.667 13.667 -62 21l-18 6c-37.333 -10 -65 -23 -83 -39s-27 -40.667 -27 -74c0 -16.667 1.5 -30.834 4.5 -42.501s8.83301 -21.667 17.5 -30
s20.834 -15.833 36.501 -22.5s36.167 -13.667 61.5 -21l12 -4z" />
    <glyph glyph-name="currency" unicode="&#xa8;" horiz-adv-x="516" 
d="M38 370v49.002h79c4.66699 36 12.5 68.833 23.5 98.5s25.5 55.334 43.5 77.001s39.5 38.5 64.5 50.5s53.833 18 86.5 18c30 0 56.167 -2.83301 78.5 -8.5s45.166 -12.834 68.499 -21.501l-11 -49c-15.333 5.33301 -29.166 9.66602 -41.499 12.999
s-23.833 6.16602 -34.5 8.49902s-21.334 4 -32.001 5s-22 1.5 -34 1.5c-19.333 0 -37.333 -3.16699 -54 -9.5s-31.5 -17 -44.5 -32s-24 -34.833 -33 -59.5s-15.5 -55.334 -19.5 -92.001h204v-49h-208v-30v-19v-24c0 -8 0.333008 -15.667 1 -23h207v-49h-203
c7.33301 -69.333 23.5 -118.666 48.5 -147.999s58.833 -44 101.5 -44c15.333 0 28.833 0.666992 40.5 2s22.834 3.5 33.501 6.5s21.667 6.66699 33 11l38 14.5l17 -44c-24.667 -12 -48.667 -21.167 -72 -27.5s-51.333 -9.5 -84 -9.5c-34 0 -63.667 5.66699 -89 17
s-46.833 27.5 -64.5 48.5s-31.667 46.167 -42 75.5s-17.833 62 -22.5 98h-79v49h74c0 8.66699 -0.166992 17.334 -0.5 26.001s-0.5 17.667 -0.5 27v21c0 7.33301 0.333008 14.666 1 21.999h-74z" />
    <glyph glyph-name="quotesingle" unicode="&#xa9;" horiz-adv-x="205" 
d="M72 581v111h61v-111l-17 -149h-27z" />
    <glyph glyph-name="quotedblleft" unicode="&#xaa;" horiz-adv-x="381" 
d="M267 495c-14.667 0 -27.333 5.16797 -38 15.501s-16 23.5 -16 39.5c0 14.667 2.83301 28.5 8.5 41.5s12.5 25.5 20.5 37.5l53 82l20 -10l-42 -108l30 -4c4.66699 -4.66699 8.66699 -9.83398 12 -15.501s5 -13.5 5 -23.5c0 -16 -5.16699 -29.167 -15.5 -39.5
s-22.833 -15.5 -37.5 -15.5zM115.001 495.001c-14.667 0 -27.333 5.16797 -38 15.501s-16 23.5 -16 39.5c0 14.667 2.83301 28.5 8.5 41.5s12.5 25.5 20.5 37.5l53 82l20 -10l-42 -108l30 -4c4.66699 -4.66699 8.66699 -9.83398 12 -15.501s5 -13.5 5 -23.5
c0 -16 -5.16699 -29.167 -15.5 -39.5s-22.833 -15.5 -37.5 -15.5z" />
    <glyph glyph-name="guillemotleft" unicode="&#xab;" horiz-adv-x="436" 
d="M207 172v54l131 172h62l-112 -149l-46 -50l46 -49l112 -150h-61zM49 172v54l131 172h62l-112 -149l-46 -50l46 -49l112 -150h-61z" />
    <glyph glyph-name="guilsinglleft" unicode="&#xac;" horiz-adv-x="278" 
d="M49 172v54l131 172h62l-112 -149l-46 -50l46 -49l112 -150h-61z" />
    <glyph glyph-name="guilsinglright" unicode="&#xad;" horiz-adv-x="278" 
d="M148 149l46 50l-46 49l-112 150h61l132 -172v-54l-131 -172h-62z" />
    <glyph glyph-name="fi" unicode="&#xae;" horiz-adv-x="506" 
d="M390 630c-12.667 0 -23.667 4.66699 -33 14s-14 20.666 -14 33.999s4.66699 24.666 14 33.999s20.333 14 33 14s23.667 -4.66699 33 -14s14 -20.666 14 -33.999s-4.66699 -24.666 -14 -33.999s-20.333 -14 -33 -14zM30 470l-0.000976562 49h66v88
c0 41.333 9.5 71.333 28.5 90s42.167 28 69.5 28c16 0 30.833 -2.33301 44.5 -7s25.834 -9.66699 36.501 -15l-3 -30h-74c-17.333 0 -29.333 -4 -36 -12s-10 -20.333 -10 -37v-105h119v-49h-119v-470h-56v470h-66zM360.999 519h57v-519h-57v519z" />
    <glyph glyph-name="fl" unicode="&#xaf;" horiz-adv-x="506" 
d="M30 470v49h66v88c0 41.333 9.5 71.333 28.5 90s42.167 28 69.5 28c18 0 34 -2.33301 48 -7s26.333 -9.66699 37 -15l-3 -30h-78c-17.333 0 -29.333 -4 -36 -12s-10 -20.333 -10 -37v-105h119v-49h-119v-470h-56v470h-66zM361 718h57v-718h-57v718z" />
    <glyph glyph-name="endash" unicode="&#xb1;" horiz-adv-x="401" 
d="M55 321h291v-49h-291v49z" />
    <glyph glyph-name="dagger" unicode="&#xb2;" horiz-adv-x="481" 
d="M141 418h-87v51h87l88 -14l-20 91v125h63v-125l-20 -91l88 14h87v-51h-87l-89 14l21 -117v-181l-18 -296h-27l-18 296v181l21 117z" />
    <glyph glyph-name="daggerdbl" unicode="&#xb3;" horiz-adv-x="481" 
d="M141 418h-87v51h87l88 -14l-20 91v125h63v-125l-20 -91l88 14h87v-51h-87l-89 14l21 -117v-121l-21 -117l89 14h87v-51h-87l-88 14l20 -91v-125h-63v125l20 91l-88 -14h-87v51h87l89 -14l-21 117v121l21 117z" />
    <glyph glyph-name="periodcentered" unicode="&#xb4;" horiz-adv-x="235" 
d="M117 285c-15.333 0 -28.666 5.33301 -39.999 16s-17 24.667 -17 42s5.66699 31.5 17 42.5s24.666 16.5 39.999 16.5c16 0 29.667 -5.5 41 -16.5s17 -25.167 17 -42.5s-5.66699 -31.333 -17 -42s-25 -16 -41 -16z" />
    <glyph glyph-name="paragraph" unicode="&#xb6;" horiz-adv-x="486" 
d="M215 343l-67 -11c-33.333 9.33301 -59.333 26.833 -78 52.5s-28 61.167 -28 106.5c0 52.667 16.667 92.5 50 119.5s78 40.5 134 40.5h170v-751h-50v704h-81v-704h-50v443z" />
    <glyph glyph-name="bullet" unicode="&#xb7;" horiz-adv-x="316" 
d="M157 222c-12.667 0 -25.1689 2.5 -37.502 7.5s-23 12 -32 21s-16.333 19.667 -22 32s-8.5 25.833 -8.5 40.5c0 15.333 2.83301 29.333 8.5 42s13 23.5 22 32.5s19.667 16 32 21s24.833 7.5 37.5 7.5c28 0 52 -9.5 72 -28.5s30 -43.833 30 -74.5
c0 -14.667 -2.66699 -28.167 -8 -40.5s-12.666 -23 -21.999 -32s-20.166 -16 -32.499 -21s-25.5 -7.5 -39.5 -7.5z" />
    <glyph glyph-name="bullet" unicode="&#x2219;" horiz-adv-x="316" 
d="M157 222c-12.667 0 -25.1689 2.5 -37.502 7.5s-23 12 -32 21s-16.333 19.667 -22 32s-8.5 25.833 -8.5 40.5c0 15.333 2.83301 29.333 8.5 42s13 23.5 22 32.5s19.667 16 32 21s24.833 7.5 37.5 7.5c28 0 52 -9.5 72 -28.5s30 -43.833 30 -74.5
c0 -14.667 -2.66699 -28.167 -8 -40.5s-12.666 -23 -21.999 -32s-20.166 -16 -32.499 -21s-25.5 -7.5 -39.5 -7.5z" />
    <glyph glyph-name="quotesinglbase" unicode="&#xb8;" horiz-adv-x="229" 
d="M66 -102l41.999 107.999l-30 4c-4.66699 4.66699 -8.66699 9.83398 -12 15.501s-5 13.5 -5 23.5c0 16 5.16699 29.167 15.5 39.5s22.833 15.5 37.5 15.5s27.334 -5.16699 38.001 -15.5s16 -23.5 16 -39.5c0 -14.667 -2.83301 -28.5 -8.5 -41.5s-12.5 -25.5 -20.5 -37.5
l-53 -82z" />
    <glyph glyph-name="quotedblbase" unicode="&#xb9;" horiz-adv-x="381" 
d="M218 -102l41.999 107.999l-30 4c-4.66699 4.66699 -8.66699 9.83398 -12 15.501s-5 13.5 -5 23.5c0 16 5.16699 29.167 15.5 39.5s22.833 15.5 37.5 15.5s27.334 -5.16699 38.001 -15.5s16 -23.5 16 -39.5c0 -14.667 -2.83301 -28.5 -8.5 -41.5s-12.5 -25.5 -20.5 -37.5
l-53 -82zM65.999 -102.001l41.999 107.999l-30 4c-4.66699 4.66699 -8.66699 9.83398 -12 15.501s-5 13.5 -5 23.5c0 16 5.16699 29.167 15.5 39.5s22.833 15.5 37.5 15.5s27.334 -5.16699 38.001 -15.5s16 -23.5 16 -39.5c0 -14.667 -2.83301 -28.5 -8.5 -41.5
s-12.5 -25.5 -20.5 -37.5l-53 -82z" />
    <glyph glyph-name="quotedblright" unicode="&#xba;" horiz-adv-x="381" 
d="M218 496l41.999 107.999l-30 4c-4.66699 4.66699 -8.66699 9.83398 -12 15.501s-5 13.5 -5 23.5c0 16 5.16699 29.167 15.5 39.5s22.833 15.5 37.5 15.5s27.334 -5.16699 38.001 -15.5s16 -23.5 16 -39.5c0 -14.667 -2.83301 -28.5 -8.5 -41.5s-12.5 -25.5 -20.5 -37.5
l-53 -82zM65.999 495.999l41.999 107.999l-30 4c-4.66699 4.66699 -8.66699 9.83398 -12 15.501s-5 13.5 -5 23.5c0 16 5.16699 29.167 15.5 39.5s22.833 15.5 37.5 15.5s27.334 -5.16699 38.001 -15.5s16 -23.5 16 -39.5c0 -14.667 -2.83301 -28.5 -8.5 -41.5
s-12.5 -25.5 -20.5 -37.5l-53 -82z" />
    <glyph glyph-name="guillemotright" unicode="&#xbb;" horiz-adv-x="436" 
d="M306 149l46 50l-46 49l-112 150h61l132 -172v-54l-131 -172h-62zM148 149l46 50l-46 49l-112 150h61l132 -172v-54l-131 -172h-62z" />
    <glyph glyph-name="ellipsis" unicode="&#xbc;" horiz-adv-x="647" 
d="M529 -9c-15.333 0 -28.666 5.33301 -39.999 16s-17 24.667 -17 42s5.66699 31.5 17 42.5s24.666 16.5 39.999 16.5c16 0 29.667 -5.5 41 -16.5s17 -25.167 17 -42.5s-5.66699 -31.333 -17 -42s-25 -16 -41 -16zM323 -9c-15.333 0 -28.666 5.33301 -39.999 16
s-17 24.667 -17 42s5.66699 31.5 17 42.5s24.666 16.5 39.999 16.5c16 0 29.667 -5.5 41 -16.5s17 -25.167 17 -42.5s-5.66699 -31.333 -17 -42s-25 -16 -41 -16zM117 -9c-15.333 0 -28.666 5.33301 -39.999 16s-17 24.667 -17 42s5.66699 31.5 17 42.5
s24.666 16.5 39.999 16.5c16 0 29.667 -5.5 41 -16.5s17 -25.167 17 -42.5s-5.66699 -31.333 -17 -42s-25 -16 -41 -16z" />
    <glyph glyph-name="perthousand" unicode="&#xbd;" horiz-adv-x="1145" 
d="M187 250c-24.667 0 -46.167 5.66406 -64.5 16.9971s-33.5 26.5 -45.5 45.5s-20.833 41 -26.5 66s-8.5 51.5 -8.5 79.5c0 26.667 3 52.334 9 77.001s15.167 46.5 27.5 65.5s27.666 34.167 45.999 45.5s39.833 17 64.5 17c25.333 0 47.166 -5.66699 65.499 -17
s33.5 -26.333 45.5 -45s20.833 -40.167 26.5 -64.5s8.5 -49.833 8.5 -76.5c0 -28 -3 -54.667 -9 -80s-15.167 -47.666 -27.5 -66.999s-27.666 -34.666 -45.999 -45.999s-40.166 -17 -65.499 -17zM552 650.997h51l-358 -651h-51zM955 -14.0029
c-24.667 0 -46.167 5.66406 -64.5 16.9971s-33.5 26.5 -45.5 45.5s-20.833 41 -26.5 66s-8.5 51.5 -8.5 79.5c0 26.667 3 52.334 9 77.001s15.167 46.5 27.5 65.5s27.666 34.167 45.999 45.5s39.833 17 64.5 17c25.333 0 47.166 -5.66699 65.499 -17s33.5 -26.333 45.5 -45
s20.833 -40.167 26.5 -64.5s8.5 -49.833 8.5 -76.5c0 -28 -3 -54.667 -9 -80s-15.167 -47.666 -27.5 -66.999s-27.666 -34.666 -45.999 -45.999s-40.166 -17 -65.499 -17zM607 -14.0059c-24.667 0 -46.167 5.66406 -64.5 16.9971s-33.5 26.5 -45.5 45.5s-20.833 41 -26.5 66
s-8.5 51.5 -8.5 79.5c0 26.667 3 52.334 9 77.001s15.167 46.5 27.5 65.5s27.666 34.167 45.999 45.5s39.833 17 64.5 17c25.333 0 47.166 -5.66699 65.499 -17s33.5 -26.333 45.5 -45s20.833 -40.167 26.5 -64.5s8.5 -49.833 8.5 -76.5c0 -28 -3 -54.667 -9 -80
s-15.167 -47.666 -27.5 -66.999s-27.666 -34.666 -45.999 -45.999s-40.166 -17 -65.499 -17zM188 289.991c12 0 23.333 2.33496 34 7.00195s20.167 12.5 28.5 23.5s14.833 25.833 19.5 44.5s7 42 7 70v42c0 28 -2.33301 51.167 -7 69.5s-11.167 33 -19.5 44
s-17.833 18.667 -28.5 23s-22 6.5 -34 6.5s-23.333 -2.33301 -34 -7s-20.167 -12.5 -28.5 -23.5s-14.833 -25.667 -19.5 -44s-7 -41.5 -7 -69.5v-42c0 -28.667 2.33301 -52.334 7 -71.001s11.167 -33.334 19.5 -44.001s17.833 -18.167 28.5 -22.5s22 -6.5 34 -6.5z
M956 25.9932c12 0 23.333 2.33496 34 7.00195s20.167 12.5 28.5 23.5s14.833 25.833 19.5 44.5s7 42 7 70v42c0 28 -2.33301 51.167 -7 69.5s-11.167 33 -19.5 44s-17.833 18.667 -28.5 23s-22 6.5 -34 6.5s-23.333 -2.33301 -34 -7s-20.167 -12.5 -28.5 -23.5
s-14.833 -25.667 -19.5 -44s-7 -41.5 -7 -69.5v-42c0 -28.667 2.33301 -52.334 7 -71.001s11.167 -33.334 19.5 -44.001s17.833 -18.167 28.5 -22.5s22 -6.5 34 -6.5zM608 25.9951c12 0 23.333 2.33496 34 7.00195s20.167 12.5 28.5 23.5s14.833 25.833 19.5 44.5s7 42 7 70
v42c0 28 -2.33301 51.167 -7 69.5s-11.167 33 -19.5 44s-17.833 18.667 -28.5 23s-22 6.5 -34 6.5s-23.333 -2.33301 -34 -7s-20.167 -12.5 -28.5 -23.5s-14.833 -25.667 -19.5 -44s-7 -41.5 -7 -69.5v-42c0 -28.667 2.33301 -52.334 7 -71.001s11.167 -33.334 19.5 -44.001
s17.833 -18.167 28.5 -22.5s22 -6.5 34 -6.5z" />
    <glyph glyph-name="questiondown" unicode="&#xbf;" horiz-adv-x="424" 
d="M252 418c-15.333 0 -28.333 5.16699 -39 15.5s-16 23.833 -16 40.5c0 16 5.33301 29.167 16 39.5s23.667 15.5 39 15.5c14 0 26.5 -5.16699 37.5 -15.5s16.5 -23.5 16.5 -39.5c0 -16.667 -5.5 -30.167 -16.5 -40.5s-23.5 -15.5 -37.5 -15.5zM236 -177
c-57.333 0 -101.5 14.498 -132.5 43.498s-46.5 73.833 -46.5 134.5c0 28.667 3.16699 53.5 9.5 74.5s16.5 39 30.5 54s32.333 27.5 55 37.5s50.667 18.333 84 25v154h39l17 -129c2 -16.667 1.33301 -29.167 -2 -37.5s-13.666 -15.166 -30.999 -20.499
c-30 -8.66699 -54.167 -16.667 -72.5 -24s-32.333 -16.333 -42 -27s-16.167 -24 -19.5 -40s-5 -37 -5 -63v-8c0 -23.333 1.83301 -42.666 5.5 -57.999s10 -27.833 19 -37.5s21.667 -16.5 38 -20.5s36.833 -6 61.5 -6c26 0 49.667 2.5 71 7.5s44.666 12.167 69.999 21.5
l9 -44c-15.333 -7.33301 -37 -15.333 -65 -24s-59 -13 -93 -13z" />
    <glyph glyph-name="grave" unicode="&#xc1;" horiz-adv-x="520" 
d="M133 757h72l71 -164h-38z" />
    <glyph glyph-name="acute" unicode="&#xc2;" 
d="M305 757h72l-105 -164h-38z" />
    <glyph glyph-name="circumflex" unicode="&#xc3;" 
d="M225 769h49l103 -176h-59l-48 90l-21 60l-21 -60l-53 -90h-52z" />
    <glyph glyph-name="tilde" unicode="&#xc4;" 
d="M299 601c-11.333 0 -21.499 2.66797 -30.499 8.00098s-17.833 13.666 -26.5 24.999l-21 27c-4.66699 5.33301 -8.33398 9.33301 -11.001 12s-6.66699 4 -12 4c-18.667 0 -28 -18.667 -28 -56v-12h-41c0 39.333 7.33301 68.333 22 87s31.334 28 50.001 28
c21.333 0 40.333 -11 57 -33l21 -27c4.66699 -5.33301 8.5 -9.33301 11.5 -12s6.83301 -4 11.5 -4c18.667 0 28 18.667 28 56v12h41c0 -39.333 -7.33301 -68.333 -22 -87s-31.334 -28 -50.001 -28z" />
    <glyph glyph-name="macron" unicode="&#xc5;" 
d="M141 692h218v-55h-218v55z" />
    <glyph glyph-name="breve" unicode="&#xc6;" 
d="M250 621c-36 0 -62.667 12.333 -80 37s-26.333 57 -27 97h45v-14c0 -23.333 4.83301 -41.166 14.5 -53.499s25.5 -18.5 47.5 -18.5s37.833 6.16699 47.5 18.5s14.5 30.166 14.5 53.499v14h45c-0.666992 -40 -9.66699 -72.333 -27 -97s-44 -37 -80 -37z" />
    <glyph glyph-name="dotaccent" unicode="&#xc7;" 
d="M250 597c-12 0 -22.5 4.33301 -31.5 13s-13.5 19.667 -13.5 33s4.5 24.333 13.5 33s19.5 13 31.5 13s22.5 -4.33301 31.5 -13s13.5 -19.667 13.5 -33s-4.5 -24.333 -13.5 -33s-19.5 -13 -31.5 -13z" />
    <glyph glyph-name="dieresis" unicode="&#xc8;" 
d="M329 597c-12 0 -22.5 4.33301 -31.5 13s-13.5 19.667 -13.5 33s4.5 24.333 13.5 33s19.5 13 31.5 13s22.5 -4.33301 31.5 -13s13.5 -19.667 13.5 -33s-4.5 -24.333 -13.5 -33s-19.5 -13 -31.5 -13zM171 597c-12 0 -22.5 4.33301 -31.5 13s-13.5 19.667 -13.5 33
s4.5 24.333 13.5 33s19.5 13 31.5 13s22.5 -4.33301 31.5 -13s13.5 -19.667 13.5 -33s-4.5 -24.333 -13.5 -33s-19.5 -13 -31.5 -13z" />
    <glyph glyph-name="ring" unicode="&#xca;" 
d="M250 591c-28 0 -51.167 9.16699 -69.5 27.5s-27.5 45.166 -27.5 80.499s9.16699 62.333 27.5 81s41.5 28 69.5 28s51.167 -9.33301 69.5 -28s27.5 -45.667 27.5 -81s-9.16699 -62.166 -27.5 -80.499s-41.5 -27.5 -69.5 -27.5zM250 630c16 0 28.667 4.33301 38 13
s14 27.334 14 56.001c0 29.333 -4.66699 48.5 -14 57.5s-22 13.5 -38 13.5s-28.667 -4.5 -38 -13.5s-14 -28.167 -14 -57.5c0 -28.667 4.66699 -47.334 14 -56.001s22 -13 38 -13z" />
    <glyph glyph-name="cedilla" unicode="&#xcb;" 
d="M246 -237c-16.667 0 -32.6641 2.33203 -47.9971 6.99902s-28 10.334 -38 17.001l8 35c13.333 -5.33301 26.166 -9.83301 38.499 -13.5s24.166 -5.5 35.499 -5.5c21.333 0 36.166 3.33301 44.499 10s12.5 16.667 12.5 30v8c0 13.333 -3.16699 22.833 -9.5 28.5
s-16.166 8.5 -29.499 8.5c-11.333 0 -19.833 -1.33301 -25.5 -4s-11.834 -6.66699 -18.501 -12l-30 24l41 104h39l-35 -89l33 17c25.333 0.666992 46.5 -5.83301 63.5 -19.5s25.5 -33.5 25.5 -59.5c0 -14.667 -3 -27.5 -9 -38.5s-13.833 -20 -23.5 -27
s-21 -12.167 -34 -15.5s-26.5 -5 -40.5 -5z" />
    <glyph glyph-name="hungarumlaut" unicode="&#xcd;" 
d="M369 757h72l-105 -164h-38zM225 757h72l-105 -164h-38z" />
    <glyph glyph-name="ogonek" unicode="&#xce;" 
d="M246 -235c-24.667 0 -45.835 7.33594 -63.502 22.0029s-26.5 34.667 -26.5 60c0 16 2.83301 31.167 8.5 45.5s13 27.666 22 39.999s19.333 24.166 31 35.499s23.834 22 36.501 32h30l-41 -57c-11.333 -16.667 -19.666 -31.334 -24.999 -44.001s-8 -28.667 -8 -48
c0 -32 15 -48 45 -48c11.333 0 20.666 1.16699 27.999 3.5s17.666 5.83301 30.999 10.5l6 -34c-7.33301 -4 -16.666 -8 -27.999 -12s-26.666 -6 -45.999 -6z" />
    <glyph glyph-name="caron" unicode="&#xcf;" 
d="M123 769h59l48 -90l21 -60l21 60l53 90h52l-102 -176h-49z" />
    <glyph glyph-name="emdash" unicode="&#xd0;" horiz-adv-x="621" 
d="M55 321h511v-49h-511v49z" />
    <glyph glyph-name="AE" unicode="&#xe1;" horiz-adv-x="799" 
d="M377 651h360v-51h-274v-239h239v-48h-239v-262h291v-51h-353v150h-235l-83 -150h-62zM401 198v294l5 139l-46 -113l-167 -320h208z" />
    <glyph glyph-name="ordfeminine" unicode="&#xe3;" horiz-adv-x="421" 
d="M282 518c0 14 -1 27.001 -3 39.001s-6 22.333 -12 31s-14.167 15.5 -24.5 20.5s-23.5 7.5 -39.5 7.5c-21.333 0 -42.333 -2.33301 -63 -7s-42 -10.667 -64 -18l-8 41c22.667 9.33301 44.334 16.833 65.001 22.5s43.667 8.5 69 8.5c46.667 0 80.667 -13 102 -39
s32 -66.667 32 -122v-225c0 -12 2.33301 -20.167 7 -24.5s12 -6.5 22 -6.5h15l2 -32c-3.33301 -2 -8.5 -4 -15.5 -6s-14.5 -3 -22.5 -3c-5.33301 0 -11 0.666992 -17 2s-11 2.66602 -15 3.99902l-27 48l-39 -46c-8 -3.33301 -18 -6 -30 -8s-24.667 -3 -38 -3
c-18.667 0 -36 2.16699 -52 6.5s-29.833 11.5 -41.5 21.5s-20.834 23 -27.501 39s-10 36 -10 60c0 44 12.833 76.333 38.5 97s64.167 32.667 115.5 36l81 5v51zM282 435.001l-77 -7c-38 -3.33301 -64.5 -12.333 -79.5 -27s-22.5 -38 -22.5 -70v-5
c0 -29.333 6 -50.5 18 -63.5s33 -19.5 63 -19.5c24.667 0 44.5 4.66699 59.5 14s27.833 20.333 38.5 33v145z" />
    <glyph glyph-name="Lslash" unicode="&#xe8;" horiz-adv-x="479" 
d="M30 246v53l75 36v316h62v-286l154 74v-53l-154 -74v-261h276v-51h-338v282z" />
    <glyph glyph-name="Oslash" unicode="&#xe9;" horiz-adv-x="591" 
d="M466 586c24 -29.333 42.001 -65.832 54.001 -109.499s18 -92.834 18 -147.501c0 -110 -19.833 -194.667 -59.5 -254s-101.167 -89 -184.5 -89c-52 0 -96 13.333 -132 40l-61 -111l-40 23l66 121c-25.333 30 -44 67.667 -56 113s-18 97 -18 155c0 50 5 95.5 15 136.5
s25.167 76.333 45.5 106s45.666 52.667 75.999 69s65.833 24.5 106.5 24.5c54 0 99.333 -14.667 136 -44l58 107l40 -22l-64 -118v0zM408.001 576.001c-26.667 24 -64.333 36 -113 36c-58.667 0 -103.167 -22.167 -133.5 -66.5s-45.5 -112.833 -45.5 -205.5v-19
c0 -95.333 12.667 -166 38 -212zM185.002 69.001c27.333 -24.667 64.334 -37 111.001 -37c57.333 0 101.5 22.667 132.5 68s46.5 120 46.5 224v20c0 42.667 -2.83301 80 -8.5 112s-14.834 59 -27.501 81z" />
    <glyph glyph-name="OE" unicode="&#xea;" horiz-adv-x="801" 
d="M333 0c-96.667 0 -167.5 26.501 -212.5 79.501s-67.5 135.5 -67.5 247.5c0 105.333 22.333 185.666 67 240.999s112.667 83 204 83h415v-51h-269v-239h234v-48h-234v-262h286v-51h-423v0zM408 48.001l-0.000976562 551.001h-66c-38 0 -71 -4 -99 -12
s-51.167 -21.833 -69.5 -41.5s-31.833 -46.334 -40.5 -80.001s-13 -76.167 -13 -127.5v-18c0 -56 4.5 -101.667 13.5 -137s22.667 -63 41 -83s41.333 -33.667 69 -41s59.834 -11 96.501 -11h68z" />
    <glyph glyph-name="ordmasculine" unicode="&#xeb;" horiz-adv-x="436" 
d="M219 206c-24.667 0 -47.501 5.16504 -68.501 15.498s-38.833 25.333 -53.5 45s-26.167 43.5 -34.5 71.5s-12.5 60 -12.5 96s4.16699 68.167 12.5 96.5s20 52.333 35 72s32.833 34.667 53.5 45s43.334 15.5 68.001 15.5s47.167 -5.16699 67.5 -15.5
s37.833 -25.166 52.5 -44.499s26.167 -43 34.5 -71s12.5 -59.667 12.5 -95c0 -73.333 -15.167 -130.166 -45.5 -170.499s-70.833 -60.5 -121.5 -60.5zM218.999 246.998c16.667 0 31.8311 2.83594 45.498 8.50293s25.334 15.334 35.001 29.001s17.167 32.167 22.5 55.5
s8 52.333 8 87v11c0 35.333 -2.66699 64.666 -8 87.999s-12.666 42 -21.999 56s-20.833 23.833 -34.5 29.5s-29.167 8.5 -46.5 8.5c-16.667 0 -32 -2.83301 -46 -8.5s-26 -15.334 -36 -29.001s-17.667 -31.834 -23 -54.501s-8 -51.334 -8 -86.001v-11
c0 -36 2.66699 -65.833 8 -89.5s13 -42.5 23 -56.5s22 -23.833 36 -29.5s29.333 -8.5 46 -8.5z" />
    <glyph glyph-name="ae" unicode="&#xf1;" horiz-adv-x="740" 
d="M202 -14c-22 0 -42.3301 2.66895 -60.9971 8.00195s-34.834 13.833 -48.501 25.5s-24.5 27 -32.5 46s-12 42.5 -12 70.5c0 51.333 14.833 88.833 44.5 112.5s75.167 38.167 136.5 43.5l98 8v61c0 17.333 -1.33301 33.166 -4 47.499s-7.5 26.666 -14.5 36.999
s-16.667 18.5 -29 24.5s-28.5 9 -48.5 9c-25.333 0 -50.166 -3 -74.499 -9s-49.166 -13.333 -74.499 -22l-8 46c25.333 10 50 18.333 74 25s51.333 10 82 10c37.333 0 67.333 -8 90 -24s38 -43 46 -81c13.333 36 33.166 62.5 59.499 79.5s58.166 25.5 95.499 25.5
c59.333 0 103.5 -21.5 132.5 -64.5s43.5 -100.5 43.5 -172.5v-46h-312c0 -40.667 3.16699 -74.667 9.5 -102s15.666 -49.166 27.999 -65.499s27.5 -28 45.5 -35s39 -10.5 63 -10.5c22.667 0 44.667 3.33301 66 10s44.333 15.667 69 27l10 -45
c-15.333 -8.66699 -36.5 -17.334 -63.5 -26.001s-55.5 -13 -85.5 -13c-78.667 0 -134.334 32 -167.001 96l-79 -82c-9.33301 -4 -21 -7.33301 -35 -10s-28.667 -4 -44 -4zM638.003 288.002l0.000976562 15c0 65.333 -9.83301 111.5 -29.5 138.5s-48.834 40.5 -87.501 40.5
c-18.667 0 -36.167 -2.66699 -52.5 -8s-30.5 -15 -42.5 -29s-21.5 -33.667 -28.5 -59s-11.167 -58 -12.5 -98h253zM209.004 33.002c18.667 0 34.832 2.33203 48.499 6.99902s25.834 10.834 36.501 18.501s20.167 16.167 28.5 25.5l24.5 27
c-7.33301 20 -12.833 42.5 -16.5 67.5s-5.5 52.5 -5.5 82.5l-92 -9c-45.333 -4.66699 -77.833 -15 -97.5 -31s-29.5 -43.667 -29.5 -83v-7c0 -35.333 8.16699 -60.5 24.5 -75.5s42.5 -22.5 78.5 -22.5z" />
    <glyph glyph-name="dotlessi" unicode="&#xf5;" horiz-adv-x="228" 
d="M85 519h57v-519h-57v519z" />
    <glyph glyph-name="lslash" unicode="&#xf8;" horiz-adv-x="301" 
d="M40 273v52l81 44v349h58v-317l82 44v-52l-82 -45v-348h-58v317z" />
    <glyph glyph-name="oslash" unicode="&#xf9;" horiz-adv-x="496" 
d="M387 465c18.667 -22.667 33.166 -50.833 43.499 -84.5s15.5 -73.5 15.5 -119.5c0 -90.667 -17.833 -159.167 -53.5 -205.5s-83.5 -69.5 -143.5 -69.5c-41.333 0 -77 11 -107 33l-56 -103l-38 22l61 112c-18.667 23.333 -33.167 52.333 -43.5 87s-15.5 75 -15.5 121
c0 44.667 5 84 15 118s23.667 62.333 41 85s38.333 39.667 63 51s51.334 17 80.001 17c40.667 0 76 -11 106 -33l55 100l38 -21l-61 -110v0zM333.999 458.001c-20 16 -48.335 24 -85.002 24c-21.333 0 -40.666 -3.66699 -57.999 -11s-32.166 -19.333 -44.499 -36
s-21.833 -38.667 -28.5 -66s-10 -61 -10 -101v-13c0 -74.667 8.33301 -128.667 25 -162zM161.997 55.001c11.333 -9.33301 24.333 -15.668 39 -19.001s30.667 -5 48 -5c20.667 0 39.5 3.83301 56.5 11.5s31.667 20.167 44 37.5s21.833 39.833 28.5 67.5
s10 61.834 10 102.501v13c0 72 -8.33301 124.667 -25 158z" />
    <glyph glyph-name="oe" unicode="&#xfa;" horiz-adv-x="798" 
d="M442 246c0 -40 3.16602 -73.667 9.49902 -101s15.666 -49.333 27.999 -66s27.5 -28.5 45.5 -35.5s39 -10.5 63 -10.5c22.667 0 44.667 3.33301 66 10s44.333 15.667 69 27l10 -45c-15.333 -8.66699 -36.5 -17.334 -63.5 -26.001s-55.5 -13 -85.5 -13
c-44 0 -81.167 10.833 -111.5 32.5s-50.5 55.5 -60.5 101.5c-12.667 -47.333 -33.167 -81.5 -61.5 -102.5s-62.166 -31.5 -101.499 -31.5c-30 0 -57.167 5.83301 -81.5 17.5s-45.166 29 -62.499 52s-30.833 51.5 -40.5 85.5s-14.5 73 -14.5 117c0 44.667 5 84 15 118
s23.667 62.333 41 85s38.333 39.667 63 51s51.334 17 80.001 17c38.667 0 72.667 -10.667 102 -32s49.666 -55.666 60.999 -102.999c4.66699 23.333 12.167 43.5 22.5 60.5s22.833 31 37.5 42s31 19.167 49 24.5s37 8 57 8c59.333 0 103.5 -21.5 132.5 -64.5
s43.5 -100.5 43.5 -172.5v-46h-312v0zM694.999 288l0.000976562 15c0 65.333 -9.83301 111.5 -29.5 138.5s-48.834 40.5 -87.501 40.5c-18.667 0 -36.167 -2.66699 -52.5 -8s-30.5 -15 -42.5 -29s-21.5 -33.667 -28.5 -59s-11.167 -58 -12.5 -98h253zM249 32
c20.667 0 39.333 3.83105 56 11.498s31 20 43 37s21.333 39.333 28 67s10 61.834 10 102.501v13c0 42 -3.16699 76.833 -9.5 104.5s-15.5 50 -27.5 67s-26.333 29 -43 36s-35.667 10.5 -57 10.5s-40.5 -3.5 -57.5 -10.5s-31.5 -18.833 -43.5 -35.5s-21.333 -38.667 -28 -66
s-10 -61 -10 -101v-13c0 -42 3.33301 -77.167 10 -105.5s16.167 -51.166 28.5 -68.499s27 -29.833 44 -37.5s35.833 -11.5 56.5 -11.5z" />
    <glyph glyph-name="germandbls" unicode="&#xfb;" horiz-adv-x="539" 
d="M348 -14c-31.333 0 -56.9961 3.16309 -76.9961 9.49609s-37 13.5 -51 21.5l9 46c17.333 -7.33301 35.166 -14.333 53.499 -21s39.833 -10 64.5 -10c32 0 55.5 7.16699 70.5 21.5s22.5 38.5 22.5 72.5c0 19.333 -1.66699 34.666 -5 45.999s-8.83301 20.5 -16.5 27.5
s-17.667 13 -30 18s-27.833 10.5 -46.5 16.5c-14 4.66699 -28 10 -42 16s-26.5 14.167 -37.5 24.5s-19.833 23.833 -26.5 40.5s-10 38 -10 64c0 34 7.5 60.333 22.5 79s31.5 32.334 49.5 41.001l56 5v30c0 26 -1.16699 48.167 -3.5 66.5s-7.16602 33.166 -14.499 44.499
s-17.833 19.5 -31.5 24.5s-31.834 7.5 -54.501 7.5s-41.334 -3.5 -56.001 -10.5s-26.167 -17.833 -34.5 -32.5s-14 -33.5 -17 -56.5s-4.5 -50.167 -4.5 -81.5v-496h-56v479c0 82 13 143.5 39 184.5s69.333 61.5 130 61.5c31.333 0 57 -4.83301 77 -14.5
s35.833 -23.5 47.5 -41.5s19.667 -39.333 24 -64s6.5 -52 6.5 -82v-40l-43 -9c-14 -2.66699 -26.333 -6 -37 -10s-19.5 -9.5 -26.5 -16.5s-12.167 -15.833 -15.5 -26.5s-5 -24 -5 -40c0 -17.333 1.83301 -31.166 5.5 -41.499s9.16699 -18.666 16.5 -24.999
s16.5 -11.666 27.5 -15.999l37.5 -14.5c15.333 -5.33301 30.666 -11.166 45.999 -17.499s29.166 -15 41.499 -26s22.5 -25.5 30.5 -43.5s12 -41.333 12 -70c0 -19.333 -2.83301 -37.666 -8.5 -54.999s-14.5 -32.333 -26.5 -45s-27.333 -22.667 -46 -30s-41 -11 -67 -11z" />
    <glyph glyph-name="NUL" horiz-adv-x="0" 
 />
    <glyph glyph-name="nonmarkingreturn" horiz-adv-x="238" 
 />
    <glyph glyph-name="Scaron" horiz-adv-x="485" 
d="M243 -14c-48 0 -86.499 4.67188 -115.499 14.0049s-53.5 20 -73.5 32l13 45c27.333 -12.667 53.333 -22.834 78 -30.501s53 -11.5 85 -11.5c23.333 0 43.666 2 60.999 6s31.833 11 43.5 21s20.5 23.333 26.5 40s9 37.667 9 63c0 18.667 -1.83301 34.834 -5.5 48.501
s-10.167 25.667 -19.5 36s-22.333 19.5 -39 27.5s-37.667 16 -63 24c-30 9.33301 -56.5 19 -79.5 29s-42.167 22 -57.5 36s-26.833 31.167 -34.5 51.5s-11.5 45.5 -11.5 75.5c0 56.667 16.333 99.167 49 127.5s78 42.5 136 42.5c38.667 0 70.167 -3.16699 94.5 -9.5
s46.833 -14.166 67.5 -23.499l-12 -48c-13.333 4.66699 -25.5 8.66699 -36.5 12s-22.333 6.16602 -34 8.49902s-24.334 4.16602 -38.001 5.49902s-29.5 2 -47.5 2c-40.667 0 -70.834 -8.16699 -90.501 -24.5s-29.5 -45.833 -29.5 -88.5c0 -19.333 1.66699 -35.5 5 -48.5
s9.83301 -24.333 19.5 -34s23 -18.334 40 -26.001s39.167 -15.834 66.5 -24.501c28 -8.66699 53.333 -18.334 76 -29.001s41.834 -23.334 57.501 -38.001s27.834 -32.5 36.501 -53.5s13 -46.5 13 -76.5c0 -60 -17.333 -105.167 -52 -135.5s-80.667 -45.5 -138 -45.5z
M115.001 888.005h59l48 -90l21 -60l21 60l53 90h52l-102 -176h-49z" />
    <glyph glyph-name="scaron" horiz-adv-x="393" 
d="M189 -14c-34 0 -62.8311 3.49902 -86.498 10.499s-42.834 14.5 -57.501 22.5l10 45c17.333 -8 37.333 -15.333 60 -22s47 -10 73 -10c32 0 57.667 7.33301 77 22s29 40.334 29 77.001c0 16.667 -1.5 30.667 -4.5 42s-8.83301 21 -17.5 29s-20.834 15.167 -36.501 21.5
s-36.167 13.166 -61.5 20.499c-18.667 5.33301 -36 11.666 -52 18.999s-29.5 16.333 -40.5 27s-19.667 23.834 -26 39.501s-9.5 34.834 -9.5 57.501c0 47.333 14 82.833 42 106.5s65.333 35.5 112 35.5c28.667 0 54.167 -2.83301 76.5 -8.5s41.166 -12.5 56.499 -20.5
l-10 -43l-28 9.5c-8.66699 3 -17.667 5.5 -27 7.5s-19.5 3.66699 -30.5 5s-23.833 2 -38.5 2c-31.333 0 -55.5 -6.16699 -72.5 -18.5s-25.5 -36.833 -25.5 -73.5c0 -16.667 2 -30.167 6 -40.5s10.333 -19 19 -26s19.834 -12.833 33.501 -17.5s30.167 -10 49.5 -16
c23.333 -6.66699 43.833 -14.167 61.5 -22.5s32.334 -18.5 44.001 -30.5s20.5 -26.333 26.5 -43s9 -37 9 -61c0 -20.667 -3.33301 -40 -10 -58s-16.834 -33.5 -30.501 -46.5s-30.5 -23.167 -50.5 -30.5s-43.333 -11 -70 -11zM69.002 768.999h59l48 -90l21 -60l21 60l53 90
h52l-102 -176h-49z" />
    <glyph glyph-name="Yacute" horiz-adv-x="507" 
d="M228 231l-198 420h67l132 -293l30 -112l32 112l128 293h58l-187 -416v-235h-62v231zM308 876h72l-105 -164h-38z" />
    <glyph glyph-name="yacute" horiz-adv-x="438" 
d="M189 12l-164 507h59l110 -352l25 -134l27 134l110 352h57l-218 -681h-57zM274 757h72l-105 -164h-38z" />
    <glyph glyph-name="Thorn" horiz-adv-x="519" 
d="M90 651l62.001 0.000976562v-113h128c35.333 0 65.666 -5 90.999 -15s46 -23.833 62 -41.5s27.833 -38.334 35.5 -62.001s11.5 -49.167 11.5 -76.5c0 -26.667 -3.66699 -52 -11 -76s-19 -45 -35 -63s-36.667 -32.333 -62 -43s-56 -16 -92 -16h-128v-145h-62v651z
M273.001 190.001c51.333 0 87.5 11.668 108.5 35.001s31.5 61.666 31.5 114.999v8c0 51.333 -10.667 87.333 -32 108s-58 31 -110 31h-119v-297h121z" />
    <glyph glyph-name="thorn" horiz-adv-x="502" 
d="M139 -162l-57 -0.00195312v880h57v-250c14.667 14.667 33 28.5 55 41.5s49 19.5 81 19.5c54.667 0 97.834 -21.167 129.501 -63.5s47.5 -109.166 47.5 -200.499c0 -99.333 -16.5 -170.666 -49.5 -213.999s-79.167 -65 -138.5 -65c-16.667 0 -31.334 1.5 -44.001 4.5
s-22.667 5.83301 -30 8.5l-51 46v-207zM139 75.998c17.333 -13.333 35.501 -24.1641 54.501 -32.4971s40.167 -12.5 63.5 -12.5s43.5 3.66699 60.5 11s31 19.666 42 36.999s19.333 40.5 25 69.5s8.5 64.833 8.5 107.5v14c0 42 -3 76.667 -9 104s-14.5 48.833 -25.5 64.5
s-24.167 26.667 -39.5 33s-32 9.5 -50 9.5c-16.667 0 -31.834 -1.83301 -45.501 -5.5s-25.667 -8.33398 -36 -14.001s-19.5 -11.834 -27.5 -18.501s-15 -13 -21 -19v-348z" />
    <glyph glyph-name="Zcaron" horiz-adv-x="490" 
d="M50 67l306 490l39 48l-76 -5h-255v51h372v-71l-302 -483l-48 -56l86 10h265v-51h-387v67zM118 888h59l48 -90l21 -60l21 60l53 90h52l-102 -176h-49z" />
    <glyph glyph-name="zcaron" horiz-adv-x="407" 
d="M38 55l250 377l33 42l-78 -6h-190v51h316v-59l-251 -380l-37 -42l81 10h207v-48h-331v55zM76 769h59l48 -90l21 -60l21 60l53 90h52l-102 -176h-49z" />
    <glyph glyph-name="onehalf" horiz-adv-x="797" 
d="M35 298h57v282h-57v24l82 47h29v-353h55v-38h-166v38zM525 651h51l-358 -651h-51zM512 43l3.99805 13.001c7.33301 28 20.5 51.667 39.5 71s38.5 37.666 58.5 54.999c22.667 19.333 39.834 35.833 51.501 49.5s17.5 30.167 17.5 49.5v8c0 25.333 -5.33301 42.5 -16 51.5
s-27 13.5 -49 13.5c-17.333 0 -32.666 -2.16699 -45.999 -6.5s-27 -9.5 -41 -15.5l-10 38c11.333 6.66699 25.166 13 41.499 19s37.833 9 64.5 9c40.667 0 69.667 -10.5 87 -31.5s26 -46.5 26 -76.5c0 -16 -2.66699 -30.5 -8 -43.5s-12.5 -25 -21.5 -36
s-19.333 -21.333 -31 -31l-37.5 -30.5c-20.667 -16 -38.167 -31.333 -52.5 -46s-24.166 -34 -29.499 -58l-2 -9l66 7h112v-43h-224v43z" />
    <glyph glyph-name="onequarter" horiz-adv-x="797" 
d="M35 298h57v282h-57v24l82 47h29v-353h55v-38h-166v38zM534 651h51l-358 -651h-51zM645 97h-179v27l163 267h69v-254h51v-40h-51v-97h-53v97zM645 137v141l5 88l-35 -75l-94 -154h124z" />
    <glyph glyph-name="onesuperior" horiz-adv-x="276" 
d="M49 298h57v283h-57v24l82 47h29v-354h55v-37h-166v37z" />
    <glyph glyph-name="threequarters" horiz-adv-x="797" 
d="M153 252c-27.333 0 -50.168 2.66797 -68.501 8.00098s-33.166 11.666 -44.499 18.999l11 37c16 -6.66699 30.5 -12 43.5 -16s29.167 -6 48.5 -6c28 0 48.833 5.66699 62.5 17s20.5 29.666 20.5 54.999v7c0 27.333 -7 46.333 -21 57s-37 16 -69 16h-32v38h24
c34 0 57.333 5 70 15s19 26.667 19 50v4c0 24 -5.83301 40.333 -17.5 49s-30.834 13 -57.501 13c-17.333 0 -31.666 -1.5 -42.999 -4.5s-25 -7.16699 -41 -12.5l-7 39c10.667 4.66699 24 9.33398 40 14.001s35.667 7 59 7c42.667 0 73.5 -9.5 92.5 -28.5
s28.5 -43.5 28.5 -73.5c0 -26 -6.83301 -45.5 -20.5 -58.5s-33.167 -22.833 -58.5 -29.5c28.667 -5.33301 51 -16.5 67 -33.5s24 -40.5 24 -70.5c0 -34 -11.5 -61.167 -34.5 -81.5s-54.833 -30.5 -95.5 -30.5zM571.998 651.001h51l-358 -651h-51zM664.998 97.001h-179v27
l163 267h69v-254h51v-40h-51v-97h-53v97zM664.998 137.001v141l5 88l-35 -75l-94 -154h124z" />
    <glyph glyph-name="threesuperior" horiz-adv-x="342" 
d="M152 252c-27.333 0 -50.168 2.66797 -68.501 8.00098s-33.166 11.666 -44.499 18.999l11 37c16 -6.66699 30.5 -12 43.5 -16s29.167 -6 48.5 -6c28 0 48.833 5.66699 62.5 17s20.5 29.666 20.5 54.999v7c0 27.333 -7 46.333 -21 57s-37 16 -69 16h-32v38h24
c34 0 57.333 5 70 15s19 26.667 19 50v4c0 24 -5.83301 40.333 -17.5 49s-30.834 13 -57.501 13c-17.333 0 -31.666 -1.5 -42.999 -4.5s-25 -7.16699 -41 -12.5l-7 39c10.667 4.66699 24 9.33398 40 14.001s35.667 7 59 7c42.667 0 73.5 -9.5 92.5 -28.5
s28.5 -43.5 28.5 -73.5c0 -26 -6.83301 -45.5 -20.5 -58.5s-33.167 -22.833 -58.5 -29.5c28.667 -5.33301 51 -16.5 67 -33.5s24 -40.5 24 -70.5c0 -34 -11.5 -61.167 -34.5 -81.5s-54.833 -30.5 -95.5 -30.5z" />
    <glyph glyph-name="twosuperior" horiz-adv-x="325" 
d="M44 303l3.99805 13.001c7.33301 28 20.5 51.667 39.5 71s38.5 37.666 58.5 54.999c22.667 19.333 39.834 35.833 51.501 49.5s17.5 30.167 17.5 49.5v8c0 25.333 -5.33301 42.5 -16 51.5s-27 13.5 -49 13.5c-17.333 0 -32.666 -2.16699 -45.999 -6.5s-27 -9.5 -41 -15.5
l-10 38c11.333 6.66699 25.166 13 41.499 19s37.833 9 64.5 9c40.667 0 69.667 -10.5 87 -31.5s26 -46.5 26 -76.5c0 -16 -2.66699 -30.5 -8 -43.5s-12.5 -25 -21.5 -36s-19.333 -21.333 -31 -31l-37.5 -30.5c-20.667 -16 -38.167 -31.333 -52.5 -46
s-24.166 -34 -29.499 -58l-2 -9l66 7h112v-43h-224v43z" />
    <glyph glyph-name="brokenbar" horiz-adv-x="179" 
d="M65 718h49v-381h-49v381zM65 283h49v-383h-49v383z" />
    <glyph glyph-name="minus" horiz-adv-x="490" 
d="M60 327h370v-54h-370v54z" />
    <glyph glyph-name="multiply" horiz-adv-x="490" 
d="M417 160l-38.001 -37l-134 138l-135 -138l-37 37l135 139l-135 139l37 37l134 -138c0.666992 0 7.83398 7.16699 21.501 21.5l46.5 47.5l67 69l38 -37l-68 -69l-25 -25.5l-21.5 -22.5l-15.5 -16l-6 -6z" />
    <glyph glyph-name="eth" horiz-adv-x="496" 
d="M204 553l-18.001 34l90 49c-10 14 -20.667 27.667 -32 41l-36 41h56c7.33301 -6.66699 15.666 -14.834 24.999 -24.501s19.333 -21.167 30 -34.5l84 46l18 -34l-79 -43c13.333 -18.667 26.166 -39.667 38.499 -63s23.333 -49.5 33 -78.5s17.5 -60.5 23.5 -94.5
s9 -70.667 9 -110c0 -54 -4.66699 -99.833 -14 -137.5s-22.666 -68.167 -39.999 -91.5s-38 -40.333 -62 -51s-51 -16 -81 -16s-57.167 5.33301 -81.5 16s-45.166 26.834 -62.499 48.501s-30.833 49 -40.5 82s-14.5 71.5 -14.5 115.5c0 44.667 5 83.334 15 116.001
s23.667 59.667 41 81s38.333 37.166 63 47.499s51.334 15.5 80.001 15.5c10.667 0 20 -0.666992 28 -2s15.333 -3 22 -5l70 -57c-7.33301 32 -17 60.833 -29 86.5s-25.667 50.167 -41 73.5zM375.999 410c-17.333 15.333 -35.334 27.667 -54.001 37s-43 14 -73 14
c-21.333 0 -40.5 -3 -57.5 -9s-31.5 -16.667 -43.5 -32s-21.333 -36.166 -28 -62.499s-10 -59.5 -10 -99.5v-13c0 -42 3.33301 -76.667 10 -104s16.167 -49 28.5 -65s27 -27.333 44 -34s35.833 -10 56.5 -10s39.334 2.83301 56.001 8.5s31 17.167 43 34.5
s21.333 41.666 28 72.999s10 72.333 10 123v13c0 48.667 -3.33301 90.667 -10 126z" />
    <glyph glyph-name="Adieresis" horiz-adv-x="559" 
d="M95 0h-56l208 651h70l205 -651h-65l-45 150h-270zM308 492l-26 137l-32 -137l-93 -294h240zM359 716c-12 0 -22.5 4.33301 -31.5 13s-13.5 19.667 -13.5 33s4.5 24.333 13.5 33s19.5 13 31.5 13s22.5 -4.33301 31.5 -13s13.5 -19.667 13.5 -33s-4.5 -24.333 -13.5 -33
s-19.5 -13 -31.5 -13zM201 716c-12 0 -22.5 4.33301 -31.5 13s-13.5 19.667 -13.5 33s4.5 24.333 13.5 33s19.5 13 31.5 13s22.5 -4.33301 31.5 -13s13.5 -19.667 13.5 -33s-4.5 -24.333 -13.5 -33s-19.5 -13 -31.5 -13z" />
    <glyph glyph-name="Aring" horiz-adv-x="559" 
d="M237 621c-16 7.33301 -29.001 19.333 -39.001 36s-15 37.667 -15 63c0 35.333 9.16699 62.333 27.5 81s41.5 28 69.5 28s51.167 -9.33301 69.5 -28s27.5 -45.667 27.5 -81c0 -24.667 -4.66699 -45.167 -14 -61.5s-21.666 -28.5 -36.999 -36.5l8.5 -26.5l22 -70
l31.5 -99.5l36 -115l98 -311h-65l-45 150h-270l-47 -150h-56zM279.999 651c16 0 28.667 4.33301 38 13s14 27.334 14 56.001c0 29.333 -4.66699 48.5 -14 57.5s-22 13.5 -38 13.5s-28.667 -4.5 -38 -13.5s-14 -28.167 -14 -57.5c0 -28.667 4.66699 -47.334 14 -56.001
s22 -13 38 -13zM396.999 198l-89 294l-26 137l-32 -137l-93 -294h240z" />
    <glyph glyph-name="Ccedilla" horiz-adv-x="494" 
d="M256 -11c-36.667 4.66699 -68.001 16.502 -94.001 35.502s-47 43.333 -63 73s-27.667 64.167 -35 103.5s-11 81.333 -11 126c0 48 4.66699 92.5 14 133.5s24 76.5 44 106.5s45.333 53.5 76 70.5s67.334 25.5 110.001 25.5c32.667 0 60.5 -3 83.5 -9
s46.167 -13.667 69.5 -23l-10 -49c-15.333 4 -29.333 7.83301 -42 11.5s-24.667 6.66699 -36 9s-22.833 4.16602 -34.5 5.49902s-24.5 2 -38.5 2c-22.667 0 -44.334 -4.33301 -65.001 -13s-38.667 -23.334 -54 -44.001s-27.666 -48.334 -36.999 -83.001s-14 -78 -14 -130
v-19c0 -52 3.83301 -96.167 11.5 -132.5s18.834 -65.833 33.501 -88.5s32.5 -39 53.5 -49s44.833 -15 71.5 -15c16.667 0 31.5 0.833008 44.5 2.5s25.333 4 37 7s23.334 6.66699 35.001 11s24.5 8.83301 38.5 13.5l17 -47c-25.333 -11.333 -50.666 -20.333 -75.999 -27
s-55.333 -10 -90 -10h-1l-29 -75l33 17c25.333 0.666992 46.5 -5.83301 63.5 -19.5s25.5 -33.5 25.5 -59.5c0 -14.667 -3 -27.5 -9 -38.5s-13.833 -20 -23.5 -27s-21 -12.167 -34 -15.5s-26.5 -5 -40.5 -5c-16.667 0 -32.667 2.33301 -48 7s-28 10.334 -38 17.001l8 35
c13.333 -5.33301 26.166 -9.83301 38.499 -13.5s24.166 -5.5 35.499 -5.5c21.333 0 36.166 3.33301 44.499 10s12.5 16.667 12.5 30v8c0 13.333 -3.16699 22.833 -9.5 28.5s-16.166 8.5 -29.499 8.5c-11.333 0 -19.833 -1.33301 -25.5 -4s-11.834 -6.66699 -18.501 -12
l-30 24l36 93v0z" />
    <glyph glyph-name="Eacute" horiz-adv-x="488" 
d="M90 651h336v-51h-274v-239h239v-48h-239v-262h291v-51h-353v651zM299 876h72l-105 -164h-38z" />
    <glyph glyph-name="Ntilde" horiz-adv-x="591" 
d="M90 651h71l232 -446l64 -171l-14 191v426h58v-651h-68l-243 466l-55 155l13 -170v-451h-58v651zM340 720c-11.333 0 -21.499 2.66797 -30.499 8.00098s-17.833 13.666 -26.5 24.999l-21 27c-4.66699 5.33301 -8.33398 9.33301 -11.001 12s-6.66699 4 -12 4
c-18.667 0 -28 -18.667 -28 -56v-12h-41c0 39.333 7.33301 68.333 22 87s31.334 28 50.001 28c21.333 0 40.333 -11 57 -33l21 -27c4.66699 -5.33301 8.5 -9.33301 11.5 -12s6.83301 -4 11.5 -4c18.667 0 28 18.667 28 56v12h41c0 -39.333 -7.33301 -68.333 -22 -87
s-31.334 -28 -50.001 -28z" />
    <glyph glyph-name="Odieresis" horiz-adv-x="591" 
d="M294 -14c-40.667 0 -76.165 8.16699 -106.498 24.5s-55.5 39.333 -75.5 69s-34.833 65.5 -44.5 107.5s-14.5 88.667 -14.5 140c0 50 5 95.5 15 136.5s25.167 76.333 45.5 106s45.666 52.667 75.999 69s65.833 24.5 106.5 24.5c40 0 75.167 -8 105.5 -24
s55.666 -38.667 75.999 -68s35.5 -64.5 45.5 -105.5s15 -86.5 15 -136.5c0 -110 -19.833 -194.667 -59.5 -254s-101.167 -89 -184.5 -89zM296.002 34c28.667 0 54.001 5.33398 76.001 16.001s40.5 27.667 55.5 51s26.333 53.333 34 90s11.5 81 11.5 133v20
c0 92.667 -14.833 160.167 -44.5 202.5s-74.167 63.5 -133.5 63.5c-58.667 0 -102.834 -21.833 -132.501 -65.5s-44.5 -111.834 -44.5 -204.501v-19c0 -52 3.83301 -96.167 11.5 -132.5s19 -66 34 -89s33.667 -39.667 56 -50s47.833 -15.5 76.5 -15.5zM374.003 716.001
c-12 0 -22.5 4.33301 -31.5 13s-13.5 19.667 -13.5 33s4.5 24.333 13.5 33s19.5 13 31.5 13s22.5 -4.33301 31.5 -13s13.5 -19.667 13.5 -33s-4.5 -24.333 -13.5 -33s-19.5 -13 -31.5 -13zM216.003 716.001c-12 0 -22.5 4.33301 -31.5 13s-13.5 19.667 -13.5 33
s4.5 24.333 13.5 33s19.5 13 31.5 13s22.5 -4.33301 31.5 -13s13.5 -19.667 13.5 -33s-4.5 -24.333 -13.5 -33s-19.5 -13 -31.5 -13z" />
    <glyph glyph-name="Udieresis" horiz-adv-x="578" 
d="M426 651l61.998 -0.000976562v-651h-30l-25 60l-37 -47c-12 -5.33301 -29.167 -11.166 -51.5 -17.499s-47.166 -9.5 -74.499 -9.5c-34 0 -62.833 5 -86.5 15s-42.834 25.333 -57.501 46s-25.167 47.167 -31.5 79.5s-9.5 70.833 -9.5 115.5v409h62v-432
c0 -38.667 2.33301 -70 7 -94s12.167 -42.667 22.5 -56s23.833 -22.5 40.5 -27.5s37 -7.5 61 -7.5c34.667 0 63.334 5 86.001 15s43.334 21 62.001 33v569zM367.998 715.999c-12 0 -22.5 4.33301 -31.5 13s-13.5 19.667 -13.5 33s4.5 24.333 13.5 33s19.5 13 31.5 13
s22.5 -4.33301 31.5 -13s13.5 -19.667 13.5 -33s-4.5 -24.333 -13.5 -33s-19.5 -13 -31.5 -13zM209.998 715.999c-12 0 -22.5 4.33301 -31.5 13s-13.5 19.667 -13.5 33s4.5 24.333 13.5 33s19.5 13 31.5 13s22.5 -4.33301 31.5 -13s13.5 -19.667 13.5 -33
s-4.5 -24.333 -13.5 -33s-19.5 -13 -31.5 -13z" />
    <glyph glyph-name="aacute" horiz-adv-x="471" 
d="M327 361c0 17.333 -1.33301 33.168 -4 47.501s-7.5 26.666 -14.5 36.999s-16.667 18.5 -29 24.5s-28.5 9 -48.5 9c-25.333 0 -50 -3 -74 -9s-48.667 -13.333 -74 -22l-9 46c25.333 10 50 18.333 74 25s51.333 10 82 10c54 0 93 -15.167 117 -45.5s36 -77.833 36 -142.5
v-267c0 -15.333 2.83301 -25.833 8.5 -31.5s15.167 -8.5 28.5 -8.5h17l2 -35c-4 -2 -9.5 -4 -16.5 -6s-15.167 -3 -24.5 -3c-13.333 0 -25.666 2.33301 -36.999 7l-32 55l-48 -52c-9.33301 -4 -21 -7.33301 -35 -10s-28.667 -4 -44 -4c-22 0 -42.333 2.66699 -61 8
s-34.834 13.833 -48.501 25.5s-24.5 27 -32.5 46s-12 42.5 -12 70.5c0 51.333 14.833 88.833 44.5 112.5s75.167 38.167 136.5 43.5l98 8v61zM327 261.002l-94 -9.00098c-44.667 -4 -77 -14.167 -97 -30.5s-30 -44.166 -30 -83.499v-7c0 -35.333 8.16699 -60.5 24.5 -75.5
s42.5 -22.5 78.5 -22.5c30 0 54.167 5.66699 72.5 17s33.5 24.333 45.5 39v172zM270 757.001h72l-105 -164h-38z" />
    <glyph glyph-name="agrave" horiz-adv-x="471" 
d="M327 361c0 17.333 -1.33301 33.168 -4 47.501s-7.5 26.666 -14.5 36.999s-16.667 18.5 -29 24.5s-28.5 9 -48.5 9c-25.333 0 -50 -3 -74 -9s-48.667 -13.333 -74 -22l-9 46c25.333 10 50 18.333 74 25s51.333 10 82 10c54 0 93 -15.167 117 -45.5s36 -77.833 36 -142.5
v-267c0 -15.333 2.83301 -25.833 8.5 -31.5s15.167 -8.5 28.5 -8.5h17l2 -35c-4 -2 -9.5 -4 -16.5 -6s-15.167 -3 -24.5 -3c-13.333 0 -25.666 2.33301 -36.999 7l-32 55l-48 -52c-9.33301 -4 -21 -7.33301 -35 -10s-28.667 -4 -44 -4c-22 0 -42.333 2.66699 -61 8
s-34.834 13.833 -48.501 25.5s-24.5 27 -32.5 46s-12 42.5 -12 70.5c0 51.333 14.833 88.833 44.5 112.5s75.167 38.167 136.5 43.5l98 8v61zM327 261.002l-94 -9.00098c-44.667 -4 -77 -14.167 -97 -30.5s-30 -44.166 -30 -83.499v-7c0 -35.333 8.16699 -60.5 24.5 -75.5
s42.5 -22.5 78.5 -22.5c30 0 54.167 5.66699 72.5 17s33.5 24.333 45.5 39v172zM118 757.001h72l71 -164h-38z" />
    <glyph glyph-name="acircumflex" horiz-adv-x="471" 
d="M327 361c0 17.333 -1.33301 33.168 -4 47.501s-7.5 26.666 -14.5 36.999s-16.667 18.5 -29 24.5s-28.5 9 -48.5 9c-25.333 0 -50 -3 -74 -9s-48.667 -13.333 -74 -22l-9 46c25.333 10 50 18.333 74 25s51.333 10 82 10c54 0 93 -15.167 117 -45.5s36 -77.833 36 -142.5
v-267c0 -15.333 2.83301 -25.833 8.5 -31.5s15.167 -8.5 28.5 -8.5h17l2 -35c-4 -2 -9.5 -4 -16.5 -6s-15.167 -3 -24.5 -3c-13.333 0 -25.666 2.33301 -36.999 7l-32 55l-48 -52c-9.33301 -4 -21 -7.33301 -35 -10s-28.667 -4 -44 -4c-22 0 -42.333 2.66699 -61 8
s-34.834 13.833 -48.501 25.5s-24.5 27 -32.5 46s-12 42.5 -12 70.5c0 51.333 14.833 88.833 44.5 112.5s75.167 38.167 136.5 43.5l98 8v61zM327 261.002l-94 -9.00098c-44.667 -4 -77 -14.167 -97 -30.5s-30 -44.166 -30 -83.499v-7c0 -35.333 8.16699 -60.5 24.5 -75.5
s42.5 -22.5 78.5 -22.5c30 0 54.167 5.66699 72.5 17s33.5 24.333 45.5 39v172zM203 769.001h49l103 -176h-59l-48 90l-21 60l-21 -60l-53 -90h-52z" />
    <glyph glyph-name="adieresis" horiz-adv-x="471" 
d="M327 361c0 17.333 -1.33301 33.168 -4 47.501s-7.5 26.666 -14.5 36.999s-16.667 18.5 -29 24.5s-28.5 9 -48.5 9c-25.333 0 -50 -3 -74 -9s-48.667 -13.333 -74 -22l-9 46c25.333 10 50 18.333 74 25s51.333 10 82 10c54 0 93 -15.167 117 -45.5s36 -77.833 36 -142.5
v-267c0 -15.333 2.83301 -25.833 8.5 -31.5s15.167 -8.5 28.5 -8.5h17l2 -35c-4 -2 -9.5 -4 -16.5 -6s-15.167 -3 -24.5 -3c-13.333 0 -25.666 2.33301 -36.999 7l-32 55l-48 -52c-9.33301 -4 -21 -7.33301 -35 -10s-28.667 -4 -44 -4c-22 0 -42.333 2.66699 -61 8
s-34.834 13.833 -48.501 25.5s-24.5 27 -32.5 46s-12 42.5 -12 70.5c0 51.333 14.833 88.833 44.5 112.5s75.167 38.167 136.5 43.5l98 8v61zM327 261.002l-94 -9.00098c-44.667 -4 -77 -14.167 -97 -30.5s-30 -44.166 -30 -83.499v-7c0 -35.333 8.16699 -60.5 24.5 -75.5
s42.5 -22.5 78.5 -22.5c30 0 54.167 5.66699 72.5 17s33.5 24.333 45.5 39v172zM314 597.001c-12 0 -22.5 4.33301 -31.5 13s-13.5 19.667 -13.5 33s4.5 24.333 13.5 33s19.5 13 31.5 13s22.5 -4.33301 31.5 -13s13.5 -19.667 13.5 -33s-4.5 -24.333 -13.5 -33
s-19.5 -13 -31.5 -13zM156 597.001c-12 0 -22.5 4.33301 -31.5 13s-13.5 19.667 -13.5 33s4.5 24.333 13.5 33s19.5 13 31.5 13s22.5 -4.33301 31.5 -13s13.5 -19.667 13.5 -33s-4.5 -24.333 -13.5 -33s-19.5 -13 -31.5 -13z" />
    <glyph glyph-name="atilde" horiz-adv-x="471" 
d="M327 361c0 17.333 -1.33301 33.168 -4 47.501s-7.5 26.666 -14.5 36.999s-16.667 18.5 -29 24.5s-28.5 9 -48.5 9c-25.333 0 -50 -3 -74 -9s-48.667 -13.333 -74 -22l-9 46c25.333 10 50 18.333 74 25s51.333 10 82 10c54 0 93 -15.167 117 -45.5s36 -77.833 36 -142.5
v-267c0 -15.333 2.83301 -25.833 8.5 -31.5s15.167 -8.5 28.5 -8.5h17l2 -35c-4 -2 -9.5 -4 -16.5 -6s-15.167 -3 -24.5 -3c-13.333 0 -25.666 2.33301 -36.999 7l-32 55l-48 -52c-9.33301 -4 -21 -7.33301 -35 -10s-28.667 -4 -44 -4c-22 0 -42.333 2.66699 -61 8
s-34.834 13.833 -48.501 25.5s-24.5 27 -32.5 46s-12 42.5 -12 70.5c0 51.333 14.833 88.833 44.5 112.5s75.167 38.167 136.5 43.5l98 8v61zM327 261.002l-94 -9.00098c-44.667 -4 -77 -14.167 -97 -30.5s-30 -44.166 -30 -83.499v-7c0 -35.333 8.16699 -60.5 24.5 -75.5
s42.5 -22.5 78.5 -22.5c30 0 54.167 5.66699 72.5 17s33.5 24.333 45.5 39v172zM274 601.001c-11.333 0 -21.499 2.66797 -30.499 8.00098s-17.833 13.666 -26.5 24.999l-21 27c-4.66699 5.33301 -8.33398 9.33301 -11.001 12s-6.66699 4 -12 4
c-18.667 0 -28 -18.667 -28 -56v-12h-41c0 39.333 7.33301 68.333 22 87s31.334 28 50.001 28c21.333 0 40.333 -11 57 -33l21 -27c4.66699 -5.33301 8.5 -9.33301 11.5 -12s6.83301 -4 11.5 -4c18.667 0 28 18.667 28 56v12h41c0 -39.333 -7.33301 -68.333 -22 -87
s-31.334 -28 -50.001 -28z" />
    <glyph glyph-name="aring" horiz-adv-x="471" 
d="M327 361c0 17.333 -1.33301 33.168 -4 47.501s-7.5 26.666 -14.5 36.999s-16.667 18.5 -29 24.5s-28.5 9 -48.5 9c-25.333 0 -50 -3 -74 -9s-48.667 -13.333 -74 -22l-9 46c25.333 10 50 18.333 74 25s51.333 10 82 10c54 0 93 -15.167 117 -45.5s36 -77.833 36 -142.5
v-267c0 -15.333 2.83301 -25.833 8.5 -31.5s15.167 -8.5 28.5 -8.5h17l2 -35c-4 -2 -9.5 -4 -16.5 -6s-15.167 -3 -24.5 -3c-13.333 0 -25.666 2.33301 -36.999 7l-32 55l-48 -52c-9.33301 -4 -21 -7.33301 -35 -10s-28.667 -4 -44 -4c-22 0 -42.333 2.66699 -61 8
s-34.834 13.833 -48.501 25.5s-24.5 27 -32.5 46s-12 42.5 -12 70.5c0 51.333 14.833 88.833 44.5 112.5s75.167 38.167 136.5 43.5l98 8v61zM327 261.002l-94 -9.00098c-44.667 -4 -77 -14.167 -97 -30.5s-30 -44.166 -30 -83.499v-7c0 -35.333 8.16699 -60.5 24.5 -75.5
s42.5 -22.5 78.5 -22.5c30 0 54.167 5.66699 72.5 17s33.5 24.333 45.5 39v172zM228 591.001c-28 0 -51.167 9.16699 -69.5 27.5s-27.5 45.166 -27.5 80.499s9.16699 62.333 27.5 81s41.5 28 69.5 28s51.167 -9.33301 69.5 -28s27.5 -45.667 27.5 -81
s-9.16699 -62.166 -27.5 -80.499s-41.5 -27.5 -69.5 -27.5zM228 630.001c16 0 28.667 4.33301 38 13s14 27.334 14 56.001c0 29.333 -4.66699 48.5 -14 57.5s-22 13.5 -38 13.5s-28.667 -4.5 -38 -13.5s-14 -28.167 -14 -57.5c0 -28.667 4.66699 -47.334 14 -56.001
s22 -13 38 -13z" />
    <glyph glyph-name="ccedilla" horiz-adv-x="415" 
d="M210 -12c-52 7.33301 -91.665 33.166 -118.998 77.499s-41 109.5 -41 195.5c0 92.667 16.167 160.5 48.5 203.5s79.833 64.5 142.5 64.5c25.333 0 49.333 -2.83301 72 -8.5s43.667 -12.5 63 -20.5l-10 -46c-25.333 8 -47 14.333 -65 19s-36.667 7 -56 7
c-22 0 -41.333 -3 -58 -9s-30.667 -16.833 -42 -32.5s-20 -37.167 -26 -64.5s-9 -62 -9 -104v-13c0 -43.333 3 -79.5 9 -108.5s14.833 -52 26.5 -69s25.834 -29 42.501 -36s35.667 -10.5 57 -10.5c12 0 22.667 0.833008 32 2.5s18.5 4 27.5 7s18.5 6.66699 28.5 11
s21 9.5 33 15.5l15 -43c-15.333 -9.33301 -34.5 -18 -57.5 -26s-47.833 -12.667 -74.5 -14l-30 -75l33 17c25.333 0.666992 46.5 -5.83301 63.5 -19.5s25.5 -33.5 25.5 -59.5c0 -14.667 -3 -27.5 -9 -38.5s-13.833 -20 -23.5 -27s-21 -12.167 -34 -15.5s-26.5 -5 -40.5 -5
c-16.667 0 -32.667 2.33301 -48 7s-28 10.334 -38 17.001l8 35c13.333 -5.33301 26.166 -9.83301 38.499 -13.5s24.166 -5.5 35.499 -5.5c21.333 0 36.166 3.33301 44.499 10s12.5 16.667 12.5 30v8c0 13.333 -3.16699 22.833 -9.5 28.5s-16.166 8.5 -29.499 8.5
c-11.333 0 -19.833 -1.33301 -25.5 -4s-11.834 -6.66699 -18.501 -12l-30 24l36 92v0z" />
    <glyph glyph-name="eacute" horiz-adv-x="474" 
d="M110 243c0 -39.333 3.16602 -72.3311 9.49902 -98.998s15.5 -48.334 27.5 -65.001s27.167 -28.5 45.5 -35.5s39.5 -10.5 63.5 -10.5c22.667 0 44.334 3.16699 65.001 9.5s43 15.166 67 26.499l13 -44c-15.333 -8.66699 -36.5 -17.334 -63.5 -26.001s-55.5 -13 -85.5 -13
c-66.667 0 -117 22.333 -151 67s-51 113.334 -51 206.001c0 48 4.83301 89 14.5 123s23.167 62 40.5 84s38 38 62 48s50.333 15 79 15c59.333 0 103.5 -21.5 132.5 -64.5s43.5 -100.5 43.5 -172.5v-49h-312v0zM362.999 290.002l0.000976562 13
c0 65.333 -9.83301 111.5 -29.5 138.5s-48.834 40.5 -87.501 40.5c-18.667 0 -36.167 -2.66699 -52.5 -8s-30.5 -15 -42.5 -29s-21.5 -33.5 -28.5 -58.5s-11.167 -57.167 -12.5 -96.5h253zM293 757.002h72l-105 -164h-38z" />
    <glyph glyph-name="egrave" horiz-adv-x="474" 
d="M110 243c0 -39.333 3.16602 -72.3311 9.49902 -98.998s15.5 -48.334 27.5 -65.001s27.167 -28.5 45.5 -35.5s39.5 -10.5 63.5 -10.5c22.667 0 44.334 3.16699 65.001 9.5s43 15.166 67 26.499l13 -44c-15.333 -8.66699 -36.5 -17.334 -63.5 -26.001s-55.5 -13 -85.5 -13
c-66.667 0 -117 22.333 -151 67s-51 113.334 -51 206.001c0 48 4.83301 89 14.5 123s23.167 62 40.5 84s38 38 62 48s50.333 15 79 15c59.333 0 103.5 -21.5 132.5 -64.5s43.5 -100.5 43.5 -172.5v-49h-312v0zM362.999 290.002l0.000976562 13
c0 65.333 -9.83301 111.5 -29.5 138.5s-48.834 40.5 -87.501 40.5c-18.667 0 -36.167 -2.66699 -52.5 -8s-30.5 -15 -42.5 -29s-21.5 -33.5 -28.5 -58.5s-11.167 -57.167 -12.5 -96.5h253zM126 757.002h72l71 -164h-38z" />
    <glyph glyph-name="ecircumflex" horiz-adv-x="474" 
d="M110 243c0 -39.333 3.16602 -72.3311 9.49902 -98.998s15.5 -48.334 27.5 -65.001s27.167 -28.5 45.5 -35.5s39.5 -10.5 63.5 -10.5c22.667 0 44.334 3.16699 65.001 9.5s43 15.166 67 26.499l13 -44c-15.333 -8.66699 -36.5 -17.334 -63.5 -26.001s-55.5 -13 -85.5 -13
c-66.667 0 -117 22.333 -151 67s-51 113.334 -51 206.001c0 48 4.83301 89 14.5 123s23.167 62 40.5 84s38 38 62 48s50.333 15 79 15c59.333 0 103.5 -21.5 132.5 -64.5s43.5 -100.5 43.5 -172.5v-49h-312v0zM362.999 290.002l0.000976562 13
c0 65.333 -9.83301 111.5 -29.5 138.5s-48.834 40.5 -87.501 40.5c-18.667 0 -36.167 -2.66699 -52.5 -8s-30.5 -15 -42.5 -29s-21.5 -33.5 -28.5 -58.5s-11.167 -57.167 -12.5 -96.5h253zM215 769.002h49l103 -176h-59l-48 90l-21 60l-21 -60l-53 -90h-52z" />
    <glyph glyph-name="edieresis" horiz-adv-x="474" 
d="M110 243c0 -39.333 3.16602 -72.3311 9.49902 -98.998s15.5 -48.334 27.5 -65.001s27.167 -28.5 45.5 -35.5s39.5 -10.5 63.5 -10.5c22.667 0 44.334 3.16699 65.001 9.5s43 15.166 67 26.499l13 -44c-15.333 -8.66699 -36.5 -17.334 -63.5 -26.001s-55.5 -13 -85.5 -13
c-66.667 0 -117 22.333 -151 67s-51 113.334 -51 206.001c0 48 4.83301 89 14.5 123s23.167 62 40.5 84s38 38 62 48s50.333 15 79 15c59.333 0 103.5 -21.5 132.5 -64.5s43.5 -100.5 43.5 -172.5v-49h-312v0zM362.999 290.002l0.000976562 13
c0 65.333 -9.83301 111.5 -29.5 138.5s-48.834 40.5 -87.501 40.5c-18.667 0 -36.167 -2.66699 -52.5 -8s-30.5 -15 -42.5 -29s-21.5 -33.5 -28.5 -58.5s-11.167 -57.167 -12.5 -96.5h253zM318 597.002c-12 0 -22.5 4.33301 -31.5 13s-13.5 19.667 -13.5 33
s4.5 24.333 13.5 33s19.5 13 31.5 13s22.5 -4.33301 31.5 -13s13.5 -19.667 13.5 -33s-4.5 -24.333 -13.5 -33s-19.5 -13 -31.5 -13zM160 597.002c-12 0 -22.5 4.33301 -31.5 13s-13.5 19.667 -13.5 33s4.5 24.333 13.5 33s19.5 13 31.5 13s22.5 -4.33301 31.5 -13
s13.5 -19.667 13.5 -33s-4.5 -24.333 -13.5 -33s-19.5 -13 -31.5 -13z" />
    <glyph glyph-name="iacute" horiz-adv-x="228" 
d="M85 519h57v-519h-57v519zM166 757h72l-105 -164h-38z" />
    <glyph glyph-name="igrave" horiz-adv-x="228" 
d="M85 519h57v-519h-57v519zM0 757h72l71 -164h-38z" />
    <glyph glyph-name="icircumflex" horiz-adv-x="228" 
d="M85 519h57v-519h-57v519zM89 769h49l103 -176h-59l-48 90l-21 60l-21 -60l-53 -90h-52z" />
    <glyph glyph-name="idieresis" horiz-adv-x="228" 
d="M85 519h57v-519h-57v519zM193 597c-12 0 -22.5 4.33301 -31.5 13s-13.5 19.667 -13.5 33s4.5 24.333 13.5 33s19.5 13 31.5 13s22.5 -4.33301 31.5 -13s13.5 -19.667 13.5 -33s-4.5 -24.333 -13.5 -33s-19.5 -13 -31.5 -13zM35 597c-12 0 -22.5 4.33301 -31.5 13
s-13.5 19.667 -13.5 33s4.5 24.333 13.5 33s19.5 13 31.5 13s22.5 -4.33301 31.5 -13s13.5 -19.667 13.5 -33s-4.5 -24.333 -13.5 -33s-19.5 -13 -31.5 -13z" />
    <glyph glyph-name="ntilde" horiz-adv-x="502" 
d="M182 505c11.333 5.33301 25.167 10.668 41.5 16.001s36.5 8 60.5 8c20.667 0 39.5 -2.83301 56.5 -8.5s31.667 -14.834 44 -27.501s22 -29.167 29 -49.5s10.5 -45.5 10.5 -75.5v-368h-57v380c0 19.333 -2.33301 35.5 -7 48.5s-11 23.333 -19 31s-17.5 13.167 -28.5 16.5
s-23.167 5 -36.5 5c-30 0 -55 -4.66699 -75 -14s-40.667 -22 -62 -38v-429h-57v519h28l27 -64zM298.001 601.002c-11.333 0 -21.499 2.66797 -30.499 8.00098s-17.833 13.666 -26.5 24.999l-21 27c-4.66699 5.33301 -8.33398 9.33301 -11.001 12s-6.66699 4 -12 4
c-18.667 0 -28 -18.667 -28 -56v-12h-41c0 39.333 7.33301 68.333 22 87s31.334 28 50.001 28c21.333 0 40.333 -11 57 -33l21 -27c4.66699 -5.33301 8.5 -9.33301 11.5 -12s6.83301 -4 11.5 -4c18.667 0 28 18.667 28 56v12h41c0 -39.333 -7.33301 -68.333 -22 -87
s-31.334 -28 -50.001 -28z" />
    <glyph glyph-name="oacute" horiz-adv-x="496" 
d="M249 -14c-30 0 -57.1689 5.83301 -81.502 17.5s-45.166 29 -62.499 52s-30.833 51.5 -40.5 85.5s-14.5 73 -14.5 117c0 44.667 5 84 15 118s23.667 62.333 41 85s38.333 39.667 63 51s51.334 17 80.001 17c29.333 0 56 -5.66699 80 -17s44.667 -28.333 62 -51
s30.833 -50.667 40.5 -84s14.5 -72 14.5 -116c0 -90.667 -17.833 -159.167 -53.5 -205.5s-83.5 -69.5 -143.5 -69.5zM248.998 32c20 0 38.333 4 55 12s31.167 20.667 43.5 38s21.833 39.833 28.5 67.5s10 61.167 10 100.5v13c0 42 -3.16699 76.833 -9.5 104.5
s-15.5 50 -27.5 67s-26.333 29 -43 36s-35.667 10.5 -57 10.5s-40.5 -3.5 -57.5 -10.5s-31.5 -18.833 -43.5 -35.5s-21.333 -38.667 -28 -66s-10 -61 -10 -101v-13c0 -40.667 3.5 -75.167 10.5 -103.5s16.667 -51.333 29 -69s27 -30.5 44 -38.5s35.5 -12 55.5 -12z
M302.998 757h72l-105 -164h-38z" />
    <glyph glyph-name="ograve" horiz-adv-x="496" 
d="M249 -14c-30 0 -57.1689 5.83301 -81.502 17.5s-45.166 29 -62.499 52s-30.833 51.5 -40.5 85.5s-14.5 73 -14.5 117c0 44.667 5 84 15 118s23.667 62.333 41 85s38.333 39.667 63 51s51.334 17 80.001 17c29.333 0 56 -5.66699 80 -17s44.667 -28.333 62 -51
s30.833 -50.667 40.5 -84s14.5 -72 14.5 -116c0 -90.667 -17.833 -159.167 -53.5 -205.5s-83.5 -69.5 -143.5 -69.5zM248.998 32c20 0 38.333 4 55 12s31.167 20.667 43.5 38s21.833 39.833 28.5 67.5s10 61.167 10 100.5v13c0 42 -3.16699 76.833 -9.5 104.5
s-15.5 50 -27.5 67s-26.333 29 -43 36s-35.667 10.5 -57 10.5s-40.5 -3.5 -57.5 -10.5s-31.5 -18.833 -43.5 -35.5s-21.333 -38.667 -28 -66s-10 -61 -10 -101v-13c0 -40.667 3.5 -75.167 10.5 -103.5s16.667 -51.333 29 -69s27 -30.5 44 -38.5s35.5 -12 55.5 -12z
M130.998 757h72l71 -164h-38z" />
    <glyph glyph-name="ocircumflex" horiz-adv-x="496" 
d="M249 -14c-30 0 -57.1689 5.83301 -81.502 17.5s-45.166 29 -62.499 52s-30.833 51.5 -40.5 85.5s-14.5 73 -14.5 117c0 44.667 5 84 15 118s23.667 62.333 41 85s38.333 39.667 63 51s51.334 17 80.001 17c29.333 0 56 -5.66699 80 -17s44.667 -28.333 62 -51
s30.833 -50.667 40.5 -84s14.5 -72 14.5 -116c0 -90.667 -17.833 -159.167 -53.5 -205.5s-83.5 -69.5 -143.5 -69.5zM248.998 32c20 0 38.333 4 55 12s31.167 20.667 43.5 38s21.833 39.833 28.5 67.5s10 61.167 10 100.5v13c0 42 -3.16699 76.833 -9.5 104.5
s-15.5 50 -27.5 67s-26.333 29 -43 36s-35.667 10.5 -57 10.5s-40.5 -3.5 -57.5 -10.5s-31.5 -18.833 -43.5 -35.5s-21.333 -38.667 -28 -66s-10 -61 -10 -101v-13c0 -40.667 3.5 -75.167 10.5 -103.5s16.667 -51.333 29 -69s27 -30.5 44 -38.5s35.5 -12 55.5 -12z
M222.998 769h49l103 -176h-59l-48 90l-21 60l-21 -60l-53 -90h-52z" />
    <glyph glyph-name="odieresis" horiz-adv-x="496" 
d="M249 -14c-30 0 -57.1689 5.83301 -81.502 17.5s-45.166 29 -62.499 52s-30.833 51.5 -40.5 85.5s-14.5 73 -14.5 117c0 44.667 5 84 15 118s23.667 62.333 41 85s38.333 39.667 63 51s51.334 17 80.001 17c29.333 0 56 -5.66699 80 -17s44.667 -28.333 62 -51
s30.833 -50.667 40.5 -84s14.5 -72 14.5 -116c0 -90.667 -17.833 -159.167 -53.5 -205.5s-83.5 -69.5 -143.5 -69.5zM248.998 32c20 0 38.333 4 55 12s31.167 20.667 43.5 38s21.833 39.833 28.5 67.5s10 61.167 10 100.5v13c0 42 -3.16699 76.833 -9.5 104.5
s-15.5 50 -27.5 67s-26.333 29 -43 36s-35.667 10.5 -57 10.5s-40.5 -3.5 -57.5 -10.5s-31.5 -18.833 -43.5 -35.5s-21.333 -38.667 -28 -66s-10 -61 -10 -101v-13c0 -40.667 3.5 -75.167 10.5 -103.5s16.667 -51.333 29 -69s27 -30.5 44 -38.5s35.5 -12 55.5 -12z
M326.998 597c-12 0 -22.5 4.33301 -31.5 13s-13.5 19.667 -13.5 33s4.5 24.333 13.5 33s19.5 13 31.5 13s22.5 -4.33301 31.5 -13s13.5 -19.667 13.5 -33s-4.5 -24.333 -13.5 -33s-19.5 -13 -31.5 -13zM168.998 597c-12 0 -22.5 4.33301 -31.5 13s-13.5 19.667 -13.5 33
s4.5 24.333 13.5 33s19.5 13 31.5 13s22.5 -4.33301 31.5 -13s13.5 -19.667 13.5 -33s-4.5 -24.333 -13.5 -33s-19.5 -13 -31.5 -13z" />
    <glyph glyph-name="otilde" horiz-adv-x="496" 
d="M249 -14c-30 0 -57.1689 5.83301 -81.502 17.5s-45.166 29 -62.499 52s-30.833 51.5 -40.5 85.5s-14.5 73 -14.5 117c0 44.667 5 84 15 118s23.667 62.333 41 85s38.333 39.667 63 51s51.334 17 80.001 17c29.333 0 56 -5.66699 80 -17s44.667 -28.333 62 -51
s30.833 -50.667 40.5 -84s14.5 -72 14.5 -116c0 -90.667 -17.833 -159.167 -53.5 -205.5s-83.5 -69.5 -143.5 -69.5zM248.998 32c20 0 38.333 4 55 12s31.167 20.667 43.5 38s21.833 39.833 28.5 67.5s10 61.167 10 100.5v13c0 42 -3.16699 76.833 -9.5 104.5
s-15.5 50 -27.5 67s-26.333 29 -43 36s-35.667 10.5 -57 10.5s-40.5 -3.5 -57.5 -10.5s-31.5 -18.833 -43.5 -35.5s-21.333 -38.667 -28 -66s-10 -61 -10 -101v-13c0 -40.667 3.5 -75.167 10.5 -103.5s16.667 -51.333 29 -69s27 -30.5 44 -38.5s35.5 -12 55.5 -12z
M296.998 601c-11.333 0 -21.499 2.66797 -30.499 8.00098s-17.833 13.666 -26.5 24.999l-21 27c-4.66699 5.33301 -8.33398 9.33301 -11.001 12s-6.66699 4 -12 4c-18.667 0 -28 -18.667 -28 -56v-12h-41c0 39.333 7.33301 68.333 22 87s31.334 28 50.001 28
c21.333 0 40.333 -11 57 -33l21 -27c4.66699 -5.33301 8.5 -9.33301 11.5 -12s6.83301 -4 11.5 -4c18.667 0 28 18.667 28 56v12h41c0 -39.333 -7.33301 -68.333 -22 -87s-31.334 -28 -50.001 -28z" />
    <glyph glyph-name="uacute" horiz-adv-x="498" 
d="M359 519l57.001 -0.000976562v-519h-28l-27 60l-42 -48c-10.667 -5.33301 -24.5 -10.333 -41.5 -15s-37.5 -7 -61.5 -7c-20 0 -38.5 2.83301 -55.5 8.5s-31.5 14.834 -43.5 27.501s-21.5 29.167 -28.5 49.5s-10.5 45.5 -10.5 75.5v368h57v-380
c0 -39.333 8.33301 -66.5 25 -81.5s38 -22.5 64 -22.5c30 0 55.167 4.5 75.5 13.5s40.166 21.833 59.499 38.5v432zM304.001 756.999h72l-105 -164h-38z" />
    <glyph glyph-name="ugrave" horiz-adv-x="498" 
d="M359 519l57.001 -0.000976562v-519h-28l-27 60l-42 -48c-10.667 -5.33301 -24.5 -10.333 -41.5 -15s-37.5 -7 -61.5 -7c-20 0 -38.5 2.83301 -55.5 8.5s-31.5 14.834 -43.5 27.501s-21.5 29.167 -28.5 49.5s-10.5 45.5 -10.5 75.5v368h57v-380
c0 -39.333 8.33301 -66.5 25 -81.5s38 -22.5 64 -22.5c30 0 55.167 4.5 75.5 13.5s40.166 21.833 59.499 38.5v432zM132.001 756.999h72l71 -164h-38z" />
    <glyph glyph-name="ucircumflex" horiz-adv-x="498" 
d="M359 519l57.001 -0.000976562v-519h-28l-27 60l-42 -48c-10.667 -5.33301 -24.5 -10.333 -41.5 -15s-37.5 -7 -61.5 -7c-20 0 -38.5 2.83301 -55.5 8.5s-31.5 14.834 -43.5 27.501s-21.5 29.167 -28.5 49.5s-10.5 45.5 -10.5 75.5v368h57v-380
c0 -39.333 8.33301 -66.5 25 -81.5s38 -22.5 64 -22.5c30 0 55.167 4.5 75.5 13.5s40.166 21.833 59.499 38.5v432zM224.001 768.999h49l103 -176h-59l-48 90l-21 60l-21 -60l-53 -90h-52z" />
    <glyph glyph-name="udieresis" horiz-adv-x="498" 
d="M359 519l57.001 -0.000976562v-519h-28l-27 60l-42 -48c-10.667 -5.33301 -24.5 -10.333 -41.5 -15s-37.5 -7 -61.5 -7c-20 0 -38.5 2.83301 -55.5 8.5s-31.5 14.834 -43.5 27.501s-21.5 29.167 -28.5 49.5s-10.5 45.5 -10.5 75.5v368h57v-380
c0 -39.333 8.33301 -66.5 25 -81.5s38 -22.5 64 -22.5c30 0 55.167 4.5 75.5 13.5s40.166 21.833 59.499 38.5v432zM328.001 596.999c-12 0 -22.5 4.33301 -31.5 13s-13.5 19.667 -13.5 33s4.5 24.333 13.5 33s19.5 13 31.5 13s22.5 -4.33301 31.5 -13
s13.5 -19.667 13.5 -33s-4.5 -24.333 -13.5 -33s-19.5 -13 -31.5 -13zM170.001 596.999c-12 0 -22.5 4.33301 -31.5 13s-13.5 19.667 -13.5 33s4.5 24.333 13.5 33s19.5 13 31.5 13s22.5 -4.33301 31.5 -13s13.5 -19.667 13.5 -33s-4.5 -24.333 -13.5 -33
s-19.5 -13 -31.5 -13z" />
    <glyph glyph-name="degree" horiz-adv-x="320" 
d="M161 381c-32.667 0 -60.001 11.999 -82.001 35.999s-33 59 -33 105c0 22.667 3 42.834 9 60.501s14.333 32.5 25 44.5s22.834 21 36.501 27s28.5 9 44.5 9c31.333 0 58 -12 80 -36s33 -58.667 33 -104c0 -46 -10.833 -81.167 -32.5 -105.5s-48.5 -36.5 -80.5 -36.5z
M160.999 415.999c20 0 35.665 7.16797 46.998 21.501s17 39.833 17 76.5v15c0 38 -5.66699 63.667 -17 77s-27 20 -47 20c-21.333 0 -37.666 -6.5 -48.999 -19.5s-17 -38.167 -17 -75.5v-13c0 -38.667 5.83301 -65.334 17.5 -80.001s27.834 -22 48.501 -22z" />
    <glyph glyph-name="registered" horiz-adv-x="455" 
d="M226 175c-63.333 0 -110.167 21.5 -140.5 64.5s-45.5 103.5 -45.5 181.5c0 75.333 15.667 134.5 47 177.5s78.333 64.5 141 64.5c62 0 108.667 -21.167 140 -63.5s47 -101.5 47 -177.5c0 -164.667 -63 -247 -189 -247zM225.999 205c54.667 0 94.833 16.501 120.5 49.501
s38.5 88.833 38.5 167.5c0 72.667 -13 126 -39 160s-65.333 51 -118 51c-105.333 0 -158 -70.667 -158 -212c0 -74.667 12.5 -129.334 37.5 -164.001s64.5 -52 118.5 -52zM275.998 377.001l50.999 -98h-42l-57 118h-42v-118h-39v286h86c32 0 54.833 -8.16699 68.5 -24.5
s20.5 -36.5 20.5 -60.5c0 -9.33301 -1 -18.333 -3 -27s-5.66699 -16.667 -11 -24s-12.666 -13.5 -21.999 -18.5s-21.333 -8.5 -36 -10.5zM229.997 422.001c19.333 0 32.833 4.5 40.5 13.5s11.5 23.167 11.5 42.5v3c0 18 -4 31.333 -12 40s-21.333 13 -40 13h-44v-112h44z
" />
    <glyph glyph-name="copyright" horiz-adv-x="616" 
d="M306 -14c-86.667 0 -151.335 29.833 -194.002 89.5s-64 143.5 -64 251.5c0 52 5.5 98.833 16.5 140.5s27.333 77 49 106s48.834 51.167 81.501 66.5s70.334 23 113.001 23c86 0 150.833 -29.333 194.5 -88s65.5 -140.667 65.5 -246c0 -228.667 -87.333 -343 -262 -343z
M305.999 19c39.333 0 73.168 5.66699 101.501 17s51.833 29.333 70.5 54s32.5 56.667 41.5 96s13.5 87 13.5 143c0 103.333 -18.5 179.333 -55.5 228s-93.5 73 -169.5 73c-76.667 0 -133.334 -25 -170.001 -75s-55 -126 -55 -228c0 -106 17.833 -183.833 53.5 -233.5
s92.167 -74.5 169.5 -74.5zM310.001 88c-30 0 -55.334 6.16699 -76.001 18.5s-37.5 29.333 -50.5 51s-22.333 47 -28 76s-8.5 60.167 -8.5 93.5s3.16699 64.333 9.5 93s16 53.5 29 74.5s29.833 37.5 50.5 49.5s45.334 18 74.001 18c11.333 0 21.666 -0.5 30.999 -1.5
s18.333 -2.5 27 -4.5s17.167 -4.5 25.5 -7.5l27.5 -9.5l-7 -43l-31.5 9c-9 2.66699 -17.333 4.66699 -25 6s-15.167 2.33301 -22.5 3s-15.666 1 -24.999 1c-14.667 0 -28.5 -3.16699 -41.5 -9.5s-24.167 -16.666 -33.5 -30.999s-16.833 -32.833 -22.5 -55.5
s-8.5 -50.334 -8.5 -83.001v-13c0 -66.667 9.16699 -115 27.5 -145s44.5 -45 78.5 -45c10 0 19.167 0.666992 27.5 2s16.5 3 24.5 5s16.333 4.66699 25 8l29 11l15 -37c-21.333 -12.667 -41 -21.5 -59 -26.5s-38.667 -7.5 -62 -7.5z" />
    <glyph glyph-name="trademark" horiz-adv-x="691" 
d="M330 651h54l74 -253l14 -97l19 97l77 253h56v-366h-48v163l14 183l-40 -164l-57 -182h-47l-53 182l-34 164l12 -183v-163h-41v366zM42 614v37h234v-37h-93v-329h-48v329h-93z" />
    <glyph glyph-name="notequal" horiz-adv-x="554" 
d="M298 470v49h63v88c0 42 9.16699 72.167 27.5 90.5s41.833 27.5 70.5 27.5c19.333 0 36.333 -2.16699 51 -6.5s28 -9.5 40 -15.5l-3 -30h-84c-17.333 0 -29.333 -4 -36 -12s-10 -20.333 -10 -37v-105h119v-49h-119v-470h-56v470h-63zM30 470v49h66v88
c0 42.667 9.66699 73 29 91s43.333 27 72 27c20.667 0 38.667 -2.16699 54 -6.5s29.333 -9.5 42 -15.5l-3 -30h-92c-17.333 0 -29.333 -4 -36 -12s-10 -20.333 -10 -37v-105h98v-49h-98v-470h-56v470h-66z" />
    <glyph glyph-name="infinity" horiz-adv-x="771" 
d="M655 630c-12.667 0 -23.667 4.66699 -33 14s-14 20.666 -14 33.999s4.66699 24.666 14 33.999s20.333 14 33 14s23.667 -4.66699 33 -14s14 -20.666 14 -33.999s-4.66699 -24.666 -14 -33.999s-20.333 -14 -33 -14zM298 470l-0.000976562 49h63v88
c0 41.333 9.5 71.333 28.5 90s42.167 28 69.5 28c16 0 30.833 -2.33301 44.5 -7s25.834 -9.66699 36.501 -15l-3 -30h-74c-17.333 0 -29.333 -4 -36 -12s-10 -20.333 -10 -37v-105h119v-49h-119v-470h-56v470h-63zM29.999 470v49h66v88c0 42.667 9.66699 73 29 91
s43.333 27 72 27c20.667 0 38.667 -2.16699 54 -6.5s29.333 -9.5 42 -15.5l-3 -30h-92c-17.333 0 -29.333 -4 -36 -12s-10 -20.333 -10 -37v-105h98v-49h-98v-470h-56v470h-66zM625.999 519h57v-519h-57v519z" />
    <glyph glyph-name="plusminus" horiz-adv-x="771" 
d="M298 470l-0.000976562 49h63v88c0 41.333 9.5 71.333 28.5 90s42.167 28 69.5 28c18 0 34.833 -2.33301 50.5 -7s28.834 -9.66699 39.501 -15l-3 -30h-83c-17.333 0 -29.333 -4 -36 -12s-10 -20.333 -10 -37v-105h119v-49h-119v-470h-56v470h-63zM29.999 470v49h66v88
c0 42.667 9.66699 73 29 91s43.333 27 72 27c20.667 0 38.667 -2.16699 54 -6.5s29.333 -9.5 42 -15.5l-3 -30h-92c-17.333 0 -29.333 -4 -36 -12s-10 -20.333 -10 -37v-105h98v-49h-98v-470h-56v470h-66zM625.999 718h57v-718h-57v718z" />
    <glyph glyph-name="lessequal" horiz-adv-x="255" 
d="M96 414v278h63v-278l-17 -240h-29zM78 -102l43 103.001l-33 5c-4.66699 4 -8.66699 9.16699 -12 15.5s-5 14.166 -5 23.499c0 17.333 5.66699 31.333 17 42s24.333 16 39 16c15.333 0 28.5 -5.33301 39.5 -16s16.5 -24.667 16.5 -42c0 -16 -3.83301 -31.5 -11.5 -46.5
s-15.167 -28.167 -22.5 -39.5l-48 -73z" />
    <glyph glyph-name="greaterequal" horiz-adv-x="424" 
d="M132 306c-2 16.667 -1.33301 29.168 2 37.501s13.666 15.166 30.999 20.499c30 8.66699 54.167 16.834 72.5 24.501s32.333 17 42 28s16.167 24.667 19.5 41s5 37.5 5 63.5v8c0 23.333 -1.83301 42.666 -5.5 57.999s-10 27.666 -19 36.999s-21.5 16 -37.5 20
s-36.667 6 -62 6c-26 0 -49.667 -2.5 -71 -7.5s-44.666 -12.167 -69.999 -21.5l-9 44c15.333 7.33301 37 15.333 65 24s59 13 93 13c57.333 0 101.5 -14.333 132.5 -43s46.5 -73.667 46.5 -135c0 -28.667 -3.16699 -53.667 -9.5 -75s-16.5 -39.666 -30.5 -54.999
s-32.333 -28 -55 -38s-50.667 -18.333 -84 -25v-157h-39zM122 -101.999l43 103.001l-33 5c-4.66699 4 -8.66699 9.16699 -12 15.5s-5 14.166 -5 23.499c0 17.333 5.66699 31.333 17 42s24.333 16 39 16c15.333 0 28.5 -5.33301 39.5 -16s16.5 -24.667 16.5 -42
c0 -16 -3.83301 -31.5 -11.5 -46.5s-15.167 -28.167 -22.5 -39.5l-48 -73z" />
    <glyph glyph-name="mu" horiz-adv-x="502" 
d="M363 519h56.999v-519h-28l-27 60l-42 -48c-10.667 -5.33301 -24.5 -10.333 -41.5 -15s-37.5 -7 -61.5 -7c-7.33301 0 -14.166 0.333008 -20.499 1s-12.166 1.66699 -17.499 3l-55 52l12 -74v-134h-57v681h57v-380c0 -39.333 8.33301 -66.5 25 -81.5s38 -22.5 64 -22.5
c30 0 55.167 4.5 75.5 13.5s40.166 21.833 59.499 38.5v432z" />
    <glyph glyph-name="partialdiff" horiz-adv-x="594" 
d="M75 -14c-14.667 0 -26.6689 6.83301 -36.002 20.5s-17.166 34.5 -23.499 62.5s-11.833 63.167 -16.5 105.5s-9.33398 92.5 -14.001 150.5h29c3.33301 -33.333 6.33301 -68.333 9 -105s6.16699 -70.334 10.5 -101.001s9.66602 -56 15.999 -76s14.833 -30 25.5 -30
s19.167 10 25.5 30s11.666 45.333 15.999 76s8 64.334 11 101.001l8.5 105l14 150.5c4 42.333 9 77.333 15 105s13.5 48.334 22.5 62.001s20.833 20.5 35.5 20.5s26.5 -6.83301 35.5 -20.5s16.5 -34.334 22.5 -62.001s11.167 -62.667 15.5 -105s8.83301 -92.5 13.5 -150.5
c3.33301 -33.333 6.33301 -68.333 9 -105s6.16699 -70.334 10.5 -101.001s9.66602 -56 15.999 -76s14.833 -30 25.5 -30s19.167 10 25.5 30s11.666 45.333 15.999 76s8 64.334 11 101.001l8.5 105l14 150.5c4 42.333 9 77.333 15 105s13.5 48.334 22.5 62.001
s20.833 20.5 35.5 20.5s26.667 -6.83301 36 -20.5s17.166 -34.334 23.499 -62.001s11.833 -62.667 16.5 -105s9.33398 -92.5 14.001 -150.5h-29l-8.5 105c-3 36.667 -6.66699 70.334 -11 101.001s-9.66602 55.834 -15.999 75.501s-14.833 29.5 -25.5 29.5
s-19 -9.83301 -25 -29.5s-11 -44.834 -15 -75.501s-7.16699 -64.334 -9.5 -101.001s-5.16602 -71.667 -8.49902 -105c-4.66699 -58 -9.33398 -108.167 -14.001 -150.5s-10.167 -77.5 -16.5 -105.5s-14.166 -48.833 -23.499 -62.5s-21.333 -20.5 -36 -20.5
s-26.667 6.83301 -36 20.5s-17.166 34.5 -23.499 62.5s-11.666 63.167 -15.999 105.5s-9.16602 92.5 -14.499 150.5l-8 105c-2.66699 36.667 -6 70.334 -10 101.001s-9 55.834 -15 75.501s-14.333 29.5 -25 29.5s-19 -9.83301 -25 -29.5s-11 -44.834 -15 -75.501
s-7.16699 -64.334 -9.5 -101.001s-5.16602 -71.667 -8.49902 -105c-4.66699 -58 -9.33398 -108.167 -14.001 -150.5s-10.167 -77.5 -16.5 -105.5s-14.166 -48.833 -23.499 -62.5s-21.333 -20.5 -36 -20.5z" />
    <glyph glyph-name="summation" horiz-adv-x="594" 
d="M75 -14c-14.667 0 -26.6689 6.83301 -36.002 20.5s-17.166 34.5 -23.499 62.5s-11.833 63.167 -16.5 105.5s-9.33398 92.5 -14.001 150.5h29c3.33301 -33.333 6.33301 -68.333 9 -105s6.16699 -70.334 10.5 -101.001s9.66602 -56 15.999 -76s14.833 -30 25.5 -30
s19.167 10 25.5 30s11.666 45.333 15.999 76s8 64.334 11 101.001l8.5 105l14 150.5c4 42.333 9 77.333 15 105s13.5 48.334 22.5 62.001s20.833 20.5 35.5 20.5s26.5 -6.83301 35.5 -20.5s16.5 -34.334 22.5 -62.001s11.167 -62.667 15.5 -105s8.83301 -92.5 13.5 -150.5
c3.33301 -33.333 6.33301 -68.333 9 -105s6.16699 -70.334 10.5 -101.001s9.66602 -56 15.999 -76s14.833 -30 25.5 -30s19.167 10 25.5 30s11.666 45.333 15.999 76s8 64.334 11 101.001l8.5 105l14 150.5c4 42.333 9 77.333 15 105s13.5 48.334 22.5 62.001
s20.833 20.5 35.5 20.5s26.667 -6.83301 36 -20.5s17.166 -34.334 23.499 -62.001s11.833 -62.667 16.5 -105s9.33398 -92.5 14.001 -150.5h-29l-8.5 105c-3 36.667 -6.66699 70.334 -11 101.001s-9.66602 55.834 -15.999 75.501s-14.833 29.5 -25.5 29.5
s-19 -9.83301 -25 -29.5s-11 -44.834 -15 -75.501s-7.16699 -64.334 -9.5 -101.001s-5.16602 -71.667 -8.49902 -105c-4.66699 -58 -9.33398 -108.167 -14.001 -150.5s-10.167 -77.5 -16.5 -105.5s-14.166 -48.833 -23.499 -62.5s-21.333 -20.5 -36 -20.5
s-26.667 6.83301 -36 20.5s-17.166 34.5 -23.499 62.5s-11.666 63.167 -15.999 105.5s-9.16602 92.5 -14.499 150.5l-8 105c-2.66699 36.667 -6 70.334 -10 101.001s-9 55.834 -15 75.501s-14.333 29.5 -25 29.5s-19 -9.83301 -25 -29.5s-11 -44.834 -15 -75.501
s-7.16699 -64.334 -9.5 -101.001s-5.16602 -71.667 -8.49902 -105c-4.66699 -58 -9.33398 -108.167 -14.001 -150.5s-10.167 -77.5 -16.5 -105.5s-14.166 -48.833 -23.499 -62.5s-21.333 -20.5 -36 -20.5z" />
    <glyph glyph-name="product" horiz-adv-x="594" 
d="M75 -14c-14.667 0 -26.6689 6.83301 -36.002 20.5s-17.166 34.5 -23.499 62.5s-11.833 63.167 -16.5 105.5s-9.33398 92.5 -14.001 150.5h29c3.33301 -33.333 6.33301 -68.333 9 -105s6.16699 -70.334 10.5 -101.001s9.66602 -56 15.999 -76s14.833 -30 25.5 -30
s19.167 10 25.5 30s11.666 45.333 15.999 76s8 64.334 11 101.001l8.5 105l14 150.5c4 42.333 9 77.333 15 105s13.5 48.334 22.5 62.001s20.833 20.5 35.5 20.5s26.5 -6.83301 35.5 -20.5s16.5 -34.334 22.5 -62.001s11.167 -62.667 15.5 -105s8.83301 -92.5 13.5 -150.5
c3.33301 -33.333 6.33301 -68.333 9 -105s6.16699 -70.334 10.5 -101.001s9.66602 -56 15.999 -76s14.833 -30 25.5 -30s19.167 10 25.5 30s11.666 45.333 15.999 76s8 64.334 11 101.001l8.5 105l14 150.5c4 42.333 9 77.333 15 105s13.5 48.334 22.5 62.001
s20.833 20.5 35.5 20.5s26.667 -6.83301 36 -20.5s17.166 -34.334 23.499 -62.001s11.833 -62.667 16.5 -105s9.33398 -92.5 14.001 -150.5h-29l-8.5 105c-3 36.667 -6.66699 70.334 -11 101.001s-9.66602 55.834 -15.999 75.501s-14.833 29.5 -25.5 29.5
s-19 -9.83301 -25 -29.5s-11 -44.834 -15 -75.501s-7.16699 -64.334 -9.5 -101.001s-5.16602 -71.667 -8.49902 -105c-4.66699 -58 -9.33398 -108.167 -14.001 -150.5s-10.167 -77.5 -16.5 -105.5s-14.166 -48.833 -23.499 -62.5s-21.333 -20.5 -36 -20.5
s-26.667 6.83301 -36 20.5s-17.166 34.5 -23.499 62.5s-11.666 63.167 -15.999 105.5s-9.16602 92.5 -14.499 150.5l-8 105c-2.66699 36.667 -6 70.334 -10 101.001s-9 55.834 -15 75.501s-14.333 29.5 -25 29.5s-19 -9.83301 -25 -29.5s-11 -44.834 -15 -75.501
s-7.16699 -64.334 -9.5 -101.001s-5.16602 -71.667 -8.49902 -105c-4.66699 -58 -9.33398 -108.167 -14.001 -150.5s-10.167 -77.5 -16.5 -105.5s-14.166 -48.833 -23.499 -62.5s-21.333 -20.5 -36 -20.5z" />
    <glyph glyph-name="pi" horiz-adv-x="616" 
d="M306 -14c-86.667 0 -151.335 29.833 -194.002 89.5s-64 143.5 -64 251.5c0 52 5.5 98.833 16.5 140.5s27.333 77 49 106s48.834 51.167 81.501 66.5s70.334 23 113.001 23c86 0 150.833 -29.333 194.5 -88s65.5 -140.667 65.5 -246c0 -228.667 -87.333 -343 -262 -343z
M305.999 19c39.333 0 73.168 5.66699 101.501 17s51.833 29.333 70.5 54s32.5 56.667 41.5 96s13.5 87 13.5 143c0 103.333 -18.5 179.333 -55.5 228s-93.5 73 -169.5 73c-76.667 0 -133.334 -25 -170.001 -75s-55 -126 -55 -228c0 -106 17.833 -183.833 53.5 -233.5
s92.167 -74.5 169.5 -74.5zM189.001 548l127.002 0.000976562c24 0 45 -3.66699 63 -11s32.667 -17.333 44 -30s19.833 -27.5 25.5 -44.5s8.5 -35.167 8.5 -54.5c0 -18.667 -2.66699 -36.667 -8 -54s-13.833 -32.333 -25.5 -45s-26.334 -22.834 -44.001 -30.501
s-38.834 -11.5 -63.501 -11.5h-73v-175h-54v456zM310.003 307.001c36 0 60.167 7.83301 72.5 23.5s18.5 40.834 18.5 75.501v11c0 17.333 -1.5 31.666 -4.5 42.999s-8 20.333 -15 27s-16.5 11.5 -28.5 14.5s-27.333 4.5 -46 4.5h-64v-199h67z" />
    <glyph glyph-name="integral" horiz-adv-x="594" 
d="M75 -14c-14.667 0 -26.6689 6.83301 -36.002 20.5s-17.166 34.5 -23.499 62.5s-11.833 63.167 -16.5 105.5s-9.33398 92.5 -14.001 150.5h29c3.33301 -33.333 6.33301 -68.333 9 -105s6.16699 -70.334 10.5 -101.001s9.66602 -56 15.999 -76s14.833 -30 25.5 -30
s19.167 10 25.5 30s11.666 45.333 15.999 76s8 64.334 11 101.001l8.5 105l14 150.5c4 42.333 9 77.333 15 105s13.5 48.334 22.5 62.001s20.833 20.5 35.5 20.5s26.5 -6.83301 35.5 -20.5s16.5 -34.334 22.5 -62.001s11.167 -62.667 15.5 -105s8.83301 -92.5 13.5 -150.5
c3.33301 -33.333 6.33301 -68.333 9 -105s6.16699 -70.334 10.5 -101.001s9.66602 -56 15.999 -76s14.833 -30 25.5 -30s19.167 10 25.5 30s11.666 45.333 15.999 76s8 64.334 11 101.001l8.5 105l14 150.5c4 42.333 9 77.333 15 105s13.5 48.334 22.5 62.001
s20.833 20.5 35.5 20.5s26.667 -6.83301 36 -20.5s17.166 -34.334 23.499 -62.001s11.833 -62.667 16.5 -105s9.33398 -92.5 14.001 -150.5h-29l-8.5 105c-3 36.667 -6.66699 70.334 -11 101.001s-9.66602 55.834 -15.999 75.501s-14.833 29.5 -25.5 29.5
s-19 -9.83301 -25 -29.5s-11 -44.834 -15 -75.501s-7.16699 -64.334 -9.5 -101.001s-5.16602 -71.667 -8.49902 -105c-4.66699 -58 -9.33398 -108.167 -14.001 -150.5s-10.167 -77.5 -16.5 -105.5s-14.166 -48.833 -23.499 -62.5s-21.333 -20.5 -36 -20.5
s-26.667 6.83301 -36 20.5s-17.166 34.5 -23.499 62.5s-11.666 63.167 -15.999 105.5s-9.16602 92.5 -14.499 150.5l-8 105c-2.66699 36.667 -6 70.334 -10 101.001s-9 55.834 -15 75.501s-14.333 29.5 -25 29.5s-19 -9.83301 -25 -29.5s-11 -44.834 -15 -75.501
s-7.16699 -64.334 -9.5 -101.001s-5.16602 -71.667 -8.49902 -105c-4.66699 -58 -9.33398 -108.167 -14.001 -150.5s-10.167 -77.5 -16.5 -105.5s-14.166 -48.833 -23.499 -62.5s-21.333 -20.5 -36 -20.5z" />
    <glyph glyph-name="Omega" horiz-adv-x="594" 
d="M75 -14c-14.667 0 -26.6689 6.83301 -36.002 20.5s-17.166 34.5 -23.499 62.5s-11.833 63.167 -16.5 105.5s-9.33398 92.5 -14.001 150.5h29c3.33301 -33.333 6.33301 -68.333 9 -105s6.16699 -70.334 10.5 -101.001s9.66602 -56 15.999 -76s14.833 -30 25.5 -30
s19.167 10 25.5 30s11.666 45.333 15.999 76s8 64.334 11 101.001l8.5 105l14 150.5c4 42.333 9 77.333 15 105s13.5 48.334 22.5 62.001s20.833 20.5 35.5 20.5s26.5 -6.83301 35.5 -20.5s16.5 -34.334 22.5 -62.001s11.167 -62.667 15.5 -105s8.83301 -92.5 13.5 -150.5
c3.33301 -33.333 6.33301 -68.333 9 -105s6.16699 -70.334 10.5 -101.001s9.66602 -56 15.999 -76s14.833 -30 25.5 -30s19.167 10 25.5 30s11.666 45.333 15.999 76s8 64.334 11 101.001l8.5 105l14 150.5c4 42.333 9 77.333 15 105s13.5 48.334 22.5 62.001
s20.833 20.5 35.5 20.5s26.667 -6.83301 36 -20.5s17.166 -34.334 23.499 -62.001s11.833 -62.667 16.5 -105s9.33398 -92.5 14.001 -150.5h-29l-8.5 105c-3 36.667 -6.66699 70.334 -11 101.001s-9.66602 55.834 -15.999 75.501s-14.833 29.5 -25.5 29.5
s-19 -9.83301 -25 -29.5s-11 -44.834 -15 -75.501s-7.16699 -64.334 -9.5 -101.001s-5.16602 -71.667 -8.49902 -105c-4.66699 -58 -9.33398 -108.167 -14.001 -150.5s-10.167 -77.5 -16.5 -105.5s-14.166 -48.833 -23.499 -62.5s-21.333 -20.5 -36 -20.5
s-26.667 6.83301 -36 20.5s-17.166 34.5 -23.499 62.5s-11.666 63.167 -15.999 105.5s-9.16602 92.5 -14.499 150.5l-8 105c-2.66699 36.667 -6 70.334 -10 101.001s-9 55.834 -15 75.501s-14.333 29.5 -25 29.5s-19 -9.83301 -25 -29.5s-11 -44.834 -15 -75.501
s-7.16699 -64.334 -9.5 -101.001s-5.16602 -71.667 -8.49902 -105c-4.66699 -58 -9.33398 -108.167 -14.001 -150.5s-10.167 -77.5 -16.5 -105.5s-14.166 -48.833 -23.499 -62.5s-21.333 -20.5 -36 -20.5z" />
    <glyph glyph-name="logicalnot" horiz-adv-x="594" 
d="M75 -14c-14.667 0 -26.6689 6.83301 -36.002 20.5s-17.166 34.5 -23.499 62.5s-11.833 63.167 -16.5 105.5s-9.33398 92.5 -14.001 150.5h29c3.33301 -33.333 6.33301 -68.333 9 -105s6.16699 -70.334 10.5 -101.001s9.66602 -56 15.999 -76s14.833 -30 25.5 -30
s19.167 10 25.5 30s11.666 45.333 15.999 76s8 64.334 11 101.001l8.5 105l14 150.5c4 42.333 9 77.333 15 105s13.5 48.334 22.5 62.001s20.833 20.5 35.5 20.5s26.5 -6.83301 35.5 -20.5s16.5 -34.334 22.5 -62.001s11.167 -62.667 15.5 -105s8.83301 -92.5 13.5 -150.5
c3.33301 -33.333 6.33301 -68.333 9 -105s6.16699 -70.334 10.5 -101.001s9.66602 -56 15.999 -76s14.833 -30 25.5 -30s19.167 10 25.5 30s11.666 45.333 15.999 76s8 64.334 11 101.001l8.5 105l14 150.5c4 42.333 9 77.333 15 105s13.5 48.334 22.5 62.001
s20.833 20.5 35.5 20.5s26.667 -6.83301 36 -20.5s17.166 -34.334 23.499 -62.001s11.833 -62.667 16.5 -105s9.33398 -92.5 14.001 -150.5h-29l-8.5 105c-3 36.667 -6.66699 70.334 -11 101.001s-9.66602 55.834 -15.999 75.501s-14.833 29.5 -25.5 29.5
s-19 -9.83301 -25 -29.5s-11 -44.834 -15 -75.501s-7.16699 -64.334 -9.5 -101.001s-5.16602 -71.667 -8.49902 -105c-4.66699 -58 -9.33398 -108.167 -14.001 -150.5s-10.167 -77.5 -16.5 -105.5s-14.166 -48.833 -23.499 -62.5s-21.333 -20.5 -36 -20.5
s-26.667 6.83301 -36 20.5s-17.166 34.5 -23.499 62.5s-11.666 63.167 -15.999 105.5s-9.16602 92.5 -14.499 150.5l-8 105c-2.66699 36.667 -6 70.334 -10 101.001s-9 55.834 -15 75.501s-14.333 29.5 -25 29.5s-19 -9.83301 -25 -29.5s-11 -44.834 -15 -75.501
s-7.16699 -64.334 -9.5 -101.001s-5.16602 -71.667 -8.49902 -105c-4.66699 -58 -9.33398 -108.167 -14.001 -150.5s-10.167 -77.5 -16.5 -105.5s-14.166 -48.833 -23.499 -62.5s-21.333 -20.5 -36 -20.5z" />
    <glyph glyph-name="radical" horiz-adv-x="438" 
d="M35 375h61l66 -224l26 -135l24 135l153 567h54l-201 -718h-64z" />
    <glyph glyph-name="approxequal" horiz-adv-x="594" 
d="M75 -14c-14.667 0 -26.6689 6.83301 -36.002 20.5s-17.166 34.5 -23.499 62.5s-11.833 63.167 -16.5 105.5s-9.33398 92.5 -14.001 150.5h29c3.33301 -33.333 6.33301 -68.333 9 -105s6.16699 -70.334 10.5 -101.001s9.66602 -56 15.999 -76s14.833 -30 25.5 -30
s19.167 10 25.5 30s11.666 45.333 15.999 76s8 64.334 11 101.001l8.5 105l14 150.5c4 42.333 9 77.333 15 105s13.5 48.334 22.5 62.001s20.833 20.5 35.5 20.5s26.5 -6.83301 35.5 -20.5s16.5 -34.334 22.5 -62.001s11.167 -62.667 15.5 -105s8.83301 -92.5 13.5 -150.5
c3.33301 -33.333 6.33301 -68.333 9 -105s6.16699 -70.334 10.5 -101.001s9.66602 -56 15.999 -76s14.833 -30 25.5 -30s19.167 10 25.5 30s11.666 45.333 15.999 76s8 64.334 11 101.001l8.5 105l14 150.5c4 42.333 9 77.333 15 105s13.5 48.334 22.5 62.001
s20.833 20.5 35.5 20.5s26.667 -6.83301 36 -20.5s17.166 -34.334 23.499 -62.001s11.833 -62.667 16.5 -105s9.33398 -92.5 14.001 -150.5h-29l-8.5 105c-3 36.667 -6.66699 70.334 -11 101.001s-9.66602 55.834 -15.999 75.501s-14.833 29.5 -25.5 29.5
s-19 -9.83301 -25 -29.5s-11 -44.834 -15 -75.501s-7.16699 -64.334 -9.5 -101.001s-5.16602 -71.667 -8.49902 -105c-4.66699 -58 -9.33398 -108.167 -14.001 -150.5s-10.167 -77.5 -16.5 -105.5s-14.166 -48.833 -23.499 -62.5s-21.333 -20.5 -36 -20.5
s-26.667 6.83301 -36 20.5s-17.166 34.5 -23.499 62.5s-11.666 63.167 -15.999 105.5s-9.16602 92.5 -14.499 150.5l-8 105c-2.66699 36.667 -6 70.334 -10 101.001s-9 55.834 -15 75.501s-14.333 29.5 -25 29.5s-19 -9.83301 -25 -29.5s-11 -44.834 -15 -75.501
s-7.16699 -64.334 -9.5 -101.001s-5.16602 -71.667 -8.49902 -105c-4.66699 -58 -9.33398 -108.167 -14.001 -150.5s-10.167 -77.5 -16.5 -105.5s-14.166 -48.833 -23.499 -62.5s-21.333 -20.5 -36 -20.5z" />
    <glyph glyph-name="Delta" horiz-adv-x="594" 
d="M75 -14c-14.667 0 -26.6689 6.83301 -36.002 20.5s-17.166 34.5 -23.499 62.5s-11.833 63.167 -16.5 105.5s-9.33398 92.5 -14.001 150.5h29c3.33301 -33.333 6.33301 -68.333 9 -105s6.16699 -70.334 10.5 -101.001s9.66602 -56 15.999 -76s14.833 -30 25.5 -30
s19.167 10 25.5 30s11.666 45.333 15.999 76s8 64.334 11 101.001l8.5 105l14 150.5c4 42.333 9 77.333 15 105s13.5 48.334 22.5 62.001s20.833 20.5 35.5 20.5s26.5 -6.83301 35.5 -20.5s16.5 -34.334 22.5 -62.001s11.167 -62.667 15.5 -105s8.83301 -92.5 13.5 -150.5
c3.33301 -33.333 6.33301 -68.333 9 -105s6.16699 -70.334 10.5 -101.001s9.66602 -56 15.999 -76s14.833 -30 25.5 -30s19.167 10 25.5 30s11.666 45.333 15.999 76s8 64.334 11 101.001l8.5 105l14 150.5c4 42.333 9 77.333 15 105s13.5 48.334 22.5 62.001
s20.833 20.5 35.5 20.5s26.667 -6.83301 36 -20.5s17.166 -34.334 23.499 -62.001s11.833 -62.667 16.5 -105s9.33398 -92.5 14.001 -150.5h-29l-8.5 105c-3 36.667 -6.66699 70.334 -11 101.001s-9.66602 55.834 -15.999 75.501s-14.833 29.5 -25.5 29.5
s-19 -9.83301 -25 -29.5s-11 -44.834 -15 -75.501s-7.16699 -64.334 -9.5 -101.001s-5.16602 -71.667 -8.49902 -105c-4.66699 -58 -9.33398 -108.167 -14.001 -150.5s-10.167 -77.5 -16.5 -105.5s-14.166 -48.833 -23.499 -62.5s-21.333 -20.5 -36 -20.5
s-26.667 6.83301 -36 20.5s-17.166 34.5 -23.499 62.5s-11.666 63.167 -15.999 105.5s-9.16602 92.5 -14.499 150.5l-8 105c-2.66699 36.667 -6 70.334 -10 101.001s-9 55.834 -15 75.501s-14.333 29.5 -25 29.5s-19 -9.83301 -25 -29.5s-11 -44.834 -15 -75.501
s-7.16699 -64.334 -9.5 -101.001s-5.16602 -71.667 -8.49902 -105c-4.66699 -58 -9.33398 -108.167 -14.001 -150.5s-10.167 -77.5 -16.5 -105.5s-14.166 -48.833 -23.499 -62.5s-21.333 -20.5 -36 -20.5z" />
    <glyph glyph-name="nonbreakingspace" horiz-adv-x="119" 
 />
    <glyph glyph-name="Agrave" horiz-adv-x="559" 
d="M95 0h-56l208 651h70l205 -651h-65l-45 150h-270zM308 492l-26 137l-32 -137l-93 -294h240zM163 876h72l71 -164h-38z" />
    <glyph glyph-name="Atilde" horiz-adv-x="559" 
d="M95 0h-56l208 651h70l205 -651h-65l-45 150h-270zM308 492l-26 137l-32 -137l-93 -294h240zM329 720c-11.333 0 -21.499 2.66797 -30.499 8.00098s-17.833 13.666 -26.5 24.999l-21 27c-4.66699 5.33301 -8.33398 9.33301 -11.001 12s-6.66699 4 -12 4
c-18.667 0 -28 -18.667 -28 -56v-12h-41c0 39.333 7.33301 68.333 22 87s31.334 28 50.001 28c21.333 0 40.333 -11 57 -33l21 -27c4.66699 -5.33301 8.5 -9.33301 11.5 -12s6.83301 -4 11.5 -4c18.667 0 28 18.667 28 56v12h41c0 -39.333 -7.33301 -68.333 -22 -87
s-31.334 -28 -50.001 -28z" />
    <glyph glyph-name="Otilde" horiz-adv-x="591" 
d="M294 -14c-40.667 0 -76.165 8.16699 -106.498 24.5s-55.5 39.333 -75.5 69s-34.833 65.5 -44.5 107.5s-14.5 88.667 -14.5 140c0 50 5 95.5 15 136.5s25.167 76.333 45.5 106s45.666 52.667 75.999 69s65.833 24.5 106.5 24.5c40 0 75.167 -8 105.5 -24
s55.666 -38.667 75.999 -68s35.5 -64.5 45.5 -105.5s15 -86.5 15 -136.5c0 -110 -19.833 -194.667 -59.5 -254s-101.167 -89 -184.5 -89zM296.002 34c28.667 0 54.001 5.33398 76.001 16.001s40.5 27.667 55.5 51s26.333 53.333 34 90s11.5 81 11.5 133v20
c0 92.667 -14.833 160.167 -44.5 202.5s-74.167 63.5 -133.5 63.5c-58.667 0 -102.834 -21.833 -132.501 -65.5s-44.5 -111.834 -44.5 -204.501v-19c0 -52 3.83301 -96.167 11.5 -132.5s19 -66 34 -89s33.667 -39.667 56 -50s47.833 -15.5 76.5 -15.5zM344.003 720.001
c-11.333 0 -21.499 2.66797 -30.499 8.00098s-17.833 13.666 -26.5 24.999l-21 27c-4.66699 5.33301 -8.33398 9.33301 -11.001 12s-6.66699 4 -12 4c-18.667 0 -28 -18.667 -28 -56v-12h-41c0 39.333 7.33301 68.333 22 87s31.334 28 50.001 28c21.333 0 40.333 -11 57 -33
l21 -27c4.66699 -5.33301 8.5 -9.33301 11.5 -12s6.83301 -4 11.5 -4c18.667 0 28 18.667 28 56v12h41c0 -39.333 -7.33301 -68.333 -22 -87s-31.334 -28 -50.001 -28z" />
    <glyph glyph-name="divide" horiz-adv-x="570" 
d="M275 158l1.99805 132.998c0 16.667 2.16699 29.167 6.5 37.5s15.5 14.166 33.5 17.499c26.667 4 48.167 8.83301 64.5 14.5s29.333 13.167 39 22.5s16.834 21.333 21.501 36s8.33398 33 11.001 55l2 16c3.33301 28.667 3.16602 52 -0.500977 70s-11 32.167 -22 42.5
s-25.667 17.333 -44 21s-40.166 5.5 -65.499 5.5c-15.333 0 -32.833 -1.16699 -52.5 -3.5s-39.167 -5.5 -58.5 -9.5l-9 44c16 5.33301 34.667 9.83301 56 13.5s45.333 5.5 72 5.5c28.667 0 54.5 -2.83301 77.5 -8.5s42.667 -15 59 -28s28.833 -30 37.5 -51
s13 -46.5 13 -76.5c0 -28.667 -2.66699 -54.667 -8 -78s-14.833 -43.666 -28.5 -60.999s-32.5 -31.666 -56.5 -42.999s-54.667 -19.666 -92 -24.999l-22 -154zM106.998 368.998l-72 271l61 15l73 -269l45 -232l-27 -8zM251.998 -9.00195c-14 0 -26.5 5.16699 -37.5 15.5
s-16.5 23.5 -16.5 39.5c0 16.667 5.5 30.167 16.5 40.5s23.5 15.5 37.5 15.5c15.333 0 28.333 -5.16699 39 -15.5s16 -23.833 16 -40.5c0 -16 -5.33301 -29.167 -16 -39.5s-23.667 -15.5 -39 -15.5z" />
    <glyph glyph-name="lozenge" horiz-adv-x="594" 
d="M75 -14c-14.667 0 -26.6689 6.83301 -36.002 20.5s-17.166 34.5 -23.499 62.5s-11.833 63.167 -16.5 105.5s-9.33398 92.5 -14.001 150.5h29c3.33301 -33.333 6.33301 -68.333 9 -105s6.16699 -70.334 10.5 -101.001s9.66602 -56 15.999 -76s14.833 -30 25.5 -30
s19.167 10 25.5 30s11.666 45.333 15.999 76s8 64.334 11 101.001l8.5 105l14 150.5c4 42.333 9 77.333 15 105s13.5 48.334 22.5 62.001s20.833 20.5 35.5 20.5s26.5 -6.83301 35.5 -20.5s16.5 -34.334 22.5 -62.001s11.167 -62.667 15.5 -105s8.83301 -92.5 13.5 -150.5
c3.33301 -33.333 6.33301 -68.333 9 -105s6.16699 -70.334 10.5 -101.001s9.66602 -56 15.999 -76s14.833 -30 25.5 -30s19.167 10 25.5 30s11.666 45.333 15.999 76s8 64.334 11 101.001l8.5 105l14 150.5c4 42.333 9 77.333 15 105s13.5 48.334 22.5 62.001
s20.833 20.5 35.5 20.5s26.667 -6.83301 36 -20.5s17.166 -34.334 23.499 -62.001s11.833 -62.667 16.5 -105s9.33398 -92.5 14.001 -150.5h-29l-8.5 105c-3 36.667 -6.66699 70.334 -11 101.001s-9.66602 55.834 -15.999 75.501s-14.833 29.5 -25.5 29.5
s-19 -9.83301 -25 -29.5s-11 -44.834 -15 -75.501s-7.16699 -64.334 -9.5 -101.001s-5.16602 -71.667 -8.49902 -105c-4.66699 -58 -9.33398 -108.167 -14.001 -150.5s-10.167 -77.5 -16.5 -105.5s-14.166 -48.833 -23.499 -62.5s-21.333 -20.5 -36 -20.5
s-26.667 6.83301 -36 20.5s-17.166 34.5 -23.499 62.5s-11.666 63.167 -15.999 105.5s-9.16602 92.5 -14.499 150.5l-8 105c-2.66699 36.667 -6 70.334 -10 101.001s-9 55.834 -15 75.501s-14.333 29.5 -25 29.5s-19 -9.83301 -25 -29.5s-11 -44.834 -15 -75.501
s-7.16699 -64.334 -9.5 -101.001s-5.16602 -71.667 -8.49902 -105c-4.66699 -58 -9.33398 -108.167 -14.001 -150.5s-10.167 -77.5 -16.5 -105.5s-14.166 -48.833 -23.499 -62.5s-21.333 -20.5 -36 -20.5z" />
    <glyph glyph-name="ydieresis" horiz-adv-x="438" 
d="M189 12l-164 507h59l110 -352l25 -134l27 134l110 352h57l-218 -681h-57zM298 597c-12 0 -22.5 4.33301 -31.5 13s-13.5 19.667 -13.5 33s4.5 24.333 13.5 33s19.5 13 31.5 13s22.5 -4.33301 31.5 -13s13.5 -19.667 13.5 -33s-4.5 -24.333 -13.5 -33s-19.5 -13 -31.5 -13
zM140 597c-12 0 -22.5 4.33301 -31.5 13s-13.5 19.667 -13.5 33s4.5 24.333 13.5 33s19.5 13 31.5 13s22.5 -4.33301 31.5 -13s13.5 -19.667 13.5 -33s-4.5 -24.333 -13.5 -33s-19.5 -13 -31.5 -13z" />
    <glyph glyph-name="Ydieresis" horiz-adv-x="507" 
d="M228 231l-198 420h67l132 -293l30 -112l32 112l128 293h58l-187 -416v-235h-62v231zM338 716c-12 0 -22.5 4.33301 -31.5 13s-13.5 19.667 -13.5 33s4.5 24.333 13.5 33s19.5 13 31.5 13s22.5 -4.33301 31.5 -13s13.5 -19.667 13.5 -33s-4.5 -24.333 -13.5 -33
s-19.5 -13 -31.5 -13zM180 716c-12 0 -22.5 4.33301 -31.5 13s-13.5 19.667 -13.5 33s4.5 24.333 13.5 33s19.5 13 31.5 13s22.5 -4.33301 31.5 -13s13.5 -19.667 13.5 -33s-4.5 -24.333 -13.5 -33s-19.5 -13 -31.5 -13z" />
    <glyph glyph-name="Acircumflex" horiz-adv-x="559" 
d="M95 0h-56l208 651h70l205 -651h-65l-45 150h-270zM308 492l-26 137l-32 -137l-93 -294h240zM255 888h49l103 -176h-59l-48 90l-21 60l-21 -60l-53 -90h-52z" />
    <glyph glyph-name="Ecircumflex" horiz-adv-x="488" 
d="M90 651h336v-51h-274v-239h239v-48h-239v-262h291v-51h-353v651zM234 888h49l103 -176h-59l-48 90l-21 60l-21 -60l-53 -90h-52z" />
    <glyph glyph-name="Aacute" horiz-adv-x="559" 
d="M95 0h-56l208 651h70l205 -651h-65l-45 150h-270zM308 492l-26 137l-32 -137l-93 -294h240zM335 876h72l-105 -164h-38z" />
    <glyph glyph-name="Edieresis" horiz-adv-x="488" 
d="M90 651h336v-51h-274v-239h239v-48h-239v-262h291v-51h-353v651zM343 716c-12 0 -22.5 4.33301 -31.5 13s-13.5 19.667 -13.5 33s4.5 24.333 13.5 33s19.5 13 31.5 13s22.5 -4.33301 31.5 -13s13.5 -19.667 13.5 -33s-4.5 -24.333 -13.5 -33s-19.5 -13 -31.5 -13z
M185 716c-12 0 -22.5 4.33301 -31.5 13s-13.5 19.667 -13.5 33s4.5 24.333 13.5 33s19.5 13 31.5 13s22.5 -4.33301 31.5 -13s13.5 -19.667 13.5 -33s-4.5 -24.333 -13.5 -33s-19.5 -13 -31.5 -13z" />
    <glyph glyph-name="Egrave" horiz-adv-x="488" 
d="M90 651h336v-51h-274v-239h239v-48h-239v-262h291v-51h-353v651zM147 876h72l71 -164h-38z" />
    <glyph glyph-name="Iacute" horiz-adv-x="252" 
d="M95 651h62v-651h-62v651zM181 876h72l-105 -164h-38z" />
    <glyph glyph-name="Icircumflex" horiz-adv-x="252" 
d="M95 651h62v-651h-62v651zM101 888h49l103 -176h-59l-48 90l-21 60l-21 -60l-53 -90h-52z" />
    <glyph glyph-name="Idieresis" horiz-adv-x="252" 
d="M95 651h62v-651h-62v651zM205 716c-12 0 -22.5 4.33301 -31.5 13s-13.5 19.667 -13.5 33s4.5 24.333 13.5 33s19.5 13 31.5 13s22.5 -4.33301 31.5 -13s13.5 -19.667 13.5 -33s-4.5 -24.333 -13.5 -33s-19.5 -13 -31.5 -13zM47 716c-12 0 -22.5 4.33301 -31.5 13
s-13.5 19.667 -13.5 33s4.5 24.333 13.5 33s19.5 13 31.5 13s22.5 -4.33301 31.5 -13s13.5 -19.667 13.5 -33s-4.5 -24.333 -13.5 -33s-19.5 -13 -31.5 -13z" />
    <glyph glyph-name="Igrave" horiz-adv-x="252" 
d="M95 651h62v-651h-62v651zM9 876h72l71 -164h-38z" />
    <glyph glyph-name="Oacute" horiz-adv-x="591" 
d="M294 -14c-40.667 0 -76.165 8.16699 -106.498 24.5s-55.5 39.333 -75.5 69s-34.833 65.5 -44.5 107.5s-14.5 88.667 -14.5 140c0 50 5 95.5 15 136.5s25.167 76.333 45.5 106s45.666 52.667 75.999 69s65.833 24.5 106.5 24.5c40 0 75.167 -8 105.5 -24
s55.666 -38.667 75.999 -68s35.5 -64.5 45.5 -105.5s15 -86.5 15 -136.5c0 -110 -19.833 -194.667 -59.5 -254s-101.167 -89 -184.5 -89zM296.002 34c28.667 0 54.001 5.33398 76.001 16.001s40.5 27.667 55.5 51s26.333 53.333 34 90s11.5 81 11.5 133v20
c0 92.667 -14.833 160.167 -44.5 202.5s-74.167 63.5 -133.5 63.5c-58.667 0 -102.834 -21.833 -132.501 -65.5s-44.5 -111.834 -44.5 -204.501v-19c0 -52 3.83301 -96.167 11.5 -132.5s19 -66 34 -89s33.667 -39.667 56 -50s47.833 -15.5 76.5 -15.5zM350.003 876.001h72
l-105 -164h-38z" />
    <glyph glyph-name="Ocircumflex" horiz-adv-x="591" 
d="M294 -14c-40.667 0 -76.165 8.16699 -106.498 24.5s-55.5 39.333 -75.5 69s-34.833 65.5 -44.5 107.5s-14.5 88.667 -14.5 140c0 50 5 95.5 15 136.5s25.167 76.333 45.5 106s45.666 52.667 75.999 69s65.833 24.5 106.5 24.5c40 0 75.167 -8 105.5 -24
s55.666 -38.667 75.999 -68s35.5 -64.5 45.5 -105.5s15 -86.5 15 -136.5c0 -110 -19.833 -194.667 -59.5 -254s-101.167 -89 -184.5 -89zM296.002 34c28.667 0 54.001 5.33398 76.001 16.001s40.5 27.667 55.5 51s26.333 53.333 34 90s11.5 81 11.5 133v20
c0 92.667 -14.833 160.167 -44.5 202.5s-74.167 63.5 -133.5 63.5c-58.667 0 -102.834 -21.833 -132.501 -65.5s-44.5 -111.834 -44.5 -204.501v-19c0 -52 3.83301 -96.167 11.5 -132.5s19 -66 34 -89s33.667 -39.667 56 -50s47.833 -15.5 76.5 -15.5zM270.003 888.001h49
l103 -176h-59l-48 90l-21 60l-21 -60l-53 -90h-52z" />
    <glyph glyph-name="apple" horiz-adv-x="594" 
d="M75 -14c-14.667 0 -26.6689 6.83301 -36.002 20.5s-17.166 34.5 -23.499 62.5s-11.833 63.167 -16.5 105.5s-9.33398 92.5 -14.001 150.5h29c3.33301 -33.333 6.33301 -68.333 9 -105s6.16699 -70.334 10.5 -101.001s9.66602 -56 15.999 -76s14.833 -30 25.5 -30
s19.167 10 25.5 30s11.666 45.333 15.999 76s8 64.334 11 101.001l8.5 105l14 150.5c4 42.333 9 77.333 15 105s13.5 48.334 22.5 62.001s20.833 20.5 35.5 20.5s26.5 -6.83301 35.5 -20.5s16.5 -34.334 22.5 -62.001s11.167 -62.667 15.5 -105s8.83301 -92.5 13.5 -150.5
c3.33301 -33.333 6.33301 -68.333 9 -105s6.16699 -70.334 10.5 -101.001s9.66602 -56 15.999 -76s14.833 -30 25.5 -30s19.167 10 25.5 30s11.666 45.333 15.999 76s8 64.334 11 101.001l8.5 105l14 150.5c4 42.333 9 77.333 15 105s13.5 48.334 22.5 62.001
s20.833 20.5 35.5 20.5s26.667 -6.83301 36 -20.5s17.166 -34.334 23.499 -62.001s11.833 -62.667 16.5 -105s9.33398 -92.5 14.001 -150.5h-29l-8.5 105c-3 36.667 -6.66699 70.334 -11 101.001s-9.66602 55.834 -15.999 75.501s-14.833 29.5 -25.5 29.5
s-19 -9.83301 -25 -29.5s-11 -44.834 -15 -75.501s-7.16699 -64.334 -9.5 -101.001s-5.16602 -71.667 -8.49902 -105c-4.66699 -58 -9.33398 -108.167 -14.001 -150.5s-10.167 -77.5 -16.5 -105.5s-14.166 -48.833 -23.499 -62.5s-21.333 -20.5 -36 -20.5
s-26.667 6.83301 -36 20.5s-17.166 34.5 -23.499 62.5s-11.666 63.167 -15.999 105.5s-9.16602 92.5 -14.499 150.5l-8 105c-2.66699 36.667 -6 70.334 -10 101.001s-9 55.834 -15 75.501s-14.333 29.5 -25 29.5s-19 -9.83301 -25 -29.5s-11 -44.834 -15 -75.501
s-7.16699 -64.334 -9.5 -101.001s-5.16602 -71.667 -8.49902 -105c-4.66699 -58 -9.33398 -108.167 -14.001 -150.5s-10.167 -77.5 -16.5 -105.5s-14.166 -48.833 -23.499 -62.5s-21.333 -20.5 -36 -20.5z" />
    <glyph glyph-name="Ograve" horiz-adv-x="591" 
d="M294 -14c-40.667 0 -76.165 8.16699 -106.498 24.5s-55.5 39.333 -75.5 69s-34.833 65.5 -44.5 107.5s-14.5 88.667 -14.5 140c0 50 5 95.5 15 136.5s25.167 76.333 45.5 106s45.666 52.667 75.999 69s65.833 24.5 106.5 24.5c40 0 75.167 -8 105.5 -24
s55.666 -38.667 75.999 -68s35.5 -64.5 45.5 -105.5s15 -86.5 15 -136.5c0 -110 -19.833 -194.667 -59.5 -254s-101.167 -89 -184.5 -89zM296.002 34c28.667 0 54.001 5.33398 76.001 16.001s40.5 27.667 55.5 51s26.333 53.333 34 90s11.5 81 11.5 133v20
c0 92.667 -14.833 160.167 -44.5 202.5s-74.167 63.5 -133.5 63.5c-58.667 0 -102.834 -21.833 -132.501 -65.5s-44.5 -111.834 -44.5 -204.501v-19c0 -52 3.83301 -96.167 11.5 -132.5s19 -66 34 -89s33.667 -39.667 56 -50s47.833 -15.5 76.5 -15.5zM178.003 876.001h72
l71 -164h-38z" />
    <glyph glyph-name="Uacute" horiz-adv-x="578" 
d="M426 651l61.998 -0.000976562v-651h-30l-25 60l-37 -47c-12 -5.33301 -29.167 -11.166 -51.5 -17.499s-47.166 -9.5 -74.499 -9.5c-34 0 -62.833 5 -86.5 15s-42.834 25.333 -57.501 46s-25.167 47.167 -31.5 79.5s-9.5 70.833 -9.5 115.5v409h62v-432
c0 -38.667 2.33301 -70 7 -94s12.167 -42.667 22.5 -56s23.833 -22.5 40.5 -27.5s37 -7.5 61 -7.5c34.667 0 63.334 5 86.001 15s43.334 21 62.001 33v569zM343.998 875.999h72l-105 -164h-38z" />
    <glyph glyph-name="Ucircumflex" horiz-adv-x="578" 
d="M426 651l61.998 -0.000976562v-651h-30l-25 60l-37 -47c-12 -5.33301 -29.167 -11.166 -51.5 -17.499s-47.166 -9.5 -74.499 -9.5c-34 0 -62.833 5 -86.5 15s-42.834 25.333 -57.501 46s-25.167 47.167 -31.5 79.5s-9.5 70.833 -9.5 115.5v409h62v-432
c0 -38.667 2.33301 -70 7 -94s12.167 -42.667 22.5 -56s23.833 -22.5 40.5 -27.5s37 -7.5 61 -7.5c34.667 0 63.334 5 86.001 15s43.334 21 62.001 33v569zM263.998 887.999h49l103 -176h-59l-48 90l-21 60l-21 -60l-53 -90h-52z" />
    <glyph glyph-name="Ugrave" horiz-adv-x="578" 
d="M426 651l61.998 -0.000976562v-651h-30l-25 60l-37 -47c-12 -5.33301 -29.167 -11.166 -51.5 -17.499s-47.166 -9.5 -74.499 -9.5c-34 0 -62.833 5 -86.5 15s-42.834 25.333 -57.501 46s-25.167 47.167 -31.5 79.5s-9.5 70.833 -9.5 115.5v409h62v-432
c0 -38.667 2.33301 -70 7 -94s12.167 -42.667 22.5 -56s23.833 -22.5 40.5 -27.5s37 -7.5 61 -7.5c34.667 0 63.334 5 86.001 15s43.334 21 62.001 33v569zM183.998 875.999h72l71 -164h-38z" />
    <glyph glyph-name="Euro" horiz-adv-x="516" 
d="M38 370v49.002h79c4.66699 36 12.5 68.833 23.5 98.5s25.5 55.334 43.5 77.001s39.5 38.5 64.5 50.5s53.833 18 86.5 18c30 0 56.167 -2.83301 78.5 -8.5s45.166 -12.834 68.499 -21.501l-11 -49c-15.333 5.33301 -29.166 9.66602 -41.499 12.999
s-23.833 6.16602 -34.5 8.49902s-21.334 4 -32.001 5s-22 1.5 -34 1.5c-19.333 0 -37.333 -3.16699 -54 -9.5s-31.5 -17 -44.5 -32s-24 -34.833 -33 -59.5s-15.5 -55.334 -19.5 -92.001h204v-49h-208v-30v-19v-24c0 -8 0.333008 -15.667 1 -23h207v-49h-203
c7.33301 -69.333 23.5 -118.666 48.5 -147.999s58.833 -44 101.5 -44c15.333 0 28.833 0.666992 40.5 2s22.834 3.5 33.501 6.5s21.667 6.66699 33 11l38 14.5l17 -44c-24.667 -12 -48.667 -21.167 -72 -27.5s-51.333 -9.5 -84 -9.5c-34 0 -63.667 5.66699 -89 17
s-46.833 27.5 -64.5 48.5s-31.667 46.167 -42 75.5s-17.833 62 -22.5 98h-79v49h74c0 8.66699 -0.166992 17.334 -0.5 26.001s-0.5 17.667 -0.5 27v21c0 7.33301 0.333008 14.666 1 21.999h-74z" />
    <glyph glyph-name="Eth" horiz-adv-x="590" 
d="M21 298v51.999h79v301h166c91.333 0 159.333 -27.667 204 -83s67 -135.666 67 -240.999c0 -112 -22.5 -194.5 -67.5 -247.5s-115.833 -79.5 -212.5 -79.5h-157v298h-79zM298 349.999l-0.000976562 -52.001h-136v-250h88c36.667 0 68.834 3.66699 96.501 11
s50.667 21 69 41s32 47.667 41 83s13.5 81 13.5 137v18c0 51.333 -4.33301 93.833 -13 127.5s-22.167 60.334 -40.5 80.001s-41.5 33.5 -69.5 41.5s-61 12 -99 12h-86v-249h136z" />
    </font>
</defs>
</svg>
